<?xml version="1.0" encoding="UTF-8" standalone="no"?>
<!DOCTYPE svg PUBLIC "-//W3C//DTD SVG 1.1//EN" "http://www.w3.org/Graphics/SVG/1.1/DTD/svg11.dtd">
<svg version="1.1" xmlns="http://www.w3.org/2000/svg" xmlns:xlink="http://www.w3.org/1999/xlink" preserveAspectRatio="xMidYMid meet" viewBox="63 -1 516 516" width="100" height="100"><defs><path d="M212.14 0.03L212.6 0.07L213.05 0.13L213.5 0.2L213.93 0.28L214.35 0.38L214.77 0.49L215.17 0.62L215.57 0.77L215.95 0.92L216.33 1.09L216.69 1.28L217.04 1.48L217.39 1.69L217.72 1.91L218.04 2.15L218.35 2.4L218.65 2.66L218.93 2.93L219.21 3.22L219.47 3.52L219.72 3.83L219.96 4.15L220.18 4.48L220.39 4.82L220.59 5.18L220.77 5.54L220.94 5.92L221.1 6.3L221.24 6.69L221.37 7.1L221.49 7.51L221.59 7.94L221.67 8.37L221.74 8.81L221.8 9.26L221.83 9.72L221.86 10.19L221.87 10.67L221.87 45.87L221.86 46.03L221.86 46.19L221.85 46.36L221.83 46.54L221.82 46.71L221.79 46.89L221.77 47.07L221.74 47.26L221.7 47.44L221.67 47.63L221.62 47.82L221.58 48.02L221.53 48.21L221.47 48.41L221.42 48.6L221.35 48.8L221.29 49L221.22 49.2L221.14 49.4L221.07 49.6L220.98 49.8L220.9 50L220.81 50.2L220.71 50.4L220.62 50.6L220.51 50.79L220.41 50.99L220.3 51.18L220.18 51.38L220.07 51.57L219.94 51.76L219.82 51.94L219.69 52.13L219.55 52.31L219.42 52.49L219.27 52.66L219.13 52.84L218.98 53.01L218.82 53.17L218.67 53.33L200.53 67.2L200.53 453.33L200.49 455.72L200.34 458.09L200.11 460.43L199.78 462.75L199.37 465.04L198.87 467.3L198.28 469.53L197.61 471.72L196.85 473.88L196.02 476L195.1 478.08L194.11 480.12L193.04 482.11L191.9 484.06L190.69 485.96L189.41 487.81L188.05 489.61L186.63 491.35L185.15 493.04L183.6 494.67L181.99 496.24L180.32 497.74L178.59 499.19L176.8 500.57L174.96 501.88L173.07 503.11L171.12 504.28L169.12 505.38L167.08 506.39L164.98 507.33L162.85 508.19L160.67 508.97L158.44 509.66L156.18 510.27L153.88 510.79L151.54 511.22L149.17 511.56L146.77 511.8L144.33 511.95L141.87 512L139.48 511.95L137.11 511.81L134.77 511.58L132.45 511.25L130.16 510.84L127.9 510.33L125.67 509.75L123.48 509.07L121.32 508.32L119.2 507.48L117.12 506.57L115.08 505.58L113.09 504.51L111.14 503.37L109.24 502.16L107.39 500.87L105.59 499.52L103.85 498.1L102.16 496.62L100.53 495.07L98.96 493.46L97.46 491.78L96.01 490.06L94.63 488.27L93.33 486.43L92.09 484.53L90.92 482.58L89.82 480.59L88.81 478.54L87.87 476.45L87.01 474.31L86.23 472.13L85.54 469.91L84.93 467.65L84.41 465.35L83.98 463.01L83.64 460.64L83.4 458.24L83.25 455.8L83.2 453.33L83.2 68.27L67.2 53.33L67.04 53.17L66.89 53.01L66.74 52.84L66.59 52.66L66.45 52.49L66.31 52.3L66.18 52.12L66.05 51.93L65.92 51.74L65.8 51.55L65.68 51.35L65.57 51.15L65.46 50.95L65.35 50.75L65.25 50.54L65.15 50.33L65.06 50.12L64.97 49.9L64.88 49.69L64.8 49.47L64.72 49.25L64.65 49.02L64.58 48.8L64.51 48.57L64.45 48.34L64.39 48.11L64.34 47.88L64.29 47.65L64.24 47.42L64.2 47.18L64.16 46.95L64.13 46.71L64.1 46.47L64.07 46.24L64.05 46L64.03 45.76L64.02 45.52L64.01 45.28L64 45.04L64 44.8L64 10.67L64.01 10.19L64.03 9.72L64.07 9.26L64.13 8.81L64.2 8.37L64.28 7.94L64.38 7.51L64.49 7.1L64.62 6.69L64.77 6.3L64.92 5.92L65.09 5.54L65.28 5.18L65.48 4.82L65.69 4.48L65.91 4.15L66.15 3.83L66.4 3.52L66.66 3.22L66.93 2.93L67.22 2.66L67.52 2.4L67.83 2.15L68.15 1.91L68.48 1.69L68.82 1.48L69.18 1.28L69.54 1.09L69.92 0.92L70.3 0.77L70.69 0.62L71.1 0.49L71.51 0.38L71.94 0.28L72.37 0.2L72.81 0.13L73.26 0.07L73.72 0.03L74.19 0.01L74.67 0L211.2 0L211.68 0.01L212.14 0.03ZM105.6 453.33L105.63 454.85L105.72 456.35L105.87 457.83L106.07 459.3L106.33 460.76L106.64 462.19L107.01 463.61L107.43 465L107.91 466.37L108.43 467.72L109.01 469.04L109.63 470.33L110.3 471.6L111.02 472.84L111.79 474.05L112.6 475.23L113.45 476.37L114.35 477.49L115.29 478.56L116.27 479.6L117.29 480.6L118.35 481.56L119.44 482.48L120.58 483.36L121.75 484.2L122.95 484.99L124.19 485.73L125.46 486.43L126.77 487.08L128.1 487.68L129.46 488.23L130.86 488.73L132.28 489.17L133.73 489.56L135.2 489.89L136.7 490.17L138.23 490.38L139.77 490.54L141.34 490.63L142.93 490.67L144.53 490.63L146.1 490.54L147.66 490.38L149.19 490.17L150.71 489.89L152.2 489.56L153.67 489.17L155.12 488.72L156.54 488.22L157.93 487.67L159.3 487.06L160.64 486.4L161.94 485.7L163.22 484.94L164.46 484.14L165.67 483.29L166.84 482.4L167.97 481.47L169.07 480.49L170.13 479.47L171.15 478.41L172.13 477.31L173.07 476.17L173.96 475L174.81 473.79L175.61 472.55L176.36 471.28L177.07 469.97L177.73 468.63L178.33 467.27L178.89 465.87L179.39 464.45L179.83 463.01L180.22 461.54L180.56 460.04L180.83 458.53L181.05 456.99L181.21 455.43L181.3 453.86L181.33 452.27L181.33 232.53L105.6 232.53L105.6 453.33ZM85.33 40.53L102.4 55.47L102.56 55.55L102.71 55.64L102.86 55.74L103.01 55.85L103.15 55.96L103.29 56.08L103.42 56.21L103.55 56.35L103.68 56.49L103.8 56.63L103.92 56.79L104.03 56.95L104.14 57.11L104.25 57.28L104.35 57.45L104.45 57.63L104.54 57.82L104.63 58.01L104.72 58.2L104.8 58.4L104.88 58.6L104.95 58.81L105.02 59.02L105.09 59.23L105.15 59.45L105.21 59.66L105.26 59.89L105.31 60.11L105.36 60.34L105.4 60.57L105.44 60.8L105.47 61.03L105.5 61.26L105.53 61.5L105.55 61.74L105.57 61.98L105.58 62.21L105.59 62.45L105.6 62.69L105.6 62.93L105.6 212.27L181.33 212.27L181.33 62.93L181.34 62.69L181.34 62.45L181.35 62.21L181.37 61.98L181.38 61.74L181.41 61.5L181.43 61.26L181.46 61.03L181.5 60.8L181.53 60.57L181.58 60.34L181.62 60.11L181.67 59.89L181.73 59.66L181.78 59.45L181.85 59.23L181.91 59.02L181.98 58.81L182.06 58.6L182.13 58.4L182.22 58.2L182.3 58.01L182.39 57.82L182.49 57.63L182.58 57.45L182.69 57.28L182.79 57.11L182.9 56.95L183.02 56.79L183.13 56.63L183.26 56.49L183.38 56.35L183.51 56.21L183.65 56.08L183.78 55.96L183.93 55.85L184.07 55.74L184.22 55.64L184.38 55.55L184.53 55.47L184.73 55.29L184.85 55.18L186.13 53.97L200.53 40.53L200.53 21.33L85.33 21.33L85.33 40.53Z" id="d8ECrTs6CN"></path><path d="M389.21 0.03L389.67 0.07L390.12 0.13L390.56 0.2L391 0.28L391.42 0.38L391.83 0.49L392.24 0.62L392.63 0.77L393.02 0.92L393.39 1.09L393.76 1.28L394.11 1.48L394.45 1.69L394.79 1.91L395.11 2.15L395.42 2.4L395.71 2.66L396 2.93L396.27 3.22L396.54 3.52L396.79 3.83L397.02 4.15L397.25 4.48L397.46 4.82L397.65 5.18L397.84 5.54L398.01 5.92L398.17 6.3L398.31 6.69L398.44 7.1L398.55 7.51L398.65 7.94L398.74 8.37L398.81 8.81L398.86 9.26L398.9 9.72L398.93 10.19L398.93 10.67L398.93 45.87L398.93 46.03L398.93 46.19L398.92 46.36L398.9 46.54L398.88 46.71L398.86 46.89L398.84 47.07L398.81 47.26L398.77 47.44L398.73 47.63L398.69 47.82L398.65 48.02L398.6 48.21L398.54 48.41L398.48 48.6L398.42 48.8L398.36 49L398.29 49.2L398.21 49.4L398.13 49.6L398.05 49.8L397.97 50L397.88 50.2L397.78 50.4L397.68 50.6L397.58 50.79L397.48 50.99L397.37 51.18L397.25 51.38L397.13 51.57L397.01 51.76L396.89 51.94L396.76 52.13L396.62 52.31L396.48 52.49L396.34 52.66L396.2 52.84L396.05 53.01L395.89 53.17L395.73 53.33L377.6 67.2L377.6 452.27L377.55 454.66L377.41 457.02L377.18 459.37L376.85 461.69L376.44 463.98L375.93 466.23L375.35 468.46L374.67 470.66L373.92 472.81L373.08 474.93L372.17 477.01L371.18 479.05L370.11 481.04L368.97 482.99L367.76 484.89L366.47 486.74L365.12 488.54L363.7 490.28L362.22 491.97L360.67 493.6L359.06 495.17L357.38 496.68L355.66 498.12L353.87 499.5L352.03 500.81L350.13 502.05L348.18 503.22L346.19 504.31L344.14 505.33L342.05 506.27L339.91 507.13L337.73 507.9L335.51 508.6L333.25 509.21L330.95 509.73L328.61 510.15L326.24 510.49L323.84 510.74L321.4 510.88L318.93 510.93L316.54 510.89L314.18 510.74L311.83 510.51L309.51 510.18L307.23 509.77L304.97 509.27L302.74 508.68L300.54 508.01L298.39 507.25L296.27 506.42L294.19 505.5L292.15 504.51L290.16 503.44L288.21 502.3L286.31 501.09L284.46 499.81L282.66 498.45L280.92 497.03L279.23 495.55L277.6 494L276.03 492.39L274.52 490.72L273.08 488.99L271.7 487.2L270.39 485.36L269.15 483.47L267.98 481.52L266.89 479.52L265.87 477.48L264.93 475.38L264.07 473.25L263.3 471.07L262.6 468.84L261.99 466.58L261.47 464.28L261.05 461.94L260.71 459.57L260.46 457.17L260.32 454.73L260.27 452.27L260.27 67.2L244.27 52.27L244.11 52.18L243.95 52.09L243.8 51.99L243.66 51.88L243.52 51.77L243.38 51.65L243.24 51.52L243.11 51.39L242.99 51.25L242.87 51.1L242.75 50.95L242.63 50.79L242.52 50.62L242.42 50.45L242.32 50.28L242.22 50.1L242.12 49.91L242.03 49.73L241.95 49.53L241.87 49.33L241.79 49.13L241.71 48.93L241.64 48.72L241.58 48.5L241.52 48.29L241.46 48.07L241.4 47.85L241.35 47.62L241.31 47.4L241.27 47.17L241.23 46.94L241.19 46.7L241.16 46.47L241.14 46.23L241.12 46L241.1 45.76L241.08 45.52L241.07 45.28L241.07 45.04L241.07 44.8L241.07 10.67L241.07 10.19L241.1 9.72L241.14 9.26L241.19 8.81L241.26 8.37L241.35 7.94L241.45 7.51L241.56 7.1L241.69 6.69L241.83 6.3L241.99 5.92L242.16 5.54L242.35 5.18L242.54 4.82L242.75 4.48L242.98 4.15L243.21 3.83L243.46 3.52L243.73 3.22L244 2.93L244.29 2.66L244.58 2.4L244.89 2.15L245.21 1.91L245.55 1.69L245.89 1.48L246.24 1.28L246.61 1.09L246.98 0.92L247.37 0.77L247.76 0.62L248.17 0.49L248.58 0.38L249 0.28L249.44 0.2L249.88 0.13L250.33 0.07L250.79 0.03L251.26 0.01L251.73 0L388.27 0L388.74 0.01L389.21 0.03ZM282.67 453.33L282.7 454.85L282.79 456.35L282.93 457.83L283.14 459.3L283.4 460.76L283.71 462.19L284.08 463.61L284.5 465L284.98 466.37L285.5 467.72L286.07 469.04L286.7 470.33L287.37 471.6L288.09 472.84L288.85 474.05L289.66 475.23L290.52 476.37L291.41 477.49L292.35 478.56L293.33 479.6L294.35 480.6L295.41 481.56L296.51 482.48L297.64 483.36L298.81 484.2L300.02 484.99L301.26 485.73L302.53 486.43L303.83 487.08L305.17 487.68L306.53 488.23L307.93 488.73L309.35 489.17L310.8 489.56L312.27 489.89L313.77 490.17L315.29 490.38L316.84 490.54L318.41 490.63L320 490.67L321.59 490.63L323.16 490.54L324.71 490.38L326.23 490.17L327.73 489.89L329.21 489.56L330.66 489.17L332.08 488.72L333.48 488.22L334.85 487.67L336.19 487.06L337.5 486.4L338.78 485.7L340.03 484.94L341.24 484.14L342.43 483.29L343.57 482.4L344.69 481.47L345.76 480.49L346.8 479.47L347.8 478.41L348.76 477.31L349.68 476.17L350.57 475L351.41 473.79L352.2 472.55L352.96 471.28L353.67 469.97L354.33 468.63L354.95 467.27L355.52 465.87L356.04 464.45L356.52 463.01L356.94 461.54L357.32 460.04L357.64 458.53L357.91 456.99L358.13 455.43L358.29 453.86L358.4 452.27L358.4 285.87L282.67 285.87L282.67 453.33ZM263.47 40.53L264.87 41.85L268.11 44.87L268.71 45.43L279.15 55.18L279.27 55.29L279.47 55.47L279.62 55.55L279.78 55.64L279.93 55.74L280.07 55.85L280.22 55.96L280.35 56.08L280.49 56.21L280.62 56.35L280.74 56.49L280.87 56.63L280.98 56.79L281.1 56.95L281.21 57.11L281.31 57.28L281.42 57.45L281.51 57.63L281.61 57.82L281.7 58.01L281.78 58.2L281.87 58.4L281.94 58.6L282.02 58.81L282.09 59.02L282.15 59.23L282.22 59.45L282.27 59.66L282.33 59.89L282.38 60.11L282.42 60.34L282.47 60.57L282.5 60.8L282.54 61.03L282.57 61.26L282.59 61.5L282.62 61.74L282.63 61.98L282.65 62.21L282.66 62.45L282.66 62.69L282.67 62.93L282.67 265.6L358.4 265.6L358.4 62.93L358.4 62.77L358.41 62.61L358.42 62.44L358.43 62.26L358.45 62.09L358.47 61.91L358.5 61.73L358.53 61.54L358.56 61.36L358.6 61.17L358.64 60.98L358.69 60.78L358.74 60.59L358.79 60.39L358.85 60.2L358.91 60L358.98 59.8L359.05 59.6L359.12 59.4L359.2 59.2L359.28 59L359.37 58.8L359.46 58.6L359.55 58.4L359.65 58.2L359.75 58.01L359.86 57.81L359.97 57.62L360.08 57.42L360.2 57.23L360.32 57.04L360.45 56.86L360.58 56.67L360.71 56.49L360.85 56.31L360.99 56.14L361.14 55.96L361.29 55.79L361.44 55.63L361.6 55.47L361.79 55.29L361.91 55.18L362.75 54.39L365.63 51.7L367.67 49.8L369.59 48.01L372.35 45.43L372.95 44.87L377.6 40.53L378.67 40.53L378.67 21.33L263.47 21.33L263.47 40.53Z" id="boQvSACZH"></path><path d="M566.28 0.03L566.74 0.07L567.19 0.13L567.63 0.2L568.06 0.28L568.49 0.38L568.9 0.49L569.31 0.62L569.7 0.77L570.08 0.92L570.46 1.09L570.82 1.28L571.18 1.48L571.52 1.69L571.85 1.91L572.17 2.15L572.48 2.4L572.78 2.66L573.07 2.93L573.34 3.22L573.6 3.52L573.85 3.83L574.09 4.15L574.31 4.48L574.52 4.82L574.72 5.18L574.91 5.54L575.08 5.92L575.23 6.3L575.38 6.69L575.51 7.1L575.62 7.51L575.72 7.94L575.8 8.37L575.87 8.81L575.93 9.26L575.97 9.72L575.99 10.19L576 10.67L576 44.8L576 45.04L575.99 45.28L575.98 45.52L575.97 45.76L575.95 46L575.93 46.24L575.9 46.47L575.87 46.71L575.84 46.95L575.8 47.18L575.76 47.42L575.71 47.65L575.66 47.88L575.61 48.11L575.55 48.34L575.49 48.57L575.42 48.8L575.35 49.02L575.28 49.25L575.2 49.47L575.12 49.69L575.03 49.9L574.94 50.12L574.85 50.33L574.75 50.54L574.65 50.75L574.54 50.95L574.43 51.15L574.32 51.35L574.2 51.55L574.08 51.74L573.95 51.93L573.82 52.12L573.69 52.3L573.55 52.49L573.41 52.66L573.26 52.84L573.11 53.01L572.96 53.17L572.8 53.33L554.67 67.2L554.67 452.27L554.62 454.66L554.48 457.02L554.24 459.37L553.92 461.69L553.5 463.98L553 466.23L552.41 468.46L551.74 470.66L550.99 472.81L550.15 474.93L549.24 477.01L548.24 479.05L547.18 481.04L546.04 482.99L544.82 484.89L543.54 486.74L542.19 488.54L540.77 490.28L539.28 491.97L537.73 493.6L536.12 495.17L534.45 496.68L532.72 498.12L530.94 499.5L529.09 500.81L527.2 502.05L525.25 503.22L523.25 504.31L521.21 505.33L519.12 506.27L516.98 507.13L514.8 507.9L512.58 508.6L510.31 509.21L508.01 509.73L505.68 510.15L503.31 510.49L500.9 510.74L498.47 510.88L496 510.93L493.61 510.89L491.24 510.74L488.9 510.51L486.58 510.18L484.29 509.77L482.03 509.27L479.8 508.68L477.61 508.01L475.45 507.25L473.33 506.42L471.25 505.5L469.22 504.51L467.22 503.44L465.27 502.3L463.38 501.09L461.53 499.81L459.73 498.45L457.98 497.03L456.3 495.55L454.67 494L453.1 492.39L451.59 490.72L450.15 488.99L448.77 487.2L447.46 485.36L446.22 483.47L445.05 481.52L443.96 479.52L442.94 477.48L442 475.38L441.14 473.25L440.36 471.07L439.67 468.84L439.06 466.58L438.54 464.28L438.11 461.94L437.77 459.57L437.53 457.17L437.38 454.73L437.33 452.27L437.33 67.2L432.69 62.86L432.09 62.3L421.93 52.83L421.33 52.27L421.18 52.18L421.02 52.09L420.87 51.99L420.73 51.88L420.58 51.77L420.45 51.65L420.31 51.52L420.18 51.39L420.06 51.25L419.93 51.1L419.82 50.95L419.7 50.79L419.59 50.62L419.49 50.45L419.38 50.28L419.29 50.1L419.19 49.91L419.1 49.73L419.02 49.53L418.93 49.33L418.86 49.13L418.78 48.93L418.71 48.72L418.65 48.5L418.58 48.29L418.53 48.07L418.47 47.85L418.42 47.62L418.38 47.4L418.33 47.17L418.3 46.94L418.26 46.7L418.23 46.47L418.21 46.23L418.18 46L418.17 45.76L418.15 45.52L418.14 45.28L418.14 45.04L418.13 44.8L418.13 10.67L418.14 10.19L418.17 9.72L418.2 9.26L418.26 8.81L418.33 8.37L418.41 7.94L418.51 7.51L418.63 7.1L418.76 6.69L418.9 6.3L419.06 5.92L419.23 5.54L419.41 5.18L419.61 4.82L419.82 4.48L420.04 4.15L420.28 3.83L420.53 3.52L420.79 3.22L421.07 2.93L421.35 2.66L421.65 2.4L421.96 2.15L422.28 1.91L422.61 1.69L422.96 1.48L423.31 1.28L423.67 1.09L424.05 0.92L424.43 0.77L424.83 0.62L425.23 0.49L425.65 0.38L426.07 0.28L426.5 0.2L426.95 0.13L427.4 0.07L427.86 0.03L428.32 0.01L428.8 0L565.33 0L565.81 0.01L566.28 0.03ZM459.73 453.33L459.76 454.85L459.85 456.35L460 457.83L460.2 459.3L460.46 460.76L460.78 462.19L461.15 463.61L461.57 465L462.04 466.37L462.57 467.72L463.14 469.04L463.77 470.33L464.44 471.6L465.16 472.84L465.92 474.05L466.73 475.23L467.58 476.37L468.48 477.49L469.42 478.56L470.4 479.6L471.42 480.6L472.48 481.56L473.58 482.48L474.71 483.36L475.88 484.2L477.08 484.99L478.32 485.73L479.59 486.43L480.9 487.08L482.23 487.68L483.6 488.23L484.99 488.73L486.41 489.17L487.86 489.56L489.34 489.89L490.84 490.17L492.36 490.38L493.91 490.54L495.48 490.63L497.07 490.67L498.58 490.63L500.08 490.54L501.57 490.38L503.04 490.17L504.49 489.89L505.93 489.56L507.34 489.17L508.74 488.72L510.11 488.22L511.47 487.67L512.79 487.06L514.1 486.4L515.37 485.7L516.62 484.94L517.84 484.14L519.03 483.29L520.19 482.4L521.32 481.47L522.41 480.49L523.47 479.47L524.49 478.41L525.47 477.31L526.42 476.17L527.33 475L528.19 473.79L529.02 472.55L529.8 471.28L530.53 469.97L531.22 468.63L531.87 467.27L532.46 465.87L533.01 464.45L533.51 463.01L533.95 461.54L534.34 460.04L534.68 458.53L534.96 456.99L535.19 455.43L535.36 453.86L535.47 452.27L535.47 179.2L459.73 179.2L459.73 453.33ZM439.47 40.53L440.87 41.85L444.11 44.87L451.43 51.7L451.79 52.04L452.47 52.67L455.47 55.47L455.62 55.55L455.78 55.64L455.93 55.74L456.07 55.85L456.22 55.96L456.35 56.08L456.49 56.21L456.62 56.35L456.74 56.49L456.87 56.63L456.98 56.79L457.1 56.95L457.21 57.11L457.31 57.28L457.42 57.45L457.51 57.63L457.61 57.82L457.7 58.01L457.78 58.2L457.87 58.4L457.94 58.6L458.02 58.81L458.09 59.02L458.15 59.23L458.22 59.45L458.27 59.66L458.33 59.89L458.38 60.11L458.42 60.34L458.47 60.57L458.5 60.8L458.54 61.03L458.57 61.26L458.59 61.5L458.62 61.74L458.63 61.98L458.65 62.21L458.66 62.45L458.66 62.69L458.67 62.93L458.67 158.93L535.47 158.93L535.47 62.93L535.47 62.77L535.47 62.61L535.48 62.44L535.5 62.26L535.52 62.09L535.54 61.91L535.56 61.73L535.59 61.54L535.63 61.36L535.67 61.17L535.71 60.98L535.75 60.78L535.8 60.59L535.86 60.39L535.92 60.2L535.98 60L536.04 59.8L536.11 59.6L536.19 59.4L536.27 59.2L536.35 59L536.43 58.8L536.52 58.6L536.62 58.4L536.72 58.2L536.82 58.01L536.92 57.81L537.03 57.62L537.15 57.42L537.27 57.23L537.39 57.04L537.51 56.86L537.64 56.67L537.78 56.49L537.92 56.31L538.06 56.14L538.2 55.96L538.35 55.79L538.51 55.63L538.67 55.47L538.86 55.29L538.98 55.18L539.82 54.39L544.74 49.8L546.66 48.01L549.42 45.43L550.02 44.87L554.67 40.53L554.67 21.33L439.47 21.33L439.47 40.53Z" id="b2YLNY1sBV"></path></defs><g><g><use xlink:href="#d8ECrTs6CN" opacity="1" fill="#000000" fill-opacity="1"></use><g><use xlink:href="#d8ECrTs6CN" opacity="1" fill-opacity="0" stroke="#000000" stroke-width="1" stroke-opacity="0"></use></g></g><g><use xlink:href="#boQvSACZH" opacity="1" fill="#000000" fill-opacity="1"></use><g><use xlink:href="#boQvSACZH" opacity="1" fill-opacity="0" stroke="#000000" stroke-width="1" stroke-opacity="0"></use></g></g><g><use xlink:href="#b2YLNY1sBV" opacity="1" fill="#000000" fill-opacity="1"></use><g><use xlink:href="#b2YLNY1sBV" opacity="1" fill-opacity="0" stroke="#000000" stroke-width="1" stroke-opacity="0"></use></g></g></g></svg>