<?xml version="1.0" encoding="UTF-8" standalone="no"?>
<!DOCTYPE svg PUBLIC "-//W3C//DTD SVG 1.1//EN" "http://www.w3.org/Graphics/SVG/1.1/DTD/svg11.dtd">
<svg version="1.1" xmlns="http://www.w3.org/2000/svg" xmlns:xlink="http://www.w3.org/1999/xlink" preserveAspectRatio="xMidYMid meet" viewBox="138.73333333333335 -1 364.5333333333333 516" width="70.42" height="100"><defs><path d="M330.63 0.45L335.88 1.01L341.08 1.78L346.22 2.77L351.3 3.96L356.32 5.36L361.28 6.95L366.16 8.75L370.97 10.73L375.7 12.91L380.35 15.26L384.91 17.8L389.38 20.51L393.76 23.4L398.05 26.45L402.23 29.67L406.31 33.05L410.28 36.58L414.13 40.27L417.87 44.1L421.5 48.08L424.99 52.19L428.36 56.45L431.6 60.83L434.71 65.35L437.67 69.98L440.5 74.74L443.17 79.61L445.7 84.6L448.07 89.69L450.29 94.89L452.34 100.19L454.23 105.58L455.95 111.07L457.49 116.64L458.86 122.3L460.05 128.03L461.05 133.85L461.87 139.73L461.87 139.9L461.87 140.06L461.87 140.23L461.86 140.4L461.86 140.58L461.86 140.76L461.86 140.94L461.85 141.12L461.84 141.31L461.83 141.5L461.82 141.69L461.81 141.88L461.79 142.08L461.78 142.27L461.75 142.47L461.73 142.67L461.7 142.87L461.67 143.07L461.64 143.27L461.6 143.47L461.56 143.67L461.51 143.87L461.46 144.07L461.41 144.26L461.35 144.46L461.28 144.66L461.21 144.86L461.13 145.05L461.05 145.24L460.97 145.43L460.87 145.62L460.77 145.81L460.67 145.99L460.56 146.18L460.44 146.35L460.31 146.53L460.18 146.7L460.04 146.87L459.89 147.04L459.73 147.2L459.57 147.36L459.41 147.52L459.25 147.68L459.09 147.84L458.93 148L458.77 148.15L458.61 148.31L458.44 148.46L458.28 148.62L458.12 148.77L457.95 148.92L457.78 149.06L457.62 149.21L457.45 149.35L457.28 149.49L457.11 149.62L456.93 149.76L456.76 149.89L456.58 150.01L456.4 150.13L456.22 150.25L456.04 150.37L455.85 150.47L455.66 150.58L455.47 150.68L455.28 150.77L455.09 150.86L454.89 150.95L454.69 151.03L454.48 151.1L454.28 151.17L454.07 151.23L453.85 151.28L453.64 151.33L453.42 151.37L453.2 151.4L452.97 151.43L452.74 151.45L452.5 151.46L452.27 151.47L442.67 151.47L442.67 153.6L442.57 158.02L442.26 162.48L441.77 166.96L441.08 171.47L440.2 175.99L439.13 180.51L437.89 185.04L436.46 189.55L434.87 194.05L433.1 198.52L431.17 202.95L429.07 207.35L426.82 211.7L424.41 215.99L421.85 220.22L419.15 224.38L416.3 228.45L413.31 232.44L410.19 236.34L406.93 240.13L403.55 243.82L400.04 247.38L396.41 250.82L392.67 254.13L388.81 257.3L384.85 260.32L380.77 263.18L376.6 265.88L372.33 268.4L367.97 270.75L363.51 272.91L358.97 274.88L354.35 276.64L349.65 278.19L344.87 279.53L340.02 280.64L335.11 281.51L330.13 282.15L325.09 282.54L320 282.67L314.91 282.54L309.87 282.15L304.89 281.51L299.98 280.64L295.13 279.53L290.35 278.19L285.65 276.64L281.03 274.88L276.49 272.91L272.03 270.75L267.67 268.4L263.4 265.88L259.23 263.18L255.15 260.32L251.19 257.3L247.33 254.13L243.59 250.82L239.96 247.38L236.45 243.82L233.07 240.13L229.81 236.34L226.69 232.44L223.7 228.45L220.85 224.38L218.15 220.22L215.59 215.99L213.18 211.7L210.93 207.35L208.83 202.95L206.9 198.52L205.13 194.05L203.54 189.55L202.11 185.04L200.87 180.51L199.8 175.99L198.92 171.47L198.23 166.96L197.74 162.48L197.43 158.02L197.33 153.6L197.33 151.47L187.73 151.47L187.57 151.46L187.41 151.46L187.24 151.45L187.06 151.43L186.89 151.41L186.71 151.39L186.53 151.36L186.35 151.33L186.17 151.29L185.98 151.25L185.8 151.2L185.61 151.15L185.43 151.09L185.24 151.03L185.05 150.96L184.87 150.89L184.68 150.81L184.5 150.72L184.31 150.63L184.13 150.53L183.95 150.43L183.78 150.32L183.6 150.21L183.43 150.08L183.26 149.96L183.1 149.82L182.94 149.68L182.78 149.53L182.63 149.38L182.48 149.22L182.34 149.05L182.2 148.87L182.07 148.69L181.95 148.5L181.83 148.3L181.71 148.1L181.61 147.88L181.51 147.66L181.42 147.44L181.33 147.2L181.18 147.04L181.03 146.88L180.89 146.72L180.76 146.56L180.63 146.4L180.51 146.24L180.4 146.07L180.29 145.91L180.19 145.75L180.1 145.58L180.01 145.42L179.93 145.25L179.86 145.08L179.79 144.91L179.72 144.74L179.66 144.57L179.61 144.4L179.55 144.22L179.51 144.05L179.47 143.87L179.43 143.69L179.39 143.5L179.36 143.32L179.34 143.13L179.31 142.94L179.29 142.75L179.27 142.55L179.26 142.35L179.24 142.15L179.23 141.95L179.22 141.74L179.22 141.53L179.21 141.32L179.21 141.1L179.2 140.89L179.2 140.66L179.2 140.44L179.2 140.21L179.2 139.97L179.2 139.73L179.94 133.85L180.87 128.03L181.98 122.3L183.29 116.64L184.77 111.07L186.43 105.58L188.26 100.19L190.26 94.89L192.42 89.69L194.75 84.6L197.23 79.61L199.87 74.74L202.65 69.98L205.58 65.35L208.66 60.83L211.87 56.45L215.21 52.19L218.68 48.08L222.28 44.1L226 40.27L229.84 36.58L233.79 33.05L237.85 29.67L242.02 26.45L246.29 23.4L250.66 20.51L255.13 17.8L259.68 15.26L264.33 12.91L269.05 10.73L273.85 8.75L278.73 6.95L283.68 5.36L288.7 3.96L293.78 2.77L298.92 1.78L304.12 1.01L309.37 0.45L314.66 0.11L320 0L325.34 0.11L330.63 0.45ZM317.54 97.03L316.28 98.59L314.98 100.14L313.66 101.66L312.31 103.17L310.93 104.66L309.53 106.14L308.1 107.59L306.65 109.03L305.17 110.45L303.67 111.86L302.14 113.24L300.59 114.61L299.02 115.95L297.42 117.28L295.8 118.59L294.16 119.88L292.49 121.15L290.8 122.4L289.09 123.63L287.36 124.84L285.6 126.03L283.83 127.2L282.03 128.35L280.21 129.47L278.38 130.58L276.52 131.66L274.65 132.73L272.75 133.77L270.84 134.79L268.9 135.78L266.95 136.76L264.98 137.71L262.99 138.64L260.99 139.54L258.97 140.43L256.93 141.29L254.87 142.12L252.8 142.93L251.92 143.25L251.05 143.56L250.18 143.86L249.31 144.15L248.45 144.44L247.58 144.72L246.73 144.99L245.87 145.25L245.02 145.51L244.17 145.77L243.32 146.01L242.47 146.25L241.62 146.49L240.78 146.72L239.94 146.95L239.1 147.17L238.25 147.38L237.41 147.59L236.57 147.8L235.73 148L234.89 148.2L234.05 148.39L233.21 148.58L232.37 148.77L231.53 148.95L230.69 149.14L229.84 149.31L229 149.49L228.15 149.66L227.3 149.83L226.45 150L225.6 150.17L224.74 150.34L223.88 150.5L223.02 150.66L222.16 150.82L221.29 150.99L220.42 151.15L219.54 151.31L218.67 151.47L218.67 154.67L218.75 158.29L219.01 161.95L219.44 165.63L220.04 169.35L220.79 173.08L221.7 176.82L222.77 180.56L223.98 184.3L225.35 188.03L226.85 191.75L228.49 195.44L230.27 199.11L232.18 202.73L234.22 206.31L236.39 209.85L238.67 213.32L241.07 216.74L243.58 220.08L246.2 223.35L248.93 226.53L251.76 229.63L254.69 232.62L257.72 235.52L260.83 238.3L264.03 240.97L267.32 243.51L270.68 245.93L274.12 248.2L277.63 250.33L281.22 252.32L284.86 254.14L288.57 255.8L292.34 257.3L296.16 258.61L300.03 259.74L303.94 260.68L307.9 261.42L311.9 261.96L315.93 262.29L320 262.4L324.07 262.29L328.1 261.96L332.1 261.42L336.06 260.68L339.97 259.74L343.84 258.61L347.66 257.3L351.43 255.8L355.14 254.14L358.78 252.32L362.37 250.33L365.88 248.2L369.32 245.93L372.68 243.51L375.97 240.97L379.17 238.3L382.28 235.52L385.31 232.62L388.24 229.63L391.07 226.53L393.8 223.35L396.42 220.08L398.93 216.74L401.33 213.32L403.61 209.85L405.78 206.31L407.82 202.73L409.73 199.11L411.51 195.44L413.15 191.75L414.65 188.03L416.02 184.3L417.23 180.56L418.3 176.82L419.21 173.08L419.96 169.35L420.56 165.63L420.99 161.95L421.25 158.29L421.33 154.67L421.33 151.47L420.46 151.38L419.58 151.29L418.71 151.19L417.84 151.08L416.98 150.97L416.12 150.85L415.26 150.72L414.4 150.58L413.55 150.43L412.7 150.28L411.85 150.12L411 149.96L410.16 149.79L409.31 149.61L408.47 149.42L407.63 149.23L406.79 149.03L405.95 148.83L405.11 148.62L404.27 148.4L403.43 148.18L402.59 147.95L401.75 147.71L400.9 147.47L400.06 147.23L399.22 146.98L398.38 146.72L397.53 146.46L396.68 146.19L395.83 145.92L394.98 145.64L394.13 145.36L393.27 145.07L392.42 144.78L391.55 144.48L390.69 144.18L389.82 143.87L388.95 143.57L388.08 143.25L387.2 142.93L385.13 142.12L383.07 141.28L381.03 140.41L379.01 139.51L377.01 138.59L375.02 137.65L373.05 136.68L371.1 135.68L369.16 134.66L367.25 133.62L365.35 132.55L363.48 131.46L361.62 130.35L359.79 129.22L357.97 128.06L356.17 126.89L354.4 125.7L352.64 124.48L350.91 123.25L349.2 122L347.51 120.73L345.84 119.44L344.2 118.14L342.58 116.82L340.98 115.49L339.41 114.13L337.86 112.77L336.33 111.39L334.83 109.99L333.35 108.58L331.9 107.16L330.47 105.73L329.07 104.28L327.69 102.82L326.34 101.36L325.02 99.88L323.72 98.39L322.46 96.89L321.21 95.38L320 93.87L318.79 95.46L317.54 97.03ZM312.65 21.57L308.54 21.98L304.46 22.54L300.41 23.26L296.4 24.13L292.44 25.15L288.51 26.32L284.64 27.64L280.81 29.1L277.03 30.7L273.31 32.44L269.64 34.31L266.04 36.32L262.49 38.46L259.01 40.72L255.6 43.11L252.25 45.62L248.98 48.25L245.79 51L242.67 53.87L239.63 56.84L236.67 59.93L233.8 63.12L231.01 66.41L228.32 69.81L225.72 73.31L223.22 76.9L220.81 80.59L218.5 84.37L216.3 88.23L214.2 92.19L212.22 96.22L210.34 100.34L208.58 104.53L206.93 108.8L205.4 113.15L204 117.56L202.71 122.04L201.56 126.59L200.53 131.2L201.58 131.19L202.62 131.18L203.67 131.15L204.72 131.11L205.78 131.05L206.84 130.99L207.91 130.91L208.97 130.82L210.04 130.73L211.12 130.62L212.19 130.5L213.27 130.36L214.35 130.22L215.44 130.07L216.53 129.91L217.62 129.73L218.71 129.55L219.8 129.35L220.9 129.15L222 128.93L223.1 128.71L224.2 128.47L225.31 128.23L226.41 127.97L227.52 127.71L228.63 127.44L229.74 127.15L230.86 126.86L231.97 126.56L233.08 126.25L234.2 125.93L235.32 125.6L236.43 125.26L237.55 124.92L238.67 124.56L239.79 124.2L240.91 123.83L242.03 123.45L243.15 123.06L244.27 122.67L246.42 121.85L248.55 121L250.67 120.11L252.77 119.19L254.85 118.23L256.91 117.24L258.95 116.22L260.97 115.17L262.97 114.09L264.95 112.98L266.9 111.84L268.83 110.68L270.74 109.48L272.62 108.26L274.47 107.01L276.3 105.74L278.1 104.44L279.87 103.12L281.62 101.77L283.33 100.4L285.02 99.01L286.67 97.6L288.3 96.16L289.89 94.71L291.44 93.24L292.97 91.75L294.46 90.24L295.91 88.72L297.33 87.17L298.72 85.62L300.06 84.04L301.37 82.46L302.64 80.86L303.87 79.24L305.06 77.62L306.22 75.98L307.33 74.33L308.39 72.68L309.42 71.01L310.4 69.33L310.65 68.87L310.93 68.42L311.24 68L311.57 67.61L311.92 67.23L312.3 66.89L312.69 66.56L313.11 66.26L313.54 65.99L313.98 65.73L314.45 65.51L314.92 65.3L315.41 65.12L315.91 64.97L316.42 64.83L316.94 64.73L317.46 64.64L317.99 64.58L318.53 64.55L319.07 64.53L319.61 64.55L320.15 64.58L320.69 64.64L321.23 64.73L321.76 64.83L322.3 64.97L322.82 65.12L323.34 65.3L323.85 65.51L324.35 65.73L324.84 65.99L325.32 66.26L325.78 66.56L326.23 66.89L326.66 67.23L327.08 67.61L327.47 68L327.85 68.42L328.2 68.87L328.53 69.33L329.52 71.01L330.54 72.68L331.61 74.33L332.72 75.98L333.87 77.62L335.06 79.24L336.29 80.86L337.56 82.46L338.87 84.04L340.22 85.62L341.6 87.17L343.02 88.72L344.48 90.24L345.97 91.75L347.49 93.24L349.05 94.71L350.64 96.16L352.26 97.6L353.92 99.01L355.6 100.4L357.31 101.77L359.06 103.12L360.83 104.44L362.63 105.74L364.46 107.01L366.31 108.26L368.19 109.48L370.1 110.68L372.03 111.84L373.98 112.98L375.96 114.09L377.96 115.17L379.98 116.22L382.02 117.24L384.08 118.23L386.16 119.19L388.26 120.11L390.38 121L392.51 121.85L394.67 122.67L395.79 123.06L396.91 123.45L398.03 123.83L399.15 124.2L400.26 124.56L401.38 124.92L402.5 125.26L403.62 125.6L404.73 125.93L405.85 126.25L406.96 126.56L408.08 126.86L409.19 127.15L410.3 127.44L411.41 127.71L412.52 127.97L413.62 128.23L414.73 128.47L415.83 128.71L416.93 128.93L418.03 129.15L419.13 129.35L420.22 129.55L421.32 129.73L422.41 129.91L423.49 130.07L424.58 130.22L425.66 130.36L426.74 130.5L427.82 130.62L428.89 130.73L429.96 130.82L431.03 130.91L432.09 130.99L433.15 131.05L434.21 131.11L435.26 131.15L436.31 131.18L437.36 131.19L438.4 131.2L437.45 126.59L436.37 122.04L435.16 117.55L433.82 113.12L432.36 108.76L430.77 104.47L429.06 100.26L427.24 96.12L425.3 92.06L423.25 88.08L421.09 84.19L418.83 80.39L416.46 76.67L413.99 73.05L411.42 69.53L408.76 66.11L406 62.79L403.15 59.57L400.22 56.46L397.2 53.47L394.1 50.58L390.92 47.82L387.66 45.17L384.33 42.65L380.93 40.25L377.46 37.98L373.93 35.85L370.33 33.84L366.67 31.98L362.95 30.25L359.18 28.67L355.35 27.23L351.48 25.94L347.56 24.8L343.59 23.82L339.59 23L335.54 22.33L331.46 21.83L327.35 21.5L323.2 21.33L316.8 21.33L312.65 21.57Z" id="a13e7StsU0"></path><path d="M412.18 327.78L416.07 328.17L419.91 328.71L423.7 329.4L427.44 330.24L431.12 331.22L434.73 332.33L438.28 333.58L441.77 334.97L445.18 336.48L448.52 338.12L451.79 339.89L454.97 341.77L458.08 343.78L461.1 345.9L464.03 348.13L466.87 350.47L469.62 352.92L472.27 355.47L474.82 358.12L477.26 360.86L479.6 363.7L481.83 366.63L483.95 369.65L485.96 372.76L487.85 375.95L489.61 379.21L491.25 382.55L492.77 385.97L494.15 389.45L495.4 393L496.52 396.62L497.49 400.29L498.33 404.03L499.02 407.82L499.56 411.66L499.95 415.55L500.19 419.49L500.27 423.47L500.27 501.33L500.26 501.81L500.23 502.28L500.2 502.74L500.14 503.19L500.07 503.63L499.99 504.06L499.89 504.49L499.77 504.9L499.64 505.31L499.5 505.7L499.34 506.08L499.17 506.46L498.99 506.82L498.79 507.18L498.58 507.52L498.36 507.85L498.12 508.17L497.87 508.48L497.61 508.78L497.33 509.07L497.05 509.34L496.75 509.6L496.44 509.85L496.12 510.09L495.79 510.31L495.44 510.52L495.09 510.72L494.73 510.91L494.35 511.08L493.97 511.23L493.57 511.38L493.17 511.51L492.75 511.62L492.33 511.72L491.9 511.8L491.45 511.87L491 511.93L490.54 511.97L490.08 511.99L489.6 512L489.12 511.99L488.66 511.97L488.2 511.93L487.75 511.87L487.3 511.8L486.87 511.72L486.45 511.62L486.03 511.51L485.63 511.38L485.23 511.23L484.85 511.08L484.47 510.91L484.11 510.72L483.76 510.52L483.41 510.31L483.08 510.09L482.76 509.85L482.45 509.6L482.15 509.34L481.87 509.07L481.59 508.78L481.33 508.48L481.08 508.17L480.84 507.85L480.62 507.52L480.41 507.18L480.21 506.82L480.03 506.46L479.86 506.08L479.7 505.7L479.56 505.31L479.43 504.9L479.31 504.49L479.21 504.06L479.13 503.63L479.06 503.19L479 502.74L478.97 502.28L478.94 501.81L478.93 501.33L478.93 424.53L478.88 421.51L478.7 418.52L478.42 415.57L478.03 412.65L477.53 409.78L476.92 406.94L476.21 404.15L475.4 401.41L474.49 398.71L473.48 396.07L472.38 393.47L471.19 390.93L469.9 388.45L468.53 386.02L467.06 383.66L465.52 381.35L463.89 379.12L462.18 376.94L460.4 374.84L458.53 372.8L456.6 370.84L454.59 368.95L452.51 367.13L450.36 365.4L448.15 363.74L445.88 362.17L443.54 360.68L441.14 359.27L438.69 357.96L436.18 356.73L433.62 355.6L431.01 354.56L428.35 353.62L425.64 352.77L422.89 352.03L420.09 351.38L417.26 350.84L414.39 350.41L411.48 350.08L408.53 349.87L408.53 387.2L426.67 387.2L427.14 387.21L427.61 387.23L428.07 387.27L428.52 387.33L428.96 387.4L429.4 387.48L429.82 387.58L430.23 387.69L430.64 387.82L431.03 387.97L431.42 388.12L431.79 388.29L432.16 388.48L432.51 388.68L432.85 388.89L433.19 389.11L433.51 389.35L433.82 389.6L434.11 389.86L434.4 390.13L434.67 390.42L434.94 390.72L435.19 391.03L435.42 391.35L435.65 391.68L435.86 392.02L436.05 392.38L436.24 392.74L436.41 393.12L436.57 393.5L436.71 393.89L436.84 394.3L436.95 394.71L437.05 395.14L437.14 395.57L437.21 396.01L437.26 396.46L437.3 396.92L437.33 397.39L437.33 397.87L437.33 454.4L437.33 454.88L437.3 455.34L437.26 455.8L437.21 456.25L437.14 456.7L437.05 457.13L436.95 457.55L436.84 457.97L436.71 458.37L436.57 458.77L436.41 459.15L436.24 459.53L436.05 459.89L435.86 460.24L435.65 460.59L435.42 460.92L435.19 461.24L434.94 461.55L434.67 461.85L434.4 462.13L434.11 462.41L433.82 462.67L433.51 462.92L433.19 463.16L432.85 463.38L432.51 463.59L432.16 463.79L431.79 463.97L431.42 464.14L431.03 464.3L430.64 464.44L430.23 464.57L429.82 464.69L429.4 464.79L428.96 464.87L428.52 464.94L428.07 465L427.61 465.03L427.14 465.06L426.67 465.07L426.19 465.06L425.72 465.03L425.26 465L424.81 464.94L424.37 464.87L423.94 464.79L423.51 464.69L423.1 464.57L422.69 464.44L422.3 464.3L421.92 464.14L421.54 463.97L421.18 463.79L420.82 463.59L420.48 463.38L420.15 463.16L419.83 462.92L419.52 462.67L419.22 462.41L418.93 462.13L418.66 461.85L418.4 461.55L418.15 461.24L417.91 460.92L417.69 460.59L417.48 460.24L417.28 459.89L417.09 459.53L416.92 459.15L416.77 458.77L416.62 458.37L416.49 457.97L416.38 457.55L416.28 457.13L416.2 456.7L416.13 456.25L416.07 455.8L416.03 455.34L416.01 454.88L416 454.4L416 408.53L379.73 408.53L379.73 454.4L379.73 454.88L379.7 455.34L379.66 455.8L379.61 456.25L379.54 456.7L379.45 457.13L379.35 457.55L379.24 457.97L379.11 458.37L378.97 458.77L378.81 459.15L378.64 459.53L378.45 459.89L378.26 460.24L378.05 460.59L377.82 460.92L377.59 461.24L377.34 461.55L377.07 461.85L376.8 462.13L376.51 462.41L376.22 462.67L375.91 462.92L375.59 463.16L375.25 463.38L374.91 463.59L374.56 463.79L374.19 463.97L373.82 464.14L373.43 464.3L373.04 464.44L372.63 464.57L372.22 464.69L371.8 464.79L371.36 464.87L370.92 464.94L370.47 465L370.01 465.03L369.54 465.06L369.07 465.07L368.59 465.06L368.12 465.03L367.66 465L367.21 464.94L366.77 464.87L366.34 464.79L365.91 464.69L365.5 464.57L365.09 464.44L364.7 464.3L364.32 464.14L363.94 463.97L363.58 463.79L363.22 463.59L362.88 463.38L362.55 463.16L362.23 462.92L361.92 462.67L361.62 462.41L361.33 462.13L361.06 461.85L360.8 461.55L360.55 461.24L360.31 460.92L360.09 460.59L359.88 460.24L359.68 459.89L359.49 459.53L359.32 459.15L359.17 458.77L359.02 458.37L358.89 457.97L358.78 457.55L358.68 457.13L358.6 456.7L358.53 456.25L358.47 455.8L358.43 455.34L358.41 454.88L358.4 454.4L358.4 397.87L358.41 397.39L358.43 396.92L358.47 396.46L358.53 396.01L358.6 395.57L358.68 395.14L358.78 394.71L358.89 394.3L359.02 393.89L359.17 393.5L359.32 393.12L359.49 392.74L359.68 392.38L359.88 392.02L360.09 391.68L360.31 391.35L360.55 391.03L360.8 390.72L361.06 390.42L361.33 390.13L361.62 389.86L361.92 389.6L362.23 389.35L362.55 389.11L362.88 388.89L363.22 388.68L363.58 388.48L363.94 388.29L364.32 388.12L364.7 387.97L365.09 387.82L365.5 387.69L365.91 387.58L366.34 387.48L366.77 387.4L367.21 387.33L367.66 387.27L368.12 387.23L368.59 387.21L369.07 387.2L387.2 387.2L387.2 348.8L330.67 348.8L330.67 402.13L330.66 402.61L330.63 403.08L330.6 403.54L330.54 403.99L330.47 404.43L330.39 404.86L330.29 405.29L330.17 405.7L330.04 406.11L329.9 406.5L329.74 406.88L329.57 407.26L329.39 407.62L329.19 407.98L328.98 408.32L328.76 408.65L328.52 408.97L328.27 409.28L328.01 409.58L327.73 409.87L327.45 410.14L327.15 410.4L326.84 410.65L326.52 410.89L326.19 411.11L325.84 411.32L325.49 411.52L325.13 411.71L324.75 411.88L324.37 412.03L323.97 412.18L323.57 412.31L323.15 412.42L322.73 412.52L322.3 412.6L321.85 412.67L321.4 412.73L320.94 412.77L320.48 412.79L320 412.8L319.52 412.79L319.06 412.77L318.6 412.73L318.15 412.67L317.7 412.6L317.27 412.52L316.85 412.42L316.43 412.31L316.03 412.18L315.63 412.03L315.25 411.88L314.87 411.71L314.51 411.52L314.16 411.32L313.81 411.11L313.48 410.89L313.16 410.65L312.85 410.4L312.55 410.14L312.27 409.87L311.99 409.58L311.73 409.28L311.48 408.97L311.24 408.65L311.02 408.32L310.81 407.98L310.61 407.62L310.43 407.26L310.26 406.88L310.1 406.5L309.96 406.11L309.83 405.7L309.71 405.29L309.61 404.86L309.53 404.43L309.46 403.99L309.4 403.54L309.37 403.08L309.34 402.61L309.33 402.13L309.33 348.8L259.2 348.8L259.2 388.27L260.63 388.61L262.05 389.01L263.44 389.46L264.82 389.95L266.18 390.5L267.52 391.09L268.83 391.72L270.12 392.41L271.39 393.13L272.63 393.9L273.85 394.71L275.04 395.56L276.2 396.45L277.33 397.39L278.44 398.35L279.51 399.36L280.55 400.4L281.56 401.48L282.53 402.59L283.47 403.73L284.37 404.91L285.23 406.12L286.06 407.35L286.85 408.62L287.6 409.91L288.3 411.23L288.97 412.58L289.59 413.95L290.17 415.35L290.7 416.77L291.19 418.21L291.63 419.67L292.02 421.15L292.36 422.65L292.65 424.17L292.9 425.71L293.09 427.26L293.22 428.83L293.31 430.41L293.33 432L293.3 433.83L293.18 435.65L293 437.44L292.74 439.22L292.41 440.97L292.02 442.7L291.56 444.4L291.03 446.08L290.44 447.73L289.78 449.35L289.07 450.94L288.29 452.5L287.46 454.02L286.57 455.51L285.63 456.96L284.63 458.37L283.58 459.74L282.48 461.07L281.33 462.36L280.13 463.6L278.89 464.8L277.6 465.95L276.27 467.05L274.9 468.1L273.49 469.09L272.04 470.04L270.55 470.93L269.03 471.76L267.47 472.53L265.88 473.25L264.26 473.9L262.61 474.5L260.94 475.02L259.23 475.49L257.5 475.88L255.75 476.21L253.97 476.46L252.18 476.65L250.37 476.76L248.53 476.8L246.7 476.76L244.89 476.65L243.09 476.46L241.32 476.21L239.56 475.88L237.84 475.49L236.13 475.02L234.45 474.5L232.8 473.9L231.18 473.25L229.59 472.53L228.04 471.76L226.51 470.93L225.03 470.04L223.58 469.09L222.17 468.1L220.79 467.05L219.46 465.95L218.18 464.8L216.93 463.6L215.74 462.36L214.59 461.07L213.49 459.74L212.44 458.37L211.44 456.96L210.5 455.51L209.61 454.02L208.77 452.5L208 450.94L207.28 449.35L206.63 447.73L206.04 446.08L205.51 444.4L205.05 442.7L204.65 440.97L204.33 439.22L204.07 437.44L203.88 435.65L203.77 433.83L203.73 432L203.76 430.41L203.84 428.83L203.96 427.28L204.14 425.74L204.37 424.21L204.64 422.71L204.97 421.23L205.34 419.77L205.75 418.33L206.22 416.92L206.72 415.52L207.28 414.15L207.87 412.81L208.51 411.49L209.19 410.19L209.91 408.93L210.67 407.69L211.48 406.47L212.32 405.29L213.2 404.13L214.12 403.01L215.08 401.91L216.07 400.85L217.1 399.82L218.16 398.82L219.26 397.86L220.39 396.93L221.56 396.03L222.75 395.17L223.98 394.35L225.24 393.56L226.53 392.81L227.85 392.1L229.2 391.43L230.58 390.8L231.99 390.21L233.42 389.66L234.88 389.15L236.36 388.69L237.87 388.27L237.87 348.8L235.73 348.8L232.63 348.86L229.56 349.05L226.53 349.36L223.53 349.8L220.58 350.35L217.67 351.01L214.81 351.79L211.99 352.67L209.23 353.67L206.52 354.77L203.86 355.97L201.26 357.27L198.72 358.66L196.24 360.15L193.83 361.74L191.48 363.41L189.2 365.17L186.99 367.01L184.86 368.93L182.8 370.93L180.82 373.01L178.92 375.16L177.1 377.38L175.37 379.67L173.72 382.03L172.17 384.45L170.7 386.93L169.33 389.46L168.06 392.06L166.88 394.7L165.81 397.39L164.84 400.14L163.97 402.92L163.22 405.75L162.57 408.62L162.03 411.53L161.61 414.47L161.31 417.44L161.13 420.44L161.07 423.47L161.07 501.33L161.06 501.81L161.03 502.28L161 502.74L160.94 503.19L160.87 503.63L160.79 504.06L160.69 504.49L160.57 504.9L160.44 505.31L160.3 505.7L160.14 506.08L159.97 506.46L159.79 506.82L159.59 507.18L159.38 507.52L159.16 507.85L158.92 508.17L158.67 508.48L158.41 508.78L158.13 509.07L157.85 509.34L157.55 509.6L157.24 509.85L156.92 510.09L156.59 510.31L156.24 510.52L155.89 510.72L155.53 510.91L155.15 511.08L154.77 511.23L154.37 511.38L153.97 511.51L153.55 511.62L153.13 511.72L152.7 511.8L152.25 511.87L151.8 511.93L151.34 511.97L150.88 511.99L150.4 512L149.92 511.99L149.46 511.97L149 511.93L148.55 511.87L148.1 511.8L147.67 511.72L147.25 511.62L146.83 511.51L146.43 511.38L146.03 511.23L145.65 511.08L145.27 510.91L144.91 510.72L144.56 510.52L144.21 510.31L143.88 510.09L143.56 509.85L143.25 509.6L142.95 509.34L142.67 509.07L142.39 508.78L142.13 508.48L141.88 508.17L141.64 507.85L141.42 507.52L141.21 507.18L141.01 506.82L140.83 506.46L140.66 506.08L140.5 505.7L140.36 505.31L140.23 504.9L140.11 504.49L140.01 504.06L139.93 503.63L139.86 503.19L139.8 502.74L139.77 502.28L139.74 501.81L139.73 501.33L139.73 423.47L139.81 419.49L140.06 415.55L140.46 411.66L141.01 407.82L141.71 404.03L142.57 400.29L143.56 396.62L144.7 393L145.97 389.45L147.38 385.97L148.92 382.55L150.59 379.21L152.38 375.95L154.3 372.76L156.33 369.65L158.47 366.63L160.73 363.7L163.09 360.86L165.56 358.12L168.13 355.47L170.8 352.92L173.56 350.47L176.42 348.13L179.36 345.9L182.39 343.78L185.5 341.77L188.69 339.89L191.95 338.12L195.28 336.48L198.68 334.97L202.15 333.58L205.68 332.33L209.27 331.22L212.91 330.24L216.6 329.4L220.34 328.71L224.13 328.17L227.96 327.78L231.83 327.55L235.73 327.47L404.27 327.47L408.25 327.55L412.18 327.78ZM245.92 408.68L244.64 408.87L243.38 409.12L242.15 409.44L240.94 409.83L239.76 410.28L238.61 410.79L237.49 411.36L236.4 411.99L235.35 412.67L234.34 413.41L233.37 414.2L232.45 415.03L231.56 415.91L230.73 416.84L229.94 417.81L229.21 418.82L228.52 419.87L227.89 420.95L227.32 422.07L226.81 423.22L226.36 424.4L225.97 425.61L225.65 426.85L225.4 428.11L225.22 429.38L225.1 430.68L225.07 432L225.1 433.32L225.22 434.62L225.4 435.89L225.65 437.15L225.97 438.39L226.36 439.6L226.81 440.78L227.32 441.93L227.89 443.05L228.52 444.13L229.21 445.18L229.94 446.19L230.73 447.16L231.56 448.09L232.45 448.97L233.37 449.8L234.34 450.59L235.35 451.33L236.4 452.01L237.49 452.64L238.61 453.21L239.76 453.72L240.94 454.17L242.15 454.56L243.38 454.88L244.64 455.13L245.92 455.32L247.22 455.43L248.53 455.47L249.85 455.43L251.15 455.32L252.43 455.13L253.69 454.88L254.92 454.56L256.13 454.17L257.31 453.72L258.46 453.21L259.58 452.64L260.66 452.01L261.71 451.33L262.72 450.59L263.69 449.8L264.62 448.97L265.5 448.09L266.34 447.16L267.13 446.19L267.86 445.18L268.54 444.13L269.17 443.05L269.74 441.93L270.26 440.78L270.71 439.6L271.09 438.39L271.41 437.15L271.67 435.89L271.85 434.62L271.96 433.32L272 432L271.96 430.68L271.85 429.38L271.67 428.11L271.41 426.85L271.09 425.61L270.71 424.4L270.26 423.22L269.74 422.07L269.17 420.95L268.54 419.87L267.86 418.82L267.13 417.81L266.34 416.84L265.5 415.91L264.62 415.03L263.69 414.2L262.72 413.41L261.71 412.67L260.66 411.99L259.58 411.36L258.46 410.79L257.31 410.28L256.13 409.83L254.92 409.44L253.69 409.12L252.43 408.87L251.15 408.68L249.85 408.57L248.53 408.53L247.22 408.57L245.92 408.68Z" id="b2vTO3cjz8"></path></defs><g><g><use xlink:href="#a13e7StsU0" opacity="1" fill="#000000" fill-opacity="1"></use><g><use xlink:href="#a13e7StsU0" opacity="1" fill-opacity="0" stroke="#000000" stroke-width="1" stroke-opacity="0"></use></g></g><g><use xlink:href="#b2vTO3cjz8" opacity="1" fill="#000000" fill-opacity="1"></use><g><use xlink:href="#b2vTO3cjz8" opacity="1" fill-opacity="0" stroke="#000000" stroke-width="1" stroke-opacity="0"></use></g></g></g></svg>