<?xml version="1.0" encoding="UTF-8" standalone="no"?>
<!DOCTYPE svg PUBLIC "-//W3C//DTD SVG 1.1//EN" "http://www.w3.org/Graphics/SVG/1.1/DTD/svg11.dtd">
<svg version="1.1" xmlns="http://www.w3.org/2000/svg" xmlns:xlink="http://www.w3.org/1999/xlink" preserveAspectRatio="xMidYMid meet" viewBox="99.85093888 29.577459519999987 442.65370112 452.76718048000004" width="438.65" height="448.77"><defs><path d="M330.05 30.71L332 30.86L334 31.06L336.04 31.31L338.11 31.62L340.22 31.99L342.36 32.41L344.53 32.89L346.72 33.43L348.93 34.03L351.15 34.69L353.39 35.4L355.63 36.18L357.88 37.02L360.14 37.92L362.39 38.88L364.64 39.9L366.87 40.99L369.1 42.14L371.31 43.36L373.49 44.65L375.66 45.99L377.8 47.41L379.91 48.89L381.98 50.44L384.02 52.06L386.02 53.75L387.97 55.51L389.88 57.34L391.73 59.24L393.53 61.21L395.27 63.25L396.94 65.37L398.56 67.56L400.1 69.82L401.57 72.16L402.66 74.07L403.72 76.08L404.75 78.19L405.73 80.39L406.68 82.67L407.6 85.02L408.48 87.45L409.32 89.93L410.13 92.46L410.91 95.05L411.66 97.67L412.37 100.32L413.05 102.99L413.7 105.68L414.32 108.38L414.91 111.08L415.47 113.78L416 116.46L416.51 119.12L416.98 121.76L417.43 124.36L417.86 126.92L418.25 129.43L418.63 131.88L418.97 134.27L419.3 136.58L419.6 138.82L419.87 140.97L420.13 143.03L420.36 144.99L420.57 146.84L420.76 148.57L420.93 150.19L421.08 151.67L421.21 153.01L421.32 154.21L421.41 155.26L421.49 156.15L421.55 156.87L421.6 157.42L421.6 157.44L421.6 157.44L421.6 157.46L421.6 157.48L421.6 157.49L421.61 157.5L421.61 157.52L421.61 157.53L421.78 159.66L421.85 160.49L421.92 161.37L421.99 162.29L422.06 163.27L422.13 164.28L422.2 165.34L422.26 166.43L422.31 167.56L422.35 168.72L422.38 169.92L422.4 171.14L422.4 172.38L422.39 173.65L422.35 174.93L422.3 176.24L422.22 177.55L422.12 178.88L421.99 180.22L421.83 181.57L421.65 182.91L421.43 184.26L421.18 185.61L420.89 186.95L420.57 188.29L420.21 189.62L419.81 190.93L419.36 192.24L418.88 193.52L418.34 194.78L417.76 196.02L417.13 197.24L416.45 198.43L415.71 199.59L414.92 200.71L414.08 201.8L413.17 202.85L412.21 203.86L411.18 204.83L410.09 205.75L408.93 206.62L406.86 208.27L406.6 209.33L406.32 210.39L406.05 211.43L405.77 212.48L405.48 213.51L405.18 214.54L404.88 215.56L404.58 216.57L404.27 217.58L403.95 218.58L403.63 219.57L403.3 220.56L402.97 221.54L402.63 222.51L402.28 223.48L401.93 224.44L401.57 225.39L401.21 226.34L400.84 227.28L400.47 228.22L400.08 229.14L399.7 230.07L399.3 230.98L398.9 231.89L398.5 232.8L398.09 233.69L397.67 234.58L397.25 235.47L396.82 236.35L396.38 237.22L395.94 238.09L395.49 238.95L395.04 239.8L394.58 240.65L394.11 241.49L393.64 242.33L393.16 243.16L392.67 243.99L392.18 244.81L391.69 245.62L393.51 246.99L395.33 248.32L397.16 249.62L399 250.89L400.83 252.12L402.67 253.33L404.51 254.51L406.34 255.66L408.18 256.79L410.02 257.88L411.86 258.95L413.69 259.99L415.52 261.01L417.35 262L419.18 262.97L421 263.92L422.82 264.84L424.63 265.74L426.44 266.62L428.24 267.48L430.03 268.32L431.82 269.14L433.6 269.94L435.37 270.72L437.13 271.49L438.88 272.24L440.62 272.97L442.35 273.69L444.07 274.39L445.78 275.08L447.47 275.75L449.15 276.42L450.82 277.07L452.47 277.71L454.11 278.34L455.74 278.95L457.34 279.56L458.93 280.16L460.51 280.75L462.06 281.34L463.7 281.95L465.32 282.56L466.92 283.17L468.5 283.77L470.07 284.36L471.61 284.96L473.14 285.55L474.64 286.14L476.13 286.73L477.6 287.33L479.05 287.92L480.47 288.52L481.88 289.12L483.26 289.72L484.63 290.33L485.97 290.95L487.29 291.57L488.59 292.2L489.86 292.84L491.11 293.49L492.34 294.15L493.55 294.81L494.73 295.49L495.89 296.19L497.02 296.89L498.13 297.61L499.22 298.35L500.28 299.1L501.31 299.86L502.32 300.65L503.3 301.45L504.26 302.27L505.19 303.12L506.09 303.98L506.97 304.86L507.81 305.77L508.63 306.7L509.43 307.65L510.19 308.63L510.92 309.63L512.96 312.71L514.9 316.06L516.74 319.66L518.48 323.5L520.14 327.55L521.7 331.79L523.18 336.22L524.57 340.81L525.89 345.55L527.12 350.41L528.28 355.38L529.36 360.45L530.37 365.59L531.31 370.79L532.18 376.03L532.99 381.29L533.74 386.56L534.43 391.82L535.06 397.05L535.64 402.23L536.16 407.35L536.64 412.38L537.06 417.32L537.45 422.13L537.79 426.82L538.09 431.35L538.35 435.71L538.58 439.89L538.78 443.86L538.94 447.61L539.08 451.12L539.2 454.38L539.29 457.36L539.36 460.04L539.41 462.42L539.45 464.48L539.48 466.18L539.49 467.53L539.5 468.5L539.5 469.07L539.5 469.27L539.5 469.48L539.49 469.68L539.48 469.88L539.46 470.08L539.44 470.28L539.41 470.48L539.38 470.68L539.35 470.88L539.31 471.08L539.27 471.28L539.23 471.47L539.18 471.67L539.13 471.86L539.07 472.05L539.01 472.24L538.95 472.43L538.88 472.62L538.81 472.81L538.74 473L538.66 473.18L538.58 473.36L538.49 473.55L538.4 473.73L538.31 473.9L538.21 474.08L538.12 474.25L538.01 474.43L537.91 474.6L537.8 474.77L537.68 474.93L537.57 475.1L537.45 475.26L537.33 475.42L537.2 475.58L537.07 475.74L536.94 475.89L536.8 476.04L536.66 476.19L536.52 476.33L536.37 476.48L536.23 476.62L536.08 476.75L535.92 476.89L535.77 477.02L535.61 477.14L535.45 477.27L535.29 477.39L535.13 477.5L534.96 477.62L534.79 477.73L534.62 477.83L534.45 477.94L534.27 478.04L534.1 478.13L533.92 478.23L533.74 478.31L533.56 478.4L533.38 478.48L533.19 478.56L533.01 478.64L532.82 478.71L532.63 478.78L532.44 478.84L532.25 478.9L532.06 478.96L531.86 479.01L531.67 479.06L531.47 479.1L531.28 479.14L531.08 479.18L530.88 479.22L530.68 479.25L530.48 479.27L530.28 479.29L530.08 479.31L529.88 479.33L529.67 479.34L529.47 479.34L529.26 479.34L111.13 479.34L110.71 479.34L110.3 479.31L109.89 479.27L109.48 479.21L109.08 479.14L108.69 479.05L108.3 478.95L107.92 478.83L107.55 478.7L107.18 478.55L106.82 478.39L106.46 478.22L106.12 478.04L105.78 477.84L105.45 477.63L105.13 477.4L104.82 477.17L104.51 476.92L104.22 476.66L103.94 476.39L103.67 476.12L103.41 475.83L103.16 475.53L102.92 475.22L102.69 474.9L102.47 474.58L102.27 474.24L102.08 473.9L101.9 473.55L101.74 473.19L101.59 472.82L101.45 472.45L101.33 472.07L101.22 471.68L101.12 471.29L101.04 470.89L100.98 470.49L100.94 470.08L100.9 469.67L100.89 469.25L100.88 468.11L100.86 466.6L100.85 464.76L100.85 462.59L100.86 460.11L100.88 457.34L100.91 454.3L100.97 450.99L101.04 447.45L101.14 443.68L101.27 439.7L101.43 435.53L101.62 431.18L101.85 426.68L102.11 422.03L102.42 417.26L102.78 412.38L103.18 407.41L103.63 402.37L104.14 397.26L104.7 392.12L105.32 386.95L106.01 381.78L106.76 376.61L107.58 371.47L108.47 366.37L109.44 361.34L110.48 356.37L111.6 351.5L112.81 346.74L114.1 342.11L115.48 337.62L116.96 333.29L118.53 329.13L120.2 325.17L121.96 321.42L123.84 317.9L125.81 314.61L127.9 311.59L130.1 308.85L130.84 308.02L131.6 307.22L132.37 306.44L133.17 305.68L133.98 304.94L134.82 304.22L135.67 303.52L136.54 302.83L137.43 302.17L138.34 301.52L139.26 300.88L140.2 300.27L141.16 299.67L142.14 299.08L143.13 298.5L144.13 297.94L145.16 297.4L146.2 296.86L147.25 296.33L148.32 295.82L149.4 295.31L150.5 294.82L151.61 294.33L152.74 293.85L153.88 293.38L155.03 292.92L156.2 292.46L157.38 292L158.57 291.56L159.77 291.11L160.98 290.67L162.21 290.23L163.45 289.79L164.69 289.36L165.95 288.93L167.22 288.49L168.5 288.06L169.79 287.62L171.09 287.19L172.4 286.75L174.04 286.19L175.7 285.63L177.38 285.07L179.07 284.49L180.79 283.9L182.52 283.29L184.27 282.68L186.04 282.05L187.83 281.4L189.63 280.73L191.44 280.05L193.28 279.34L195.13 278.62L196.99 277.87L198.87 277.1L200.76 276.3L202.66 275.48L204.58 274.63L206.52 273.75L208.46 272.85L210.42 271.91L212.4 270.94L214.38 269.93L216.37 268.89L218.38 267.82L220.4 266.71L222.43 265.56L224.46 264.37L226.51 263.14L228.57 261.86L230.64 260.55L232.72 259.19L234.8 257.78L236.89 256.33L239 254.83L241.1 253.28L243.22 251.68L245.34 250.03L247.47 248.32L249.61 246.56L248.87 245.32L248.15 244.08L247.45 242.85L246.76 241.61L246.1 240.38L245.45 239.15L244.82 237.93L244.21 236.71L243.62 235.5L243.04 234.3L242.49 233.11L241.95 231.93L241.43 230.77L240.92 229.61L240.43 228.47L239.96 227.34L239.51 226.23L239.07 225.13L238.64 224.05L238.24 222.99L237.85 221.95L237.47 220.93L237.11 219.94L236.77 218.96L236.44 218.01L236.12 217.08L235.82 216.18L235.54 215.3L235.27 214.45L235.01 213.63L234.77 212.84L234.54 212.08L234.32 211.35L234.12 210.65L233.93 209.99L233.76 209.36L233.6 208.76L233.45 208.2L233.31 207.68L233.19 207.2L232.53 206.64L231.89 206.06L231.27 205.46L230.66 204.83L230.06 204.17L229.47 203.49L228.9 202.79L228.34 202.06L227.8 201.31L227.27 200.54L226.76 199.75L226.26 198.94L225.77 198.1L225.3 197.25L224.85 196.37L224.41 195.47L223.98 194.56L223.57 193.62L223.18 192.67L222.8 191.7L222.44 190.7L222.09 189.7L221.76 188.67L221.45 187.63L221.15 186.57L220.87 185.49L220.61 184.4L220.36 183.29L220.13 182.16L219.92 181.03L219.72 179.87L219.55 178.71L219.39 177.53L219.25 176.33L219.12 175.13L219.02 173.91L218.93 172.67L218.86 171.43L218.81 170.18L218.78 168.91L218.78 168.75L218.78 168.38L218.78 167.8L218.79 167.03L218.8 166.06L218.81 164.92L218.83 163.61L218.85 162.14L218.88 160.51L218.92 158.75L218.97 156.85L219.03 154.83L219.1 152.69L219.18 150.45L219.28 148.12L219.38 145.7L219.51 143.2L219.64 140.64L219.8 138.02L219.97 135.35L220.16 132.64L220.37 129.9L220.6 127.14L220.85 124.37L221.12 121.6L221.41 118.83L221.73 116.08L222.08 113.36L222.44 110.67L222.84 108.03L223.26 105.44L223.71 102.91L224.19 100.46L224.7 98.08L225.24 95.8L225.82 93.62L226.42 91.55L227.06 89.6L227.74 87.78L228.45 86.09L229.15 84.55L229.87 83L230.61 81.44L231.37 79.88L232.14 78.31L232.94 76.74L233.76 75.16L234.6 73.59L235.47 72.03L236.36 70.47L237.27 68.92L238.21 67.38L239.17 65.86L240.16 64.35L241.18 62.85L242.22 61.38L243.29 59.93L244.39 58.5L245.52 57.1L246.68 55.73L247.87 54.39L249.09 53.09L250.35 51.81L251.64 50.58L252.96 49.39L254.31 48.23L255.7 47.13L257.13 46.06L258.59 45.05L260.09 44.09L261.62 43.18L263.2 42.32L264.81 41.53L266.46 40.79L268.15 40.12L269.89 39.5L271.66 38.96L273.48 38.48L275.34 38.08L277.24 37.74L277.87 37.65L278.5 37.56L279.13 37.48L279.75 37.4L280.38 37.33L281.01 37.26L281.63 37.19L282.26 37.13L282.88 37.08L283.5 37.03L284.12 36.98L284.73 36.94L285.34 36.9L285.95 36.86L286.55 36.83L287.14 36.8L287.73 36.77L288.32 36.75L288.9 36.73L289.47 36.71L290.03 36.7L290.59 36.68L291.13 36.67L291.67 36.67L292.2 36.66L292.72 36.66L293.24 36.66L293.74 36.66L294.23 36.66L294.71 36.67L295.17 36.67L295.63 36.68L296.07 36.69L296.5 36.7L296.92 36.71L297.32 36.72L297.71 36.74L298.08 36.75L298.44 36.76L298.78 36.78L299.1 36.63L299.43 36.47L299.78 36.31L300.14 36.15L300.51 35.99L300.9 35.82L301.3 35.65L301.71 35.48L302.14 35.31L302.58 35.13L303.03 34.95L303.49 34.78L303.97 34.6L304.46 34.42L304.96 34.24L305.48 34.06L306.01 33.89L306.54 33.71L307.09 33.54L307.66 33.37L308.23 33.19L308.81 33.03L309.41 32.86L310.02 32.7L310.63 32.54L311.26 32.38L311.9 32.23L312.55 32.08L313.21 31.94L313.87 31.8L314.55 31.67L315.24 31.54L315.94 31.42L316.65 31.31L317.36 31.2L318.09 31.1L318.82 31.01L319.57 30.92L320.32 30.84L321.08 30.77L322.76 30.66L324.5 30.59L326.29 30.58L328.15 30.62L330.05 30.71ZM223.19 288.38L222.42 288.77L221.64 289.16L220.88 289.54L220.11 289.92L219.34 290.3L218.58 290.66L217.82 291.03L217.06 291.39L216.3 291.75L215.55 292.1L214.8 292.44L214.05 292.79L213.3 293.13L212.56 293.46L211.81 293.79L211.07 294.12L210.34 294.44L209.6 294.76L208.87 295.07L208.14 295.39L207.41 295.69L206.69 296L205.96 296.3L205.24 296.59L204.53 296.89L203.81 297.18L203.1 297.46L202.39 297.74L201.69 298.02L200.98 298.3L200.28 298.57L199.58 298.84L198.89 299.11L198.2 299.37L197.51 299.63L196.82 299.89L196.14 300.14L195.46 300.4L195.26 301.17L195.07 301.97L194.88 302.8L194.69 303.64L194.5 304.51L194.31 305.39L194.12 306.3L193.94 307.24L193.75 308.19L193.57 309.17L193.39 310.16L193.22 311.18L193.05 312.22L192.88 313.28L192.72 314.36L192.56 315.46L192.41 316.58L192.26 317.72L192.12 318.88L191.98 320.06L191.85 321.27L191.73 322.49L191.62 323.73L191.51 324.99L191.41 326.27L191.32 327.57L191.24 328.89L191.17 330.23L191.11 331.58L191.05 332.96L191.01 334.35L190.98 335.76L190.96 337.19L190.95 338.64L190.95 340.11L190.96 341.59L190.99 343.1L191.03 344.62L191.08 346.15L191.15 347.71L192.91 347.92L194.66 348.22L196.39 348.61L198.11 349.09L199.81 349.66L201.5 350.31L203.16 351.05L204.81 351.87L206.43 352.77L208.03 353.74L209.6 354.8L211.15 355.93L212.68 357.13L214.17 358.41L215.63 359.76L217.06 361.18L218.46 362.66L219.83 364.21L221.15 365.83L222.45 367.51L223.7 369.24L224.92 371.04L226.09 372.9L227.22 374.81L228.31 376.78L229.35 378.8L230.35 380.87L231.3 382.99L232.2 385.16L233.05 387.37L233.85 389.63L234.59 391.94L235.28 394.28L235.92 396.67L236.5 399.09L237.02 401.55L237.48 404.05L237.88 406.57L238.21 409.13L238.48 411.72L240.65 435.24L240.66 435.36L240.67 435.49L240.67 435.62L240.68 435.74L240.68 435.87L240.68 436L240.67 436.12L240.66 436.25L240.66 436.37L240.64 436.5L240.63 436.62L240.61 436.75L240.59 436.87L240.57 436.99L240.55 437.12L240.52 437.24L240.49 437.36L240.46 437.48L240.43 437.6L240.39 437.72L240.35 437.84L240.31 437.96L240.27 438.08L240.23 438.19L240.18 438.31L240.13 438.42L240.08 438.54L240.02 438.65L239.97 438.76L239.91 438.87L239.85 438.98L239.78 439.09L239.72 439.2L239.65 439.3L239.58 439.41L239.51 439.51L239.44 439.62L239.36 439.72L239.28 439.82L239.2 439.92L239.12 440.01L239.03 440.11L238.95 440.2L238.86 440.29L238.77 440.38L238.68 440.47L238.59 440.56L238.5 440.64L238.4 440.72L238.3 440.8L238.21 440.88L238.11 440.96L238 441.03L237.9 441.1L237.8 441.17L237.69 441.24L237.59 441.31L237.48 441.37L237.37 441.43L237.26 441.49L237.15 441.55L237.04 441.6L236.92 441.66L236.81 441.71L236.69 441.75L236.58 441.8L236.46 441.84L236.34 441.89L236.22 441.92L236.1 441.96L235.98 442L235.86 442.03L235.74 442.06L235.62 442.09L235.49 442.11L235.37 442.13L235.24 442.15L235.12 442.17L234.99 442.19L234.86 442.2L219.5 443.61L219.24 443.63L218.98 443.64L218.72 443.64L218.47 443.63L218.21 443.61L217.96 443.58L217.71 443.54L217.47 443.49L217.23 443.43L216.99 443.35L216.75 443.28L216.52 443.19L216.29 443.09L216.07 442.98L215.85 442.87L215.64 442.74L215.43 442.61L215.23 442.48L215.03 442.33L214.84 442.17L214.65 442.01L214.47 441.85L214.3 441.67L214.13 441.49L213.97 441.3L213.81 441.1L213.67 440.9L213.53 440.7L213.4 440.48L213.28 440.27L213.16 440.04L213.06 439.82L212.96 439.58L212.87 439.34L212.79 439.1L212.73 438.85L212.67 438.6L212.62 438.35L212.58 438.09L212.55 437.83L212.53 437.56L212.52 437.3L212.52 437.04L212.54 436.79L212.56 436.53L212.59 436.28L212.63 436.03L212.69 435.78L212.75 435.54L212.82 435.3L212.9 435.07L212.99 434.83L213.09 434.61L213.19 434.38L213.31 434.16L213.43 433.95L213.56 433.74L213.7 433.54L213.84 433.34L214 433.15L214.16 432.96L214.33 432.78L214.5 432.61L214.68 432.44L214.87 432.28L215.06 432.13L215.26 431.99L215.47 431.85L215.68 431.72L215.9 431.6L216.12 431.48L216.35 431.38L216.58 431.28L216.82 431.19L217.06 431.12L217.31 431.05L217.56 430.99L217.81 430.94L218.07 430.9L218.33 430.87L227.32 430.04L225.74 412.9L225.5 410.65L225.21 408.43L224.86 406.23L224.46 404.06L224.01 401.92L223.5 399.82L222.95 397.74L222.35 395.71L221.71 393.71L221.02 391.75L220.28 389.83L219.51 387.95L218.69 386.12L217.83 384.34L216.94 382.6L216.01 380.92L215.04 379.29L214.04 377.71L213.01 376.19L211.94 374.73L210.85 373.32L209.73 371.98L208.58 370.7L207.4 369.49L206.2 368.34L204.98 367.26L203.74 366.26L202.48 365.32L201.19 364.46L199.89 363.68L198.58 362.98L197.25 362.35L195.91 361.81L194.55 361.35L193.19 360.97L191.81 360.69L190.43 360.49L189.04 360.39L187.65 360.37L186.25 360.45L184.86 360.63L183.5 360.9L182.15 361.26L180.83 361.7L179.53 362.23L178.26 362.85L177.01 363.55L175.79 364.33L174.6 365.19L173.43 366.12L172.3 367.13L171.2 368.21L170.12 369.36L169.09 370.57L168.08 371.86L167.11 373.2L166.18 374.61L165.28 376.08L164.42 377.6L163.6 379.18L162.83 380.81L162.09 382.5L161.39 384.23L160.74 386.01L160.13 387.84L159.57 389.71L159.05 391.62L158.58 393.56L158.16 395.55L157.79 397.57L157.47 399.62L157.2 401.71L156.98 403.82L156.82 405.96L156.71 408.12L156.65 410.31L156.65 412.51L156.71 414.74L156.83 416.98L157.01 419.23L158.59 436.37L170.25 435.3L170.51 435.28L170.78 435.27L171.04 435.27L171.29 435.29L171.55 435.31L171.8 435.34L172.05 435.38L172.3 435.44L172.54 435.5L172.78 435.57L173.02 435.65L173.25 435.74L173.48 435.84L173.7 435.94L173.92 436.06L174.13 436.18L174.34 436.31L174.54 436.45L174.74 436.59L174.93 436.75L175.12 436.91L175.3 437.08L175.47 437.25L175.64 437.43L175.8 437.62L175.95 437.81L176.09 438.01L176.23 438.22L176.36 438.43L176.48 438.65L176.6 438.87L176.7 439.1L176.8 439.33L176.88 439.57L176.96 439.81L177.03 440.06L177.09 440.31L177.14 440.56L177.18 440.82L177.21 441.08L177.23 441.35L177.24 441.61L177.23 441.87L177.22 442.12L177.2 442.38L177.16 442.63L177.12 442.88L177.07 443.13L177.01 443.37L176.94 443.61L176.86 443.84L176.77 444.08L176.67 444.3L176.56 444.53L176.45 444.75L176.33 444.96L176.2 445.17L176.06 445.37L175.91 445.57L175.76 445.76L175.6 445.95L175.43 446.13L175.25 446.3L175.07 446.47L174.89 446.63L174.69 446.78L174.49 446.92L174.29 447.06L174.08 447.19L173.86 447.31L173.64 447.43L173.41 447.53L173.18 447.63L172.94 447.72L172.7 447.79L172.45 447.86L172.2 447.92L171.94 447.97L171.69 448.01L171.42 448.04L153.4 449.7L153.38 449.7L153.37 449.7L153.35 449.7L153.32 449.71L153.31 449.71L153.29 449.71L153.26 449.71L153.25 449.71L153.23 449.71L153.2 449.72L153.19 449.72L153.16 449.72L153.14 449.72L153.11 449.72L153.08 449.72L153.05 449.72L153.02 449.72L152.99 449.72L152.97 449.72L152.94 449.72L152.92 449.72L152.89 449.73L152.88 449.73L152.85 449.73L152.83 449.73L152.8 449.73L152.56 449.72L152.31 449.71L152.07 449.68L151.84 449.65L151.6 449.61L151.37 449.56L151.14 449.51L150.91 449.44L150.69 449.37L150.47 449.28L150.25 449.19L150.04 449.1L149.83 448.99L149.63 448.88L149.43 448.76L149.24 448.64L149.05 448.5L148.86 448.36L148.68 448.22L148.51 448.06L148.34 447.91L148.18 447.74L148.02 447.57L147.87 447.39L147.72 447.21L147.58 447.02L147.45 446.83L147.33 446.63L147.21 446.43L147.1 446.22L147 446.01L146.9 445.79L146.82 445.57L146.74 445.35L146.66 445.12L146.6 444.88L146.55 444.65L146.5 444.41L146.46 444.16L146.44 443.91L144.27 420.41L144.07 417.84L143.93 415.29L143.86 412.75L143.85 410.24L143.91 407.75L144.03 405.29L144.21 402.85L144.46 400.44L144.76 398.06L145.12 395.72L145.54 393.4L146.02 391.13L146.55 388.89L147.14 386.69L147.78 384.52L148.48 382.41L149.22 380.33L150.02 378.31L150.87 376.33L151.77 374.4L152.71 372.52L153.7 370.7L154.74 368.93L155.82 367.22L156.94 365.56L158.11 363.97L159.32 362.44L160.57 360.97L161.86 359.57L163.19 358.24L164.56 356.98L165.97 355.78L167.41 354.66L168.88 353.62L170.39 352.65L171.93 351.76L173.51 350.95L175.11 350.23L176.74 349.58L178.41 349.03L178.34 347.69L178.29 346.37L178.25 345.06L178.21 343.77L178.18 342.48L178.17 341.21L178.16 339.94L178.16 338.69L178.16 337.45L178.18 336.23L178.2 335.01L178.23 333.81L178.27 332.62L178.31 331.44L178.36 330.27L178.42 329.12L178.48 327.98L178.55 326.85L178.63 325.73L178.71 324.63L178.8 323.54L178.89 322.46L178.99 321.4L179.1 320.35L179.2 319.31L179.32 318.28L179.43 317.27L179.56 316.27L179.68 315.29L179.81 314.32L179.94 313.36L180.08 312.41L180.22 311.48L180.36 310.57L180.51 309.66L180.66 308.77L180.81 307.9L180.96 307.04L181.12 306.19L181.27 305.36L181.1 305.42L180.86 305.5L180.68 305.56L180.5 305.62L180.38 305.66L180.2 305.72L180.15 305.74L180.03 305.78L179.91 305.82L179.79 305.86L179.67 305.9L179.61 305.92L179.55 305.94L179.5 305.96L179.44 305.98L179.38 306L179.26 306.03L179.2 306.05L179.14 306.07L179.09 306.09L179.03 306.11L178.97 306.13L178.91 306.15L177.77 306.53L176.65 306.91L175.53 307.29L174.43 307.66L173.34 308.03L172.27 308.4L171.21 308.76L170.16 309.13L169.13 309.49L168.11 309.85L167.11 310.22L166.12 310.58L165.14 310.94L164.18 311.31L163.24 311.67L162.32 312.04L161.4 312.41L160.51 312.78L159.63 313.15L158.77 313.53L157.93 313.91L157.11 314.29L156.3 314.68L155.51 315.07L154.74 315.47L153.99 315.87L153.26 316.28L152.54 316.69L151.85 317.11L151.17 317.54L150.52 317.97L149.88 318.42L149.27 318.86L148.68 319.32L148.1 319.79L147.55 320.26L147.02 320.75L146.52 321.24L146.03 321.75L145.57 322.26L144.15 324.03L142.78 325.99L141.47 328.14L140.21 330.46L139 332.95L137.84 335.61L136.73 338.41L135.67 341.35L134.65 344.43L133.68 347.63L132.76 350.95L131.88 354.38L131.05 357.9L130.26 361.52L129.51 365.22L128.8 368.99L128.13 372.82L127.49 376.71L126.9 380.65L126.34 384.63L125.82 388.63L125.33 392.66L124.88 396.7L124.46 400.74L124.07 404.78L123.71 408.8L123.38 412.8L123.08 416.77L122.8 420.71L122.56 424.59L122.34 428.42L122.14 432.18L121.97 435.86L121.82 439.47L121.69 442.98L121.59 446.39L121.5 449.7L121.44 452.88L121.39 455.94L121.35 458.87L314.63 458.87L314.63 423.25L238.5 340.04L238.34 339.86L238.19 339.67L238.05 339.48L237.91 339.28L237.78 339.08L237.66 338.88L237.55 338.67L237.44 338.46L237.35 338.25L237.26 338.03L237.18 337.82L237.11 337.6L237.05 337.38L236.99 337.15L236.94 336.93L236.9 336.7L236.87 336.47L236.85 336.24L236.84 336.02L236.83 335.79L236.83 335.56L236.84 335.33L236.86 335.1L236.89 334.87L236.92 334.64L236.96 334.42L237.01 334.19L237.07 333.97L237.14 333.75L237.21 333.53L237.3 333.31L237.39 333.1L237.49 332.89L237.6 332.68L237.71 332.47L237.84 332.27L237.97 332.07L238.11 331.88L238.26 331.69L238.42 331.5L249.95 318.37L228.12 318.37L227.98 318.37L227.85 318.36L227.71 318.35L227.57 318.34L227.44 318.33L227.3 318.31L227.17 318.3L227.03 318.27L226.9 318.25L226.77 318.22L226.64 318.19L226.5 318.16L226.37 318.12L226.24 318.09L226.12 318.04L225.99 318L225.86 317.95L225.74 317.91L225.61 317.85L225.49 317.8L225.37 317.74L225.24 317.68L225.13 317.62L225.01 317.56L224.89 317.49L224.77 317.42L224.66 317.35L224.55 317.28L224.43 317.2L224.33 317.12L224.22 317.04L224.11 316.96L224 316.87L223.9 316.78L223.8 316.69L223.7 316.6L223.6 316.5L223.51 316.4L223.41 316.3L223.32 316.2L223.23 316.1L223.14 315.99L223.06 315.88L222.97 315.77L222.89 315.66L222.82 315.55L222.74 315.44L222.67 315.32L222.6 315.21L222.53 315.09L222.47 314.97L222.4 314.85L222.34 314.73L222.29 314.61L222.23 314.48L222.18 314.36L222.13 314.23L222.08 314.11L222.04 313.98L222 313.85L221.96 313.72L221.93 313.59L221.89 313.46L221.86 313.33L221.84 313.2L221.81 313.07L221.79 312.93L221.77 312.8L221.75 312.66L221.74 312.53L221.73 312.39L221.72 312.26L221.72 312.12L221.72 311.99L221.72 311.85L221.72 311.71L221.73 311.58L221.74 311.44L221.75 311.3L221.77 311.17L224.74 287.58L223.97 287.98L223.19 288.38ZM422.61 311.3L422.62 311.44L422.63 311.57L422.63 311.71L422.64 311.85L422.64 311.98L422.64 312.12L422.63 312.25L422.63 312.39L422.62 312.52L422.6 312.66L422.59 312.79L422.57 312.93L422.55 313.06L422.52 313.19L422.49 313.33L422.46 313.46L422.43 313.59L422.4 313.72L422.36 313.85L422.32 313.97L422.27 314.1L422.23 314.23L422.18 314.35L422.13 314.48L422.07 314.6L422.01 314.72L421.95 314.85L421.89 314.97L421.83 315.08L421.76 315.2L421.69 315.32L421.62 315.43L421.54 315.55L421.46 315.66L421.38 315.77L421.3 315.88L421.22 315.99L421.13 316.09L421.04 316.2L420.95 316.3L420.85 316.4L420.76 316.5L420.66 316.59L420.56 316.68L420.46 316.78L420.35 316.86L420.25 316.95L420.14 317.03L420.03 317.12L419.92 317.19L419.81 317.27L419.7 317.35L419.58 317.42L419.47 317.49L419.35 317.55L419.23 317.62L419.11 317.68L418.99 317.74L418.87 317.8L418.75 317.85L418.62 317.9L418.5 317.95L418.37 318L418.24 318.04L418.11 318.08L417.98 318.12L417.85 318.15L417.72 318.19L417.59 318.22L417.46 318.24L417.32 318.27L417.19 318.29L417.05 318.31L416.92 318.33L416.78 318.34L416.65 318.35L416.51 318.36L416.37 318.36L416.24 318.36L394.4 318.36L405.94 331.49L406.1 331.68L406.25 331.87L406.39 332.07L406.52 332.27L406.65 332.47L406.76 332.68L406.87 332.89L406.97 333.1L407.06 333.32L407.15 333.54L407.22 333.76L407.29 333.98L407.35 334.21L407.4 334.43L407.44 334.66L407.48 334.89L407.5 335.12L407.52 335.35L407.53 335.58L407.53 335.81L407.52 336.04L407.51 336.27L407.48 336.5L407.45 336.73L407.41 336.96L407.36 337.18L407.3 337.41L407.24 337.63L407.16 337.85L407.08 338.07L406.99 338.29L406.89 338.5L406.79 338.71L406.67 338.92L406.55 339.12L406.42 339.32L406.28 339.52L406.13 339.71L405.98 339.9L405.81 340.08L327.43 424.17L327.43 458.87L518.86 458.87L518.78 456.01L518.68 453.02L518.56 449.9L518.42 446.67L518.26 443.32L518.08 439.88L517.88 436.35L517.66 432.74L517.41 429.05L517.14 425.29L516.85 421.47L516.53 417.6L516.18 413.69L515.81 409.75L515.41 405.77L514.98 401.78L514.52 397.78L514.03 393.78L513.51 389.78L512.96 385.79L512.38 381.83L511.76 377.9L511.11 374L510.43 370.15L509.71 366.36L508.96 362.63L508.17 358.97L507.34 355.38L506.47 351.89L505.57 348.49L504.62 345.19L503.64 342L502.61 338.93L501.54 335.99L500.43 333.19L499.28 330.53L498.08 328.02L496.84 325.66L495.55 323.48L494.21 321.47L493.78 320.89L493.32 320.31L492.83 319.74L492.31 319.18L491.77 318.63L491.19 318.08L490.59 317.55L489.97 317.02L489.32 316.49L488.64 315.98L487.94 315.47L487.21 314.96L486.46 314.46L485.69 313.97L484.89 313.48L484.07 313L483.23 312.51L482.36 312.04L481.47 311.56L480.56 311.1L479.63 310.63L478.68 310.16L477.71 309.7L476.71 309.24L475.7 308.78L474.67 308.32L473.62 307.87L472.55 307.41L471.46 306.95L470.35 306.5L469.23 306.04L468.09 305.58L466.93 305.12L465.76 304.66L464.57 304.2L463.36 303.73L462.14 303.27L460.91 302.79L459.66 302.32L458.39 301.84L458.25 302.79L458.09 303.75L457.92 304.75L457.75 305.76L457.56 306.8L457.36 307.86L457.15 308.95L456.92 310.06L456.68 311.19L456.43 312.34L456.17 313.52L455.89 314.72L455.6 315.94L455.3 317.19L454.98 318.45L454.64 319.74L454.29 321.05L453.93 322.38L453.55 323.74L453.15 325.11L452.73 326.5L452.3 327.92L451.85 329.35L451.39 330.81L450.9 332.28L450.4 333.78L449.88 335.29L449.34 336.83L448.78 338.38L448.2 339.96L447.6 341.55L446.98 343.16L446.34 344.79L445.67 346.44L444.99 348.11L444.29 349.79L443.56 351.49L442.81 353.21L442.04 354.95L441.24 356.71L441.68 357.05L442.12 357.4L442.54 357.76L442.96 358.14L443.37 358.52L443.77 358.91L444.16 359.31L444.54 359.71L444.92 360.13L445.28 360.55L445.63 360.99L445.98 361.43L446.31 361.88L446.64 362.33L446.95 362.8L447.26 363.27L447.55 363.75L447.83 364.23L448.1 364.72L448.37 365.22L448.62 365.73L448.85 366.24L449.08 366.76L449.3 367.28L449.5 367.81L449.69 368.35L449.87 368.89L450.04 369.44L450.19 369.99L450.34 370.55L450.47 371.11L450.58 371.68L450.69 372.25L450.78 372.83L450.85 373.41L450.92 373.99L450.97 374.58L451 375.18L451.02 375.77L451.03 376.37L451.01 377.39L450.95 378.39L450.85 379.39L450.71 380.37L450.53 381.34L450.31 382.29L450.06 383.24L449.77 384.16L449.45 385.07L449.09 385.97L448.7 386.84L448.27 387.7L447.82 388.54L447.33 389.36L446.81 390.16L446.26 390.93L445.69 391.69L445.08 392.42L444.45 393.13L443.79 393.81L443.11 394.47L442.4 395.1L441.67 395.7L440.92 396.28L440.14 396.83L439.34 397.35L438.52 397.83L437.68 398.29L436.82 398.71L435.95 399.11L435.05 399.46L434.14 399.79L433.22 400.08L432.27 400.33L431.32 400.55L430.35 400.73L429.37 400.87L428.37 400.97L427.37 401.03L426.35 401.05L425.34 401.03L424.33 400.97L423.34 400.87L422.36 400.73L421.39 400.55L420.43 400.33L419.49 400.08L418.56 399.79L417.65 399.47L416.76 399.11L415.88 398.72L415.02 398.29L414.18 397.83L413.36 397.35L412.57 396.83L411.79 396.28L411.03 395.71L410.3 395.1L409.59 394.47L408.91 393.81L408.25 393.13L407.62 392.42L407.02 391.69L406.44 390.94L405.9 390.16L405.38 389.36L404.89 388.54L404.43 387.7L404.01 386.85L403.62 385.97L403.26 385.07L402.93 384.16L402.65 383.24L402.39 382.3L402.18 381.34L402 380.37L401.86 379.39L401.76 378.39L401.69 377.39L401.67 376.37L401.69 375.36L401.76 374.35L401.86 373.36L402 372.37L402.18 371.4L402.39 370.45L402.65 369.51L402.93 368.58L403.26 367.67L403.62 366.77L404.01 365.9L404.43 365.04L404.89 364.2L405.38 363.38L405.89 362.58L406.44 361.81L407.02 361.05L407.62 360.32L408.25 359.61L408.91 358.93L409.59 358.27L410.3 357.64L411.03 357.04L411.79 356.46L412.56 355.91L413.36 355.4L414.18 354.91L415.02 354.45L415.88 354.03L416.76 353.64L417.65 353.28L418.56 352.95L419.49 352.66L420.43 352.41L421.38 352.2L422.35 352.02L423.34 351.88L424.33 351.77L425.34 351.71L426.35 351.69L426.43 351.69L426.51 351.69L426.58 351.69L426.66 351.69L426.73 351.7L426.81 351.7L426.89 351.7L426.96 351.7L427.04 351.7L427.11 351.71L427.19 351.71L427.27 351.71L427.34 351.71L427.42 351.72L427.49 351.72L427.57 351.72L427.65 351.73L427.72 351.73L427.8 351.74L427.87 351.74L427.95 351.75L428.02 351.75L428.1 351.76L428.17 351.76L428.25 351.77L428.32 351.77L428.4 351.78L428.47 351.79L428.55 351.79L428.62 351.8L428.7 351.81L428.77 351.81L428.85 351.82L428.92 351.83L429 351.84L429.07 351.84L429.15 351.85L429.22 351.86L429.29 351.87L429.37 351.88L430.19 350.06L430.99 348.27L431.77 346.49L432.52 344.74L433.24 343L433.94 341.29L434.61 339.59L435.26 337.92L435.89 336.27L436.5 334.64L437.08 333.04L437.64 331.45L438.18 329.89L438.69 328.35L439.19 326.84L439.66 325.35L440.12 323.88L440.56 322.43L440.97 321.01L441.37 319.61L441.75 318.24L442.12 316.9L442.46 315.57L442.79 314.28L443.1 313.01L443.4 311.76L443.68 310.54L443.94 309.35L444.19 308.18L444.43 307.04L444.65 305.93L444.86 304.85L445.05 303.79L445.23 302.76L445.4 301.76L445.56 300.79L445.71 299.85L445.84 298.93L445.97 298.05L446.09 297.19L445.45 296.95L444.82 296.71L444.19 296.46L443.55 296.21L442.91 295.97L442.27 295.72L441.62 295.46L440.98 295.21L440.33 294.96L439.68 294.7L439.03 294.44L438.38 294.18L437.72 293.92L437.06 293.65L436.41 293.39L435.75 293.12L435.08 292.85L434.42 292.58L433.75 292.3L433.09 292.03L432.42 291.75L431.75 291.47L431.07 291.18L430.4 290.9L429.72 290.61L429.05 290.32L428.37 290.03L427.69 289.73L427.01 289.43L426.32 289.13L425.64 288.83L424.95 288.52L424.27 288.22L423.58 287.91L422.89 287.59L422.19 287.28L421.5 286.96L420.81 286.64L420.11 286.31L419.42 285.98L422.59 311.16L422.61 311.3ZM325.1 317.49L324.89 317.55L324.68 317.6L324.48 317.65L324.27 317.7L324.06 317.75L323.86 317.8L323.66 317.85L323.46 317.9L323.26 317.94L323.06 317.98L322.86 318.03L322.67 318.07L322.48 318.11L322.28 318.14L322.1 318.18L321.91 318.22L321.72 318.25L321.54 318.28L321.36 318.31L321.18 318.34L321.01 318.37L320.83 318.39L320.66 318.42L320.49 318.44L320.32 318.46L320.16 318.48L320 318.5L319.84 318.52L319.68 318.53L319.53 318.54L319.38 318.55L319.23 318.56L319.08 318.57L318.94 318.57L318.8 318.58L318.66 318.58L318.6 318.58L318.54 318.58L318.47 318.57L318.41 318.57L318.34 318.57L318.26 318.56L318.19 318.56L318.11 318.55L318.03 318.55L317.95 318.54L317.86 318.53L317.78 318.52L317.69 318.51L317.59 318.5L317.5 318.49L317.4 318.48L317.3 318.46L317.2 318.45L317.1 318.44L316.99 318.42L316.88 318.4L316.77 318.39L316.65 318.37L316.54 318.35L316.42 318.33L316.3 318.31L316.17 318.29L316.05 318.27L315.92 318.25L315.79 318.23L315.65 318.2L315.52 318.18L315.38 318.15L315.24 318.13L315.09 318.1L314.95 318.07L314.8 318.04L314.65 318.01L302.95 352.06L321.17 402.31L338.31 353.33L325.53 317.38L325.32 317.44L325.1 317.49ZM392.5 335.59L375.46 316.18L375.34 316.04L375.22 315.89L375.11 315.74L375 315.59L374.9 315.44L374.8 315.28L374.7 315.12L374.61 314.96L374.53 314.8L374.45 314.64L374.38 314.47L374.31 314.3L374.24 314.13L374.18 313.96L374.13 313.79L374.08 313.61L374.04 313.43L374 313.26L373.96 313.08L373.93 312.9L373.91 312.72L373.89 312.54L373.88 312.36L373.87 312.18L373.86 312L373.87 311.82L373.87 311.64L373.88 311.45L373.9 311.27L373.92 311.09L373.95 310.91L373.98 310.73L374.02 310.55L374.06 310.37L374.11 310.19L374.17 310.02L374.23 309.84L374.29 309.67L374.36 309.49L374.44 309.32L374.52 309.15L374.6 308.98L374.69 308.82L374.78 308.66L374.88 308.5L374.98 308.35L375.09 308.2L375.2 308.05L375.31 307.91L375.43 307.77L375.55 307.63L375.68 307.5L375.81 307.37L375.94 307.25L376.07 307.12L376.21 307.01L376.35 306.9L376.5 306.79L376.65 306.68L376.8 306.58L376.95 306.49L377.11 306.4L377.27 306.31L377.43 306.23L377.59 306.15L377.76 306.07L377.92 306L378.09 305.94L378.27 305.88L378.44 305.83L378.62 305.78L378.79 305.73L378.97 305.69L379.16 305.66L379.34 305.63L379.52 305.61L379.71 305.59L379.89 305.57L380.08 305.56L380.27 305.56L408.98 305.56L405.62 278.88L405.05 278.57L404.49 278.26L403.93 277.94L403.37 277.63L402.8 277.31L402.24 276.99L401.67 276.66L401.11 276.34L400.54 276.01L399.98 275.68L399.41 275.35L398.85 275.01L398.28 274.67L397.72 274.33L397.15 273.99L396.58 273.64L396.02 273.29L395.45 272.94L394.88 272.59L394.31 272.23L393.75 271.88L393.18 271.51L392.61 271.15L392.04 270.78L391.48 270.42L390.91 270.04L390.34 269.67L389.77 269.29L389.2 268.91L388.63 268.53L388.06 268.15L387.49 267.76L386.93 267.37L386.36 266.97L385.79 266.58L385.22 266.18L384.65 265.77L384.08 265.37L383.51 264.96L382.94 264.55L337.39 394.71L392.5 335.59ZM257.13 266.75L256.64 267.14L256.15 267.52L255.65 267.9L255.16 268.28L254.67 268.65L254.18 269.02L253.69 269.39L253.19 269.76L252.7 270.12L252.21 270.49L251.72 270.85L251.23 271.2L250.74 271.56L250.25 271.91L249.77 272.26L249.28 272.61L248.79 272.96L248.3 273.3L247.81 273.64L247.33 273.98L246.84 274.32L246.35 274.65L245.87 274.99L245.38 275.32L244.9 275.64L244.41 275.97L243.93 276.29L243.45 276.61L242.96 276.93L242.48 277.25L242 277.56L241.51 277.87L241.03 278.18L240.55 278.49L240.07 278.79L239.59 279.1L239.11 279.4L238.63 279.7L235.37 305.57L264.08 305.57L264.27 305.57L264.45 305.58L264.64 305.59L264.83 305.61L265.01 305.63L265.19 305.66L265.37 305.7L265.55 305.74L265.73 305.78L265.91 305.83L266.08 305.89L266.25 305.95L266.42 306.01L266.59 306.08L266.76 306.15L266.92 306.23L267.08 306.31L267.24 306.4L267.4 306.49L267.55 306.59L267.7 306.69L267.85 306.79L267.99 306.9L268.14 307.01L268.27 307.13L268.41 307.25L268.54 307.38L268.67 307.5L268.8 307.64L268.92 307.77L269.03 307.91L269.15 308.06L269.26 308.2L269.36 308.35L269.47 308.51L269.56 308.66L269.66 308.82L269.75 308.99L269.83 309.15L269.91 309.32L269.99 309.5L270.06 309.67L270.12 309.85L270.18 310.02L270.23 310.2L270.28 310.38L270.33 310.56L270.36 310.74L270.4 310.92L270.42 311.1L270.45 311.28L270.46 311.46L270.47 311.64L270.48 311.82L270.48 312L270.48 312.18L270.47 312.37L270.46 312.55L270.44 312.73L270.41 312.9L270.38 313.08L270.35 313.26L270.31 313.44L270.27 313.61L270.22 313.79L270.16 313.96L270.1 314.13L270.04 314.3L269.97 314.47L269.9 314.64L269.82 314.8L269.73 314.97L269.65 315.13L269.55 315.29L269.45 315.44L269.35 315.6L269.24 315.75L269.13 315.9L269.01 316.04L268.89 316.19L251.82 335.63L304.09 392.78L258.12 265.98L257.63 266.37L257.13 266.75ZM423.63 364.81L422.35 365.19L421.13 365.7L419.98 366.35L418.92 367.11L417.95 367.98L417.08 368.95L416.32 370.01L415.68 371.15L415.16 372.37L414.78 373.65L414.55 374.99L414.47 376.37L414.55 377.75L414.78 379.09L415.16 380.37L415.68 381.59L416.32 382.73L417.08 383.8L417.95 384.77L418.92 385.64L419.98 386.4L421.13 387.04L422.35 387.56L423.63 387.94L424.96 388.17L426.35 388.25L427.73 388.17L429.07 387.94L430.35 387.56L431.57 387.04L432.71 386.4L433.77 385.64L434.74 384.77L435.61 383.8L436.37 382.73L437.02 381.59L437.53 380.37L437.91 379.09L438.15 377.75L438.23 376.37L438.15 374.99L437.91 373.65L437.53 372.37L437.02 371.15L436.37 370.01L435.61 368.94L434.74 367.97L433.77 367.1L432.71 366.34L431.57 365.7L430.35 365.19L429.07 364.81L427.73 364.57L426.35 364.49L424.96 364.57L423.63 364.81ZM365.94 274.12L365.9 274.15L365.87 274.18L365.84 274.21L365.8 274.24L365.77 274.27L365.73 274.3L365.7 274.33L365.67 274.36L365.63 274.38L365.56 274.44L365.53 274.47L365.5 274.5L365.46 274.53L365.43 274.56L365.4 274.59L365.36 274.62L365.33 274.65L365.29 274.68L365.26 274.7L365.22 274.73L365.19 274.76L365.15 274.79L365.12 274.82L365.08 274.84L365.05 274.87L364.25 275.48L363.45 276.08L362.64 276.66L361.84 277.23L361.03 277.8L360.22 278.35L359.41 278.89L358.6 279.41L357.78 279.93L356.97 280.43L356.15 280.93L355.33 281.41L354.51 281.88L353.69 282.34L352.86 282.79L352.04 283.22L351.21 283.65L350.39 284.06L349.56 284.46L348.73 284.85L347.9 285.23L347.07 285.6L346.24 285.95L345.41 286.3L344.58 286.63L343.74 286.96L342.91 287.27L342.08 287.56L345.34 304.9L345.4 305.22L345.43 305.54L345.45 305.87L345.45 306.19L345.44 306.51L345.41 306.82L345.37 307.14L345.31 307.44L345.23 307.75L345.14 308.05L345.04 308.34L344.92 308.63L344.79 308.91L344.65 309.19L344.49 309.46L344.32 309.72L344.14 309.97L343.94 310.21L343.73 310.45L343.51 310.67L343.28 310.89L343.04 311.09L342.79 311.28L342.52 311.46L342.25 311.63L341.96 311.78L341.67 311.92L341.37 312.05L341.26 312.09L341.15 312.13L341.04 312.17L340.93 312.22L340.81 312.26L340.7 312.31L340.58 312.35L340.46 312.4L340.34 312.44L340.22 312.49L340.09 312.54L339.96 312.59L339.83 312.64L339.7 312.69L339.57 312.74L339.44 312.79L339.3 312.84L339.17 312.89L339.03 312.94L338.89 312.99L338.75 313.05L338.6 313.1L338.46 313.16L338.31 313.21L338.17 313.26L338.02 313.32L337.87 313.38L337.72 313.43L345.06 334.07L366.01 274.07L365.97 274.1L365.94 274.12ZM302.55 313.85L302.36 313.77L302.18 313.69L302 313.61L301.81 313.54L301.64 313.46L301.46 313.39L301.28 313.31L301.11 313.24L300.94 313.17L300.77 313.09L300.6 313.02L300.44 312.95L300.28 312.88L300.12 312.81L299.96 312.74L299.81 312.68L299.66 312.61L299.51 312.54L299.36 312.48L299.22 312.41L299.08 312.35L298.94 312.29L298.8 312.23L298.67 312.17L298.54 312.11L298.42 312.06L298.3 312L298 311.86L297.72 311.71L297.44 311.54L297.18 311.36L296.93 311.17L296.69 310.96L296.46 310.75L296.24 310.52L296.03 310.29L295.84 310.05L295.65 309.79L295.48 309.53L295.33 309.27L295.18 308.99L295.05 308.71L294.94 308.42L294.84 308.13L294.75 307.83L294.67 307.52L294.62 307.21L294.57 306.9L294.55 306.59L294.53 306.27L294.54 305.95L294.56 305.63L294.59 305.31L294.65 304.98L297.97 287.32L296.99 286.97L296.03 286.62L295.09 286.25L294.17 285.88L293.26 285.5L292.38 285.12L291.51 284.73L290.66 284.33L289.82 283.93L289 283.52L288.2 283.11L287.42 282.7L286.65 282.28L285.9 281.87L285.17 281.45L284.45 281.03L283.74 280.62L283.05 280.2L282.38 279.79L281.72 279.38L281.07 278.97L280.44 278.57L279.83 278.17L279.22 277.77L278.63 277.39L278.06 277L277.49 276.63L276.75 276.13L276.67 276.08L276.6 276.03L276.53 275.99L276.46 275.93L276.39 275.88L276.33 275.83L276.26 275.78L276.19 275.73L276.12 275.68L276.05 275.62L275.99 275.57L275.92 275.52L275.86 275.46L275.79 275.41L275.66 275.3L275.59 275.25L275.52 275.19L275.46 275.14L275.39 275.09L275.32 275.03L275.26 274.98L275.19 274.93L275.12 274.88L275.05 274.83L274.98 274.77L274.91 274.72L296.01 332.9L302.55 313.85ZM308.53 302.45L308.88 302.6L309.24 302.74L309.59 302.88L309.94 303.01L310.29 303.15L310.63 303.28L310.97 303.41L311.31 303.54L311.64 303.66L311.97 303.78L312.3 303.9L312.62 304.02L312.63 304.02L312.64 304.03L312.67 304.04L312.68 304.04L312.69 304.04L312.71 304.05L312.72 304.05L312.74 304.06L312.76 304.07L312.78 304.07L312.8 304.08L312.82 304.09L312.83 304.09L312.85 304.1L312.87 304.11L312.89 304.11L312.91 304.12L312.92 304.13L313.54 304.35L314.13 304.55L314.7 304.74L315.25 304.92L315.77 305.08L316.26 305.23L316.72 305.36L317.14 305.48L317.53 305.58L317.89 305.66L318.2 305.72L318.47 305.76L318.7 305.78L319.16 305.74L319.75 305.64L320.46 305.49L321.28 305.29L322.2 305.04L323.2 304.76L324.29 304.44L325.44 304.08L326.64 303.7L327.89 303.29L329.17 302.86L330.46 302.42L331.77 301.96L329.63 290.61L329.03 290.69L328.43 290.77L327.83 290.84L327.23 290.91L326.64 290.97L326.04 291.02L325.45 291.07L324.85 291.11L324.26 291.15L323.66 291.18L323.07 291.2L322.48 291.21L321.88 291.22L320.93 291.21L319.99 291.19L319.07 291.16L318.15 291.11L317.25 291.06L316.37 291L315.49 290.92L314.62 290.84L313.77 290.75L312.92 290.65L312.08 290.54L311.25 290.43L310.43 290.31L308.17 302.31L308.53 302.45ZM243.15 110.58L242.92 112.13L242.69 113.72L242.47 115.33L242.26 116.97L242.06 118.63L241.87 120.32L241.69 122.02L241.51 123.74L241.34 125.47L241.18 127.21L241.02 128.95L240.88 130.7L240.74 132.45L240.61 134.2L240.48 135.94L240.37 137.67L240.25 139.39L240.15 141.1L240.05 142.79L239.96 144.46L239.87 146.11L239.79 147.73L239.72 149.33L239.65 150.89L239.59 152.42L239.54 153.91L239.49 155.36L239.44 156.77L239.4 158.13L239.36 159.45L239.33 160.71L239.31 161.91L239.29 163.06L239.27 164.15L239.26 165.17L239.25 166.13L239.25 167.02L239.25 167.84L239.26 168.58L239.28 169.47L239.31 170.35L239.36 171.22L239.42 172.08L239.49 172.92L239.57 173.74L239.66 174.56L239.76 175.36L239.87 176.14L239.99 176.91L240.13 177.66L240.27 178.4L240.42 179.13L240.57 179.83L240.74 180.52L240.91 181.2L241.1 181.86L241.28 182.5L241.48 183.12L241.68 183.72L241.89 184.31L242.1 184.88L242.32 185.43L242.55 185.96L242.78 186.47L243.01 186.96L243.25 187.43L243.49 187.89L243.74 188.32L243.98 188.73L244.23 189.12L244.49 189.49L244.74 189.84L245 190.17L245.26 190.47L245.52 190.75L245.78 191.01L246.04 191.25L246.3 191.46L246.56 191.65L248.05 192.68L248.21 192.79L248.37 192.9L248.52 193.02L248.67 193.13L248.82 193.25L248.96 193.38L249.11 193.5L249.25 193.63L249.39 193.76L249.52 193.9L249.65 194.03L249.78 194.17L249.91 194.31L250.04 194.46L250.16 194.6L250.28 194.75L250.39 194.9L250.51 195.05L250.62 195.2L250.73 195.36L250.83 195.51L250.93 195.67L251.03 195.84L251.13 196L251.22 196.16L251.31 196.33L251.4 196.5L251.48 196.67L251.56 196.84L251.64 197.01L251.72 197.19L251.79 197.37L251.85 197.54L251.92 197.72L251.98 197.9L252.04 198.09L252.09 198.27L252.14 198.46L252.19 198.64L252.24 198.83L252.64 200.59L252.67 200.69L252.73 200.95L252.83 201.34L252.96 201.87L253.14 202.52L253.35 203.3L253.6 204.19L253.89 205.19L254.22 206.3L254.6 207.5L255.01 208.8L255.47 210.18L255.97 211.64L256.52 213.17L257.11 214.77L257.74 216.43L258.42 218.15L259.14 219.92L259.92 221.73L260.74 223.57L261.61 225.45L262.52 227.36L263.49 229.28L264.5 231.22L265.57 233.16L266.69 235.11L267.86 237.05L269.08 238.98L270.36 240.89L271.69 242.78L273.07 244.64L274.51 246.46L276 248.25L277.55 249.99L279.16 251.67L280.83 253.3L282.55 254.86L284.33 256.35L286.17 257.76L288.07 259.09L288.83 259.59L289.42 259.99L290.02 260.38L290.62 260.78L291.23 261.18L291.84 261.57L292.46 261.97L293.08 262.36L293.72 262.76L294.36 263.15L295.01 263.54L295.67 263.92L296.35 264.3L297.03 264.68L297.73 265.05L298.43 265.42L299.16 265.77L299.89 266.12L300.64 266.47L301.4 266.8L302.18 267.13L302.97 267.44L303.78 267.75L304.61 268.04L305.46 268.32L306.32 268.59L307.2 268.85L308.1 269.09L309.03 269.32L309.97 269.53L310.93 269.73L311.92 269.92L312.93 270.08L313.96 270.23L315.01 270.36L316.09 270.48L317.2 270.57L318.33 270.64L319.48 270.7L320.66 270.73L321.87 270.74L322.8 270.73L323.72 270.69L324.63 270.63L325.54 270.55L326.44 270.45L327.34 270.32L328.23 270.18L329.12 270.01L329.99 269.83L330.87 269.63L331.73 269.41L332.59 269.17L333.44 268.92L334.28 268.65L335.11 268.37L335.94 268.07L336.75 267.76L337.56 267.44L338.36 267.11L339.15 266.76L339.93 266.41L340.7 266.04L341.46 265.67L342.2 265.28L342.94 264.9L343.67 264.5L344.39 264.1L345.09 263.69L345.78 263.28L346.46 262.86L347.13 262.44L347.79 262.02L348.43 261.6L349.06 261.17L349.68 260.75L350.28 260.32L350.87 259.9L351.44 259.48L352 259.06L352.55 258.64L353.89 257.59L355.21 256.52L356.51 255.43L357.77 254.33L359.02 253.2L360.23 252.06L361.42 250.9L362.59 249.72L363.73 248.52L364.85 247.3L365.94 246.07L367.01 244.81L368.06 243.53L369.08 242.24L370.07 240.92L371.04 239.58L371.99 238.22L372.92 236.83L373.82 235.43L374.7 234.01L375.55 232.56L376.39 231.09L377.2 229.6L377.99 228.08L378.75 226.54L379.49 224.98L380.21 223.39L380.91 221.78L381.59 220.15L382.25 218.49L382.88 216.81L383.49 215.1L384.08 213.36L384.65 211.6L385.2 209.82L385.73 208.01L386.24 206.17L386.73 204.31L387.2 202.42L387.65 200.5L387.68 200.34L387.72 200.19L387.76 200.03L387.81 199.88L387.85 199.72L387.9 199.57L387.95 199.42L388.01 199.27L388.06 199.12L388.12 198.97L388.18 198.82L388.24 198.68L388.31 198.53L388.37 198.39L388.44 198.24L388.51 198.1L388.59 197.96L388.66 197.82L388.74 197.68L388.82 197.54L388.9 197.41L388.99 197.27L389.07 197.14L389.16 197.01L389.25 196.88L389.34 196.75L389.44 196.62L389.53 196.49L389.63 196.37L389.73 196.25L389.83 196.12L389.94 196L390.04 195.88L390.15 195.77L390.26 195.65L390.37 195.54L390.49 195.42L390.6 195.31L390.72 195.2L390.84 195.1L394.76 191.63L394.78 191.61L394.8 191.59L394.82 191.57L394.84 191.55L394.86 191.53L394.88 191.51L394.91 191.49L394.93 191.48L394.95 191.46L394.97 191.44L394.99 191.42L395.01 191.4L395.04 191.38L395.06 191.36L395.08 191.35L395.1 191.33L395.12 191.31L395.15 191.29L395.17 191.28L395.19 191.26L395.21 191.24L395.24 191.22L395.26 191.2L395.28 191.19L395.3 191.17L395.33 191.15L395.35 191.14L395.37 191.12L395.39 191.1L395.42 191.08L395.44 191.07L395.46 191.05L395.49 191.03L395.51 191.02L395.53 191L395.55 190.98L395.58 190.97L395.6 190.95L395.62 190.94L395.65 190.92L397.09 189.9L397.4 189.67L397.7 189.41L397.99 189.12L398.26 188.81L398.53 188.48L398.79 188.12L399.03 187.73L399.27 187.33L399.5 186.89L399.71 186.43L399.92 185.95L400.11 185.45L400.3 184.91L400.47 184.36L400.64 183.78L400.79 183.17L400.93 182.54L401.07 181.89L401.19 181.21L401.3 180.51L401.4 179.78L401.5 179.03L401.58 178.26L401.65 177.46L401.71 176.63L401.76 175.79L401.8 174.91L401.83 174.02L401.85 173.1L401.85 172.15L401.85 171.19L401.84 170.19L401.82 169.18L401.78 168.14L401.74 167.07L401.68 165.98L401.62 164.87L401.54 163.74L401.46 162.58L401.36 161.39L401.17 159.02L401.08 157.84L400.98 156.65L400.87 155.45L400.76 154.25L400.64 153.03L400.52 151.8L400.39 150.57L400.26 149.33L400.12 148.08L399.98 146.82L399.83 145.56L399.68 144.3L399.52 143.03L399.36 141.75L399.19 140.48L399.02 139.2L398.84 137.91L398.65 136.63L398.47 135.34L398.27 134.06L398.07 132.77L397.87 131.49L397.66 130.2L397.45 128.92L397.24 127.64L397.01 126.36L396.79 125.09L396.56 123.81L396.32 122.55L396.08 121.29L395.84 120.03L395.59 118.78L395.33 117.54L395.08 116.3L394.82 115.07L394.55 113.85L394.28 112.64L394 111.44L393.72 110.25L393.44 109.07L359.93 109.07L359.67 110.62L359.35 112.15L358.98 113.66L358.56 115.15L358.09 116.62L357.56 118.06L356.99 119.48L356.37 120.88L355.7 122.25L354.99 123.59L354.23 124.9L353.43 126.19L352.58 127.44L351.69 128.66L350.76 129.85L349.79 131L348.79 132.12L347.74 133.21L346.66 134.26L345.54 135.26L344.39 136.24L343.2 137.17L341.98 138.06L340.73 138.9L339.44 139.71L338.13 140.47L336.79 141.18L335.43 141.85L334.03 142.47L332.61 143.04L331.17 143.57L329.7 144.04L328.21 144.46L326.7 144.83L325.17 145.14L323.62 145.4L322.05 145.6L320.47 145.75L318.87 145.84L317.25 145.87L315.63 145.84L314.03 145.75L312.45 145.6L310.88 145.4L309.33 145.14L307.8 144.83L306.29 144.46L304.8 144.04L303.33 143.57L301.89 143.04L300.47 142.47L299.08 141.85L297.71 141.18L296.37 140.47L295.06 139.71L293.77 138.9L292.52 138.06L291.3 137.17L290.12 136.24L288.96 135.26L287.84 134.26L286.76 133.21L285.71 132.12L284.71 131L283.74 129.85L282.81 128.66L281.92 127.44L281.07 126.19L280.27 124.9L279.51 123.59L278.8 122.25L278.13 120.88L277.51 119.48L276.94 118.06L276.41 116.62L275.94 115.15L275.52 113.66L275.15 112.15L274.84 110.62L274.58 109.07L243.39 109.07L243.15 110.58ZM314.64 72.38L313.35 72.51L312.08 72.7L310.82 72.95L309.59 73.24L308.38 73.59L307.18 73.98L306.01 74.42L304.86 74.91L303.74 75.44L302.64 76.01L301.57 76.63L300.53 77.29L299.51 77.99L298.53 78.73L297.57 79.51L296.65 80.33L295.77 81.18L294.92 82.07L294.1 82.99L293.32 83.94L292.58 84.92L291.88 85.94L291.22 86.98L290.6 88.05L290.03 89.15L289.5 90.27L289.01 91.42L288.57 92.59L288.18 93.79L287.83 95L287.54 96.24L287.29 97.49L287.1 98.76L286.96 100.05L286.88 101.35L286.85 102.67L286.88 103.98L286.96 105.29L287.1 106.57L287.29 107.84L287.54 109.1L287.83 110.33L288.18 111.55L288.57 112.74L289.01 113.91L289.5 115.06L290.03 116.18L290.6 117.28L291.22 118.35L291.88 119.4L292.58 120.41L293.32 121.39L294.1 122.35L294.92 123.27L295.77 124.15L296.65 125.01L297.57 125.82L298.53 126.6L299.51 127.34L300.53 128.04L301.57 128.7L302.64 129.32L303.74 129.9L304.86 130.43L306.01 130.91L307.18 131.35L308.38 131.75L309.59 132.09L310.82 132.38L312.08 132.63L313.35 132.82L314.64 132.96L315.94 133.04L317.26 133.07L318.57 133.04L319.87 132.96L321.16 132.82L322.43 132.63L323.69 132.38L324.92 132.09L326.14 131.75L327.33 131.35L328.5 130.91L329.65 130.43L330.77 129.9L331.87 129.32L332.94 128.7L333.99 128.04L335 127.34L335.98 126.6L336.94 125.82L337.86 125.01L338.74 124.15L339.59 123.27L340.41 122.35L341.19 121.39L341.93 120.41L342.63 119.4L343.29 118.35L343.91 117.28L344.48 116.18L345.02 115.06L345.5 113.91L345.94 112.74L346.34 111.55L346.68 110.33L346.97 109.1L347.22 107.84L347.41 106.57L347.55 105.29L347.63 103.98L347.66 102.67L347.63 101.35L347.55 100.05L347.41 98.76L347.22 97.49L346.97 96.24L346.68 95L346.34 93.79L345.94 92.59L345.5 91.42L345.02 90.27L344.48 89.15L343.91 88.05L343.29 86.98L342.63 85.94L341.93 84.92L341.19 83.94L340.41 82.99L339.59 82.07L338.74 81.18L337.86 80.33L336.94 79.51L335.98 78.73L335 77.99L333.99 77.29L332.94 76.63L331.87 76.01L330.77 75.44L329.65 74.91L328.5 74.42L327.33 73.98L326.14 73.59L324.92 73.24L323.69 72.95L322.43 72.7L321.16 72.51L319.87 72.38L318.57 72.29L317.26 72.26L315.94 72.29L314.64 72.38ZM322.84 51.16L322.12 51.23L321.41 51.31L320.71 51.4L320.03 51.5L319.35 51.6L318.69 51.72L318.04 51.84L317.4 51.98L316.78 52.11L316.17 52.26L315.58 52.41L315 52.56L314.43 52.72L313.88 52.88L313.35 53.04L312.83 53.2L312.33 53.37L311.84 53.53L311.37 53.7L310.92 53.86L310.49 54.03L310.08 54.19L309.68 54.34L309.31 54.5L308.95 54.65L308.61 54.8L308.3 54.94L308 55.07L307.73 55.2L307.47 55.32L307.24 55.43L307.03 55.53L306.85 55.63L306.68 55.71L306.54 55.78L306.43 55.85L306.34 55.9L306.27 55.93L306.22 55.96L306.21 55.97L306.07 56.04L305.94 56.12L305.8 56.19L305.66 56.26L305.52 56.33L305.38 56.4L305.24 56.46L305.1 56.53L304.95 56.59L304.81 56.65L304.66 56.7L304.52 56.76L304.37 56.81L304.22 56.86L304.07 56.9L303.92 56.95L303.77 56.99L303.62 57.03L303.47 57.07L303.32 57.11L303.17 57.14L303.01 57.17L302.86 57.2L302.71 57.23L302.55 57.26L302.4 57.28L302.24 57.3L302.09 57.32L301.93 57.33L301.78 57.35L301.62 57.36L301.47 57.37L301.31 57.37L301.15 57.38L301 57.38L300.84 57.38L300.68 57.38L300.53 57.37L300.37 57.36L300.22 57.35L300.21 57.35L300.19 57.35L300.16 57.35L300.11 57.35L300.06 57.34L300 57.34L299.93 57.33L299.85 57.33L299.76 57.32L299.66 57.32L299.55 57.31L299.43 57.3L299.3 57.3L299.17 57.29L299.02 57.28L298.87 57.27L298.71 57.26L298.54 57.26L298.36 57.25L298.18 57.24L297.99 57.23L297.79 57.22L297.58 57.21L297.36 57.21L297.14 57.2L296.91 57.19L296.68 57.18L296.44 57.18L296.19 57.17L295.93 57.16L295.67 57.16L295.41 57.15L295.14 57.15L294.86 57.14L294.57 57.14L294.29 57.14L293.99 57.13L293.69 57.13L293.39 57.13L293.08 57.13L292.8 57.13L292.52 57.13L292.24 57.13L291.95 57.13L291.65 57.14L291.36 57.14L291.06 57.15L290.76 57.15L290.45 57.16L290.15 57.17L289.84 57.18L289.53 57.19L289.21 57.2L288.9 57.21L288.58 57.22L288.26 57.23L287.94 57.25L287.62 57.27L287.29 57.28L286.97 57.3L286.64 57.32L286.31 57.34L285.98 57.37L285.65 57.39L285.32 57.42L284.99 57.44L284.66 57.47L284.33 57.5L284 57.53L283.66 57.56L283.33 57.6L283 57.63L282.66 57.67L282.33 57.71L282 57.75L281.67 57.79L281.33 57.84L281 57.88L280.67 57.93L280.35 57.98L279.42 58.14L278.5 58.34L277.58 58.57L276.68 58.84L275.78 59.14L274.89 59.48L274.01 59.86L273.13 60.27L272.26 60.72L271.39 61.21L270.53 61.73L269.68 62.3L268.83 62.9L267.99 63.54L267.15 64.22L266.32 64.94L265.49 65.69L264.66 66.49L263.84 67.33L263.02 68.2L262.21 69.12L261.4 70.07L260.59 71.07L259.79 72.11L258.99 73.19L258.19 74.31L257.39 75.47L256.6 76.68L255.8 77.93L255.01 79.22L254.22 80.55L253.43 81.92L252.64 83.34L251.85 84.81L251.06 86.31L250.27 87.86L249.49 89.46L248.7 91.1L247.91 92.78L247.12 94.51L247.1 94.55L247.08 94.59L247.07 94.63L247.05 94.67L247.03 94.71L247.01 94.75L247 94.79L246.98 94.83L246.96 94.87L246.95 94.92L246.93 94.96L246.91 95L246.9 95.05L246.88 95.09L246.86 95.13L246.85 95.18L246.83 95.22L246.82 95.27L246.8 95.31L246.78 95.35L246.77 95.4L246.75 95.45L246.73 95.49L246.72 95.54L246.7 95.58L246.69 95.63L246.67 95.67L246.65 95.72L246.62 95.81L246.6 95.85L246.59 95.9L246.57 95.95L246.55 95.99L246.54 96.04L246.52 96.08L246.51 96.13L246.49 96.17L246.47 96.22L246.46 96.26L274.58 96.26L274.84 94.71L275.16 93.18L275.53 91.67L275.95 90.18L276.42 88.71L276.94 87.27L277.51 85.84L278.13 84.45L278.8 83.08L279.52 81.74L280.28 80.43L281.08 79.14L281.92 77.89L282.81 76.67L283.74 75.48L284.71 74.32L285.72 73.2L286.77 72.12L287.85 71.07L288.97 70.06L290.12 69.09L291.31 68.16L292.53 67.27L293.78 66.42L295.06 65.62L296.37 64.86L297.71 64.15L299.08 63.48L300.48 62.86L301.89 62.29L303.34 61.76L304.81 61.29L306.29 60.87L307.81 60.5L309.34 60.19L310.89 59.93L312.45 59.72L314.04 59.58L315.64 59.49L317.26 59.46L318.87 59.49L320.47 59.58L322.06 59.72L323.63 59.93L325.18 60.19L326.71 60.5L328.22 60.87L329.71 61.29L331.17 61.76L332.62 62.29L334.04 62.86L335.43 63.48L336.8 64.15L338.14 64.86L339.45 65.62L340.73 66.42L341.98 67.27L343.2 68.16L344.39 69.09L345.54 70.06L346.66 71.07L347.75 72.12L348.79 73.2L349.8 74.32L350.77 75.48L351.7 76.67L352.59 77.89L353.43 79.14L354.24 80.43L355 81.74L355.71 83.08L356.38 84.45L357 85.84L357.57 87.27L358.09 88.71L358.57 90.18L358.99 91.67L359.35 93.18L359.67 94.71L359.93 96.26L389.85 96.26L389.71 95.86L389.58 95.46L389.44 95.06L389.31 94.66L389.17 94.27L389.03 93.88L388.9 93.49L388.76 93.11L388.62 92.73L388.48 92.35L388.34 91.98L388.2 91.61L388.06 91.24L387.92 90.88L387.77 90.52L387.63 90.16L387.49 89.8L387.34 89.45L387.2 89.11L387.05 88.76L386.91 88.42L386.76 88.09L386.61 87.76L386.47 87.43L386.32 87.1L386.17 86.78L386.02 86.46L385.87 86.15L385.72 85.84L385.57 85.54L385.42 85.24L385.26 84.94L385.11 84.65L384.96 84.36L384.8 84.07L384.65 83.79L384.49 83.52L384.34 83.24L384.18 82.98L384.03 82.71L382.96 81.02L381.84 79.38L380.66 77.79L379.42 76.24L378.14 74.74L376.8 73.29L375.42 71.88L374 70.52L372.53 69.21L371.03 67.94L369.5 66.73L367.93 65.55L366.33 64.43L364.71 63.35L363.06 62.31L361.4 61.33L359.72 60.38L358.02 59.49L356.31 58.64L354.59 57.83L352.87 57.07L351.14 56.36L349.42 55.69L347.7 55.07L345.98 54.49L344.27 53.96L342.57 53.47L340.89 53.03L339.22 52.63L337.58 52.27L335.95 51.96L334.35 51.7L332.79 51.48L331.25 51.3L329.74 51.17L328.28 51.08L326.85 51.03L325.47 51.03L324.13 51.07L322.84 51.16Z" id="a3pclBxVY2"></path></defs><g><g><use xlink:href="#a3pclBxVY2" opacity="1" fill="#000000" fill-opacity="1"></use><g><use xlink:href="#a3pclBxVY2" opacity="1" fill-opacity="0" stroke="#000000" stroke-width="1" stroke-opacity="0"></use></g></g></g></svg>