<?xml version="1.0" encoding="UTF-8" standalone="no"?>
<!DOCTYPE svg PUBLIC "-//W3C//DTD SVG 1.1//EN" "http://www.w3.org/Graphics/SVG/1.1/DTD/svg11.dtd">
<svg version="1.1" xmlns="http://www.w3.org/2000/svg" xmlns:xlink="http://www.w3.org/1999/xlink" preserveAspectRatio="xMidYMid meet" viewBox="63 -1 128.99999999999994 129" width="125" height="125"><defs><path d="M114.6 0.01L114.71 0.02L114.82 0.03L114.93 0.05L115.03 0.07L115.14 0.09L115.24 0.12L115.34 0.15L115.43 0.19L115.53 0.23L115.62 0.27L115.71 0.31L115.79 0.36L115.88 0.41L115.96 0.47L116.04 0.52L116.11 0.59L116.19 0.65L116.26 0.72L116.32 0.79L116.39 0.86L116.45 0.93L116.51 1.01L116.56 1.09L116.61 1.18L116.66 1.26L116.71 1.35L116.75 1.44L116.79 1.54L116.82 1.63L116.85 1.73L116.88 1.83L116.91 1.94L116.93 2.04L116.94 2.15L116.96 2.26L116.97 2.37L116.97 2.49L116.97 2.6L116.97 4.95L129.76 4.95L129.94 4.95L130.11 4.96L130.29 4.97L130.46 4.99L130.64 5.01L130.81 5.03L130.99 5.07L131.16 5.1L131.33 5.14L131.51 5.19L131.68 5.24L131.85 5.29L132.01 5.35L132.18 5.42L132.35 5.48L132.51 5.56L132.67 5.63L132.84 5.72L133 5.8L133.15 5.89L133.31 5.99L133.46 6.09L133.61 6.19L133.76 6.3L133.91 6.41L134.05 6.53L134.2 6.65L134.33 6.77L134.47 6.9L134.6 7.04L134.74 7.17L134.86 7.31L134.99 7.46L135.11 7.61L135.23 7.76L135.34 7.92L135.45 8.08L135.56 8.25L135.66 8.42L135.76 8.59L135.86 8.75L135.95 8.91L136.03 9.08L136.11 9.24L136.18 9.41L136.25 9.58L136.31 9.75L136.36 9.92L136.41 10.1L136.46 10.28L136.49 10.46L136.53 10.64L136.56 10.82L136.58 11L136.6 11.18L136.61 11.37L136.62 11.55L136.62 11.74L136.62 11.92L136.61 12.11L136.6 12.29L136.58 12.48L136.56 12.67L136.53 12.85L136.5 13.03L136.47 13.22L136.43 13.4L136.38 13.58L136.33 13.76L136.28 13.94L136.22 14.12L136.16 14.29L136.09 14.47L136.02 14.64L135.94 14.81L135.86 14.98L135.78 15.14L135.69 15.31L135.6 15.47L135.5 15.63L109.93 55.21L109.87 55.31L109.81 55.4L109.74 55.49L109.68 55.58L109.61 55.67L109.54 55.76L109.47 55.85L109.4 55.93L109.33 56.01L109.25 56.09L109.17 56.17L109.1 56.25L109.02 56.32L108.94 56.4L108.85 56.47L108.77 56.54L108.69 56.61L108.6 56.67L108.52 56.74L108.43 56.8L108.34 56.87L108.25 56.93L108.16 56.99L108.07 57.05L107.98 57.1L107.88 57.16L107.79 57.21L107.7 57.27L107.6 57.32L107.51 57.37L107.41 57.42L107.31 57.47L107.22 57.51L107.12 57.56L107.02 57.6L106.93 57.65L106.83 57.69L106.73 57.73L106.63 57.77L106.54 57.81L106.54 82.55L149.33 82.55L149.44 81.81L149.58 81.09L149.74 80.37L149.93 79.66L150.14 78.96L150.38 78.27L150.64 77.6L150.92 76.94L151.22 76.29L151.55 75.65L151.9 75.03L152.27 74.42L152.66 73.83L153.07 73.25L153.5 72.68L153.95 72.14L154.41 71.6L154.9 71.09L155.4 70.6L155.92 70.12L156.46 69.66L157.01 69.22L157.58 68.8L158.16 68.4L158.76 68.02L159.37 67.66L160 67.32L160.64 67L161.29 66.71L161.96 66.44L162.63 66.19L163.32 65.97L164.02 65.77L164.73 65.6L165.44 65.45L166.17 65.33L166.91 65.23L167.65 65.16L168.41 65.12L169.16 65.1L170 65.12L170.83 65.17L171.65 65.26L172.45 65.37L173.25 65.52L174.03 65.7L174.8 65.9L175.56 66.14L176.31 66.41L177.03 66.7L177.75 67.03L178.45 67.38L179.13 67.75L179.79 68.15L180.44 68.58L181.07 69.03L181.68 69.5L182.27 70L182.84 70.52L183.39 71.06L183.91 71.62L184.42 72.21L184.9 72.81L185.36 73.43L185.8 74.07L186.21 74.73L186.59 75.4L186.95 76.09L187.28 76.8L187.59 77.52L187.86 78.25L188.11 79L188.33 79.77L188.52 80.54L188.68 81.33L188.81 82.13L188.9 82.94L188.97 83.75L189 84.58L189 85.42L188.98 86.25L188.93 87.08L188.85 87.89L188.73 88.7L188.58 89.49L188.41 90.28L188.2 91.05L187.96 91.8L187.69 92.55L187.4 93.27L187.08 93.99L186.73 94.69L186.35 95.37L185.95 96.03L185.53 96.68L185.08 97.31L184.61 97.92L184.11 98.52L183.6 99.09L183.06 99.64L182.5 100.17L181.92 100.68L181.33 101.17L180.71 101.64L180.08 102.08L179.43 102.49L178.76 102.89L178.08 103.25L177.38 103.6L176.67 103.91L175.94 104.2L175.2 104.46L174.45 104.69L173.69 104.89L172.91 105.07L172.13 105.21L171.34 105.32L170.53 105.4L169.72 105.45L168.9 105.47L168.14 105.45L167.39 105.41L166.65 105.34L165.91 105.25L165.18 105.12L164.47 104.98L163.76 104.8L163.06 104.6L162.37 104.38L161.7 104.13L161.03 103.86L160.38 103.57L159.74 103.25L159.11 102.92L158.5 102.56L157.9 102.18L157.32 101.78L156.75 101.36L156.2 100.92L155.66 100.46L155.14 99.98L154.64 99.48L154.15 98.97L153.69 98.44L153.24 97.89L152.81 97.33L152.4 96.75L152.01 96.15L151.64 95.54L151.29 94.92L150.96 94.29L150.66 93.64L150.38 92.97L150.12 92.3L149.88 91.61L149.67 90.91L149.48 90.21L149.32 89.49L149.18 88.76L149.07 88.02L106.27 88.02L106.27 103.91L106.26 104.76L106.21 105.61L106.12 106.45L106 107.28L105.85 108.1L105.66 108.91L105.45 109.71L105.2 110.5L104.93 111.27L104.62 112.04L104.29 112.78L103.93 113.52L103.54 114.23L103.12 114.93L102.68 115.62L102.22 116.28L101.73 116.93L101.21 117.56L100.67 118.16L100.11 118.75L99.53 119.32L98.92 119.86L98.3 120.38L97.65 120.88L96.99 121.35L96.3 121.79L95.6 122.21L94.88 122.61L94.15 122.98L93.39 123.32L92.63 123.63L91.84 123.91L91.05 124.16L90.24 124.38L89.42 124.56L88.58 124.72L87.74 124.84L86.88 124.93L86.01 124.98L85.14 125L84.28 124.98L83.43 124.93L82.59 124.84L81.76 124.72L80.93 124.56L80.12 124.38L79.32 124.16L78.53 123.9L77.75 123.62L76.99 123.31L76.24 122.97L75.51 122.6L74.79 122.21L74.09 121.78L73.4 121.33L72.74 120.86L72.09 120.36L71.46 119.83L70.85 119.29L70.26 118.72L69.7 118.13L69.15 117.51L68.63 116.88L68.13 116.23L67.66 115.55L67.21 114.86L66.79 114.15L66.4 113.43L66.03 112.68L65.69 111.93L65.38 111.15L65.1 110.37L64.85 109.57L64.63 108.75L64.44 107.93L64.28 107.09L64.16 106.24L64.07 105.39L64.02 104.52L64 103.65L64.02 102.79L64.07 101.94L64.16 101.1L64.27 100.27L64.43 99.45L64.61 98.64L64.83 97.84L65.07 97.05L65.35 96.28L65.65 95.52L65.98 94.77L66.35 94.04L66.73 93.32L67.15 92.62L67.59 91.94L68.06 91.27L68.55 90.62L69.07 90L69.6 89.39L70.17 88.8L70.75 88.24L71.35 87.69L71.98 87.17L72.62 86.68L73.29 86.21L73.97 85.76L74.67 85.34L75.39 84.94L76.13 84.58L76.88 84.24L77.65 83.93L78.43 83.65L79.23 83.4L80.04 83.18L80.86 82.99L81.69 82.83L82.54 82.71L83.39 82.62L84.26 82.57L85.14 82.55L101.58 82.55L101.58 57.55L101.48 57.51L101.38 57.47L101.29 57.43L101.19 57.38L101.1 57.33L101.01 57.28L100.92 57.23L100.83 57.18L100.74 57.13L100.65 57.07L100.56 57.02L100.47 56.96L100.39 56.9L100.3 56.84L100.22 56.77L100.14 56.71L100.06 56.65L99.97 56.58L99.89 56.51L99.82 56.45L99.74 56.38L99.66 56.31L99.59 56.24L99.51 56.16L99.44 56.09L99.36 56.02L99.29 55.95L99.22 55.87L99.15 55.8L99.08 55.72L99.01 55.65L98.95 55.57L98.88 55.49L98.82 55.41L98.75 55.34L98.69 55.26L98.63 55.18L98.57 55.1L98.51 55.03L98.45 54.95L72.87 15.36L72.76 15.21L72.65 15.05L72.55 14.89L72.45 14.72L72.36 14.56L72.27 14.39L72.19 14.23L72.12 14.06L72.05 13.89L71.99 13.72L71.93 13.54L71.88 13.37L71.83 13.2L71.79 13.02L71.76 12.84L71.73 12.66L71.7 12.49L71.69 12.31L71.67 12.13L71.67 11.95L71.66 11.77L71.67 11.58L71.67 11.4L71.69 11.22L71.71 11.04L71.73 10.86L71.76 10.67L71.8 10.49L71.84 10.31L71.88 10.13L71.93 9.95L71.99 9.76L72.05 9.58L72.11 9.4L72.18 9.22L72.26 9.04L72.34 8.86L72.43 8.69L72.52 8.51L72.61 8.33L72.69 8.16L72.78 7.99L72.87 7.82L72.96 7.66L73.06 7.5L73.17 7.35L73.27 7.2L73.39 7.05L73.5 6.91L73.62 6.77L73.75 6.64L73.88 6.51L74.01 6.39L74.14 6.27L74.28 6.15L74.42 6.04L74.57 5.93L74.72 5.83L74.87 5.73L75.03 5.63L75.18 5.54L75.34 5.45L75.51 5.37L75.67 5.3L75.84 5.22L76.01 5.15L76.19 5.09L76.36 5.03L76.54 4.98L76.72 4.93L76.9 4.88L77.09 4.84L77.27 4.81L77.46 4.77L77.65 4.75L77.84 4.73L78.03 4.71L78.22 4.7L78.42 4.69L78.61 4.69L91.14 4.69L91.14 2.6L91.14 2.49L91.15 2.37L91.16 2.26L91.17 2.15L91.19 2.04L91.21 1.94L91.23 1.83L91.26 1.73L91.29 1.63L91.33 1.54L91.37 1.44L91.41 1.35L91.45 1.26L91.5 1.18L91.55 1.09L91.61 1.01L91.66 0.93L91.73 0.86L91.79 0.79L91.86 0.72L91.93 0.65L92 0.59L92.08 0.52L92.15 0.47L92.24 0.41L92.32 0.36L92.41 0.31L92.49 0.27L92.59 0.23L92.68 0.19L92.78 0.15L92.88 0.12L92.98 0.09L93.08 0.07L93.19 0.05L93.3 0.03L93.41 0.02L93.52 0.01L93.63 0L93.75 0L93.87 0L93.98 0.01L94.09 0.02L94.2 0.03L94.31 0.05L94.42 0.07L94.52 0.09L94.62 0.12L94.72 0.15L94.82 0.19L94.91 0.23L95 0.27L95.09 0.31L95.18 0.36L95.26 0.41L95.34 0.47L95.42 0.52L95.5 0.59L95.57 0.65L95.64 0.72L95.71 0.79L95.77 0.86L95.83 0.93L95.89 1.01L95.95 1.09L96 1.18L96.05 1.26L96.09 1.35L96.13 1.44L96.17 1.54L96.21 1.63L96.24 1.73L96.27 1.83L96.29 1.94L96.31 2.04L96.33 2.15L96.34 2.26L96.35 2.37L96.36 2.49L96.36 2.6L96.36 12.24L96.36 12.36L96.35 12.47L96.34 12.58L96.33 12.69L96.31 12.8L96.29 12.91L96.27 13.01L96.24 13.11L96.21 13.21L96.17 13.31L96.13 13.4L96.09 13.49L96.05 13.58L96 13.67L95.95 13.75L95.89 13.83L95.83 13.91L95.77 13.99L95.71 14.06L95.64 14.13L95.57 14.19L95.5 14.26L95.42 14.32L95.34 14.38L95.26 14.43L95.18 14.48L95.09 14.53L95 14.58L94.91 14.62L94.82 14.66L94.72 14.69L94.62 14.72L94.52 14.75L94.42 14.78L94.31 14.8L94.2 14.81L94.09 14.83L93.98 14.84L93.87 14.84L93.75 14.84L93.63 14.84L93.52 14.84L93.41 14.83L93.3 14.81L93.19 14.8L93.08 14.78L92.98 14.75L92.88 14.72L92.78 14.69L92.68 14.66L92.59 14.62L92.49 14.58L92.41 14.53L92.32 14.48L92.24 14.43L92.15 14.38L92.08 14.32L92 14.26L91.93 14.19L91.86 14.13L91.79 14.06L91.73 13.99L91.66 13.91L91.61 13.83L91.55 13.75L91.5 13.67L91.45 13.58L91.41 13.49L91.37 13.4L91.33 13.31L91.29 13.21L91.26 13.11L91.23 13.01L91.21 12.91L91.19 12.8L91.17 12.69L91.16 12.58L91.15 12.47L91.14 12.36L91.14 12.24L91.14 10.16L78.61 10.16L78.54 10.16L78.46 10.16L78.39 10.16L78.32 10.17L78.26 10.18L78.19 10.19L78.13 10.2L78.07 10.21L78.02 10.23L77.97 10.24L77.91 10.26L77.86 10.28L77.82 10.29L77.77 10.31L77.73 10.33L77.69 10.36L77.65 10.38L77.61 10.4L77.57 10.43L77.54 10.45L77.5 10.47L77.47 10.5L77.44 10.52L77.41 10.55L77.38 10.58L77.36 10.6L77.33 10.63L77.3 10.65L77.28 10.68L77.26 10.71L77.23 10.73L77.21 10.76L77.19 10.78L77.17 10.81L77.15 10.83L77.13 10.85L77.11 10.87L77.09 10.9L77.07 10.92L77.05 10.94L77.05 10.96L77.05 10.98L77.04 11L77.04 11.02L77.04 11.05L77.03 11.07L77.03 11.1L77.02 11.13L77.02 11.16L77 11.22L77 11.25L76.99 11.28L76.99 11.32L76.98 11.35L76.97 11.39L76.97 11.43L76.96 11.47L76.96 11.51L76.95 11.56L76.95 11.6L76.94 11.65L76.94 11.69L76.94 11.74L76.93 11.79L76.93 11.85L76.93 11.9L76.93 11.96L76.93 12.01L76.94 12.07L76.94 12.13L76.95 12.2L76.95 12.26L76.96 12.33L76.97 12.39L76.98 12.46L77 12.53L77.01 12.61L77.03 12.68L77.05 12.76L102.62 52.08L102.66 52.14L102.7 52.19L102.74 52.25L102.78 52.3L102.83 52.34L102.87 52.38L102.92 52.43L102.96 52.46L103 52.5L103.05 52.53L103.09 52.57L103.14 52.6L103.19 52.62L103.23 52.65L103.28 52.67L103.32 52.7L103.37 52.72L103.41 52.73L103.46 52.75L103.5 52.77L103.55 52.78L103.59 52.79L103.63 52.8L103.67 52.81L103.71 52.82L103.75 52.83L103.79 52.84L103.83 52.84L103.87 52.85L103.91 52.85L103.94 52.86L103.97 52.86L104.01 52.86L104.04 52.86L104.07 52.86L104.09 52.86L104.12 52.86L104.14 52.86L104.17 52.86L104.21 52.86L104.23 52.86L104.25 52.86L104.28 52.86L104.31 52.86L104.34 52.86L104.37 52.86L104.4 52.86L104.43 52.86L104.47 52.85L104.5 52.85L104.54 52.84L104.58 52.84L104.62 52.83L104.66 52.82L104.7 52.81L104.74 52.8L104.79 52.79L104.83 52.78L104.87 52.77L104.92 52.75L104.96 52.73L105.01 52.72L105.05 52.7L105.1 52.67L105.14 52.65L105.19 52.62L105.23 52.6L105.28 52.57L105.32 52.53L105.37 52.5L105.41 52.46L105.46 52.43L105.5 52.38L105.55 52.34L105.59 52.3L105.63 52.25L105.67 52.19L105.71 52.14L105.75 52.08L131.33 12.5L131.36 12.44L131.4 12.38L131.43 12.32L131.46 12.27L131.49 12.21L131.51 12.15L131.53 12.09L131.55 12.04L131.57 11.98L131.58 11.92L131.6 11.87L131.61 11.81L131.61 11.76L131.62 11.7L131.62 11.65L131.63 11.6L131.63 11.54L131.63 11.49L131.62 11.44L131.62 11.39L131.61 11.34L131.61 11.3L131.6 11.25L131.59 11.21L131.58 11.16L131.57 11.12L131.55 11.08L131.54 11.04L131.53 11L131.51 10.96L131.49 10.93L131.48 10.89L131.46 10.86L131.44 10.83L131.42 10.8L131.4 10.77L131.38 10.74L131.37 10.72L131.35 10.7L131.33 10.68L131.31 10.66L131.29 10.64L131.27 10.61L131.25 10.59L131.23 10.57L131.21 10.54L131.19 10.52L131.16 10.5L131.14 10.47L131.12 10.45L131.09 10.42L131.07 10.39L131.05 10.37L131.02 10.34L130.99 10.32L130.96 10.29L130.93 10.26L130.9 10.24L130.87 10.21L130.84 10.19L130.8 10.16L130.77 10.14L130.73 10.12L130.69 10.1L130.65 10.07L130.6 10.05L130.56 10.03L130.51 10.02L130.46 10L130.41 9.98L130.36 9.97L130.3 9.95L130.24 9.94L130.18 9.93L130.12 9.92L130.05 9.91L129.98 9.9L129.91 9.9L129.84 9.9L129.76 9.9L116.97 9.9L116.97 11.98L116.97 12.1L116.97 12.21L116.96 12.32L116.94 12.43L116.93 12.54L116.91 12.65L116.88 12.75L116.85 12.85L116.82 12.95L116.79 13.05L116.75 13.14L116.71 13.23L116.66 13.32L116.61 13.41L116.56 13.49L116.51 13.57L116.45 13.65L116.39 13.72L116.32 13.8L116.26 13.87L116.19 13.93L116.11 14L116.04 14.06L115.96 14.12L115.88 14.17L115.79 14.22L115.71 14.27L115.62 14.32L115.53 14.36L115.43 14.4L115.34 14.43L115.24 14.46L115.14 14.49L115.03 14.51L114.93 14.54L114.82 14.55L114.71 14.57L114.6 14.58L114.48 14.58L114.36 14.58L114.25 14.58L114.13 14.58L114.02 14.57L113.91 14.55L113.8 14.54L113.7 14.51L113.59 14.49L113.49 14.46L113.39 14.43L113.3 14.4L113.2 14.36L113.11 14.32L113.02 14.27L112.93 14.22L112.85 14.17L112.77 14.12L112.69 14.06L112.62 14L112.54 13.93L112.47 13.87L112.41 13.8L112.34 13.72L112.28 13.65L112.22 13.57L112.17 13.49L112.12 13.41L112.07 13.32L112.02 13.23L111.98 13.14L111.94 13.05L111.91 12.95L111.88 12.85L111.85 12.75L111.82 12.65L111.8 12.54L111.79 12.43L111.77 12.32L111.76 12.21L111.76 12.1L111.75 11.98L111.75 2.6L111.76 2.49L111.76 2.37L111.77 2.26L111.79 2.15L111.8 2.04L111.82 1.94L111.85 1.83L111.88 1.73L111.91 1.63L111.94 1.54L111.98 1.44L112.02 1.35L112.07 1.26L112.12 1.18L112.17 1.09L112.22 1.01L112.28 0.93L112.34 0.86L112.41 0.79L112.47 0.72L112.54 0.65L112.62 0.59L112.69 0.52L112.77 0.47L112.85 0.41L112.93 0.36L113.02 0.31L113.11 0.27L113.2 0.23L113.3 0.19L113.39 0.15L113.49 0.12L113.59 0.09L113.7 0.07L113.8 0.05L113.91 0.03L114.02 0.02L114.13 0.01L114.25 0L114.36 0L114.48 0L114.6 0.01ZM83.92 88.07L82.72 88.21L81.54 88.45L80.4 88.77L79.29 89.18L78.22 89.67L77.18 90.23L76.2 90.86L75.26 91.57L74.37 92.33L73.54 93.16L72.77 94.05L72.07 94.98L71.43 95.97L70.87 97L70.38 98.07L69.97 99.18L69.65 100.32L69.41 101.49L69.27 102.69L69.22 103.91L69.27 105.12L69.42 106.32L69.66 107.49L70 108.63L70.42 109.74L70.92 110.81L71.5 111.84L72.15 112.83L72.88 113.77L73.66 114.65L74.51 115.48L75.42 116.25L76.37 116.95L77.38 117.58L78.42 118.15L79.51 118.63L80.64 119.04L81.79 119.36L82.97 119.6L84.18 119.74L85.4 119.79L86.62 119.74L87.82 119.6L88.99 119.38L90.14 119.06L91.25 118.67L92.32 118.19L93.35 117.64L94.34 117.02L95.28 116.33L96.16 115.57L96.99 114.75L97.76 113.88L98.47 112.94L99.1 111.96L99.67 110.93L100.15 109.85L100.56 108.73L100.89 107.57L101.12 106.38L101.27 105.16L101.32 103.91L101.06 103.91L101.06 88.02L85.14 88.02L83.92 88.07ZM166.46 70.55L165.16 70.83L163.92 71.23L162.73 71.72L161.6 72.31L160.53 72.99L159.53 73.76L158.6 74.61L157.74 75.54L156.97 76.54L156.29 77.6L155.7 78.73L155.21 79.92L154.81 81.16L154.53 82.45L154.35 83.79L154.29 85.16L154.35 86.53L154.53 87.86L154.83 89.15L155.24 90.39L155.74 91.58L156.35 92.71L157.05 93.78L157.83 94.78L158.69 95.7L159.63 96.55L160.64 97.32L161.71 98L162.84 98.59L164.03 99.09L165.25 99.48L166.52 99.77L167.83 99.94L169.16 100L170.54 99.94L171.87 99.77L173.17 99.48L174.41 99.09L175.6 98.59L176.73 98L177.8 97.32L178.8 96.55L179.73 95.7L180.59 94.78L181.36 93.78L182.04 92.71L182.63 91.58L183.12 90.39L183.52 89.15L183.8 87.86L183.98 86.53L184.04 85.16L183.98 83.79L183.8 82.45L183.5 81.16L183.09 79.92L182.59 78.73L181.98 77.6L181.28 76.54L180.5 75.54L179.64 74.61L178.7 73.76L177.69 72.99L176.62 72.31L175.49 71.72L174.3 71.23L173.08 70.83L171.81 70.55L170.5 70.37L169.16 70.31L167.79 70.37L166.46 70.55Z" id="baDTn7me9"></path><path d="M171.91 75.35L173.18 75.78L174.36 76.36L175.44 77.08L176.41 77.93L177.26 78.9L177.98 79.98L178.56 81.15L178.99 82.41L179.25 83.75L179.34 85.16L179.25 86.5L178.99 87.81L178.56 89.05L177.98 90.22L177.26 91.3L176.41 92.29L175.44 93.15L174.36 93.89L173.18 94.49L171.91 94.94L170.57 95.22L169.17 95.31L167.81 95.22L166.51 94.96L165.26 94.53L164.09 93.95L163.01 93.23L162.02 92.38L161.15 91.41L160.41 90.34L159.81 89.16L159.36 87.9L159.08 86.56L158.99 85.16L159.08 83.81L159.34 82.51L159.77 81.26L160.35 80.09L161.07 79.01L161.92 78.03L162.9 77.16L163.98 76.42L165.15 75.82L166.42 75.37L167.76 75.1L169.17 75L170.57 75.09L171.91 75.35ZM166.72 80.85L165.71 81.61L164.91 82.6L164.39 83.8L164.21 85.16L164.38 86.43L164.86 87.6L165.61 88.61L166.6 89.4L167.8 89.92L169.17 90.1L170.53 89.94L171.73 89.46L172.72 88.7L173.48 87.71L173.96 86.52L174.12 85.16L173.96 83.89L173.48 82.72L172.72 81.71L171.73 80.91L170.53 80.39L169.17 80.21L167.89 80.38L166.72 80.85Z" id="bLqiqMmC3"></path></defs><g><g><use xlink:href="#baDTn7me9" opacity="1" fill="#000000" fill-opacity="1"></use><g><use xlink:href="#baDTn7me9" opacity="1" fill-opacity="0" stroke="#000000" stroke-width="1" stroke-opacity="0"></use></g></g><g><use xlink:href="#bLqiqMmC3" opacity="1" fill="#000000" fill-opacity="1"></use><g><use xlink:href="#bLqiqMmC3" opacity="1" fill-opacity="0" stroke="#000000" stroke-width="1" stroke-opacity="0"></use></g></g></g></svg>