<?xml version="1.0" encoding="UTF-8" standalone="no"?>
<!DOCTYPE svg PUBLIC "-//W3C//DTD SVG 1.1//EN" "http://www.w3.org/Graphics/SVG/1.1/DTD/svg11.dtd">
<svg version="1.1" xmlns="http://www.w3.org/2000/svg" xmlns:xlink="http://www.w3.org/1999/xlink" preserveAspectRatio="xMidYMid meet" viewBox="123.36086153846155 -0.9448615384615378 394.2936615384616 516.4371692307693" width="76.16" height="100"><defs><path d="M403.05 0.09L405.1 0.15L407.14 0.24L409.18 0.36L411.2 0.5L413.22 0.67L415.22 0.87L417.22 1.1L419.2 1.36L421.18 1.65L423.14 1.97L425.09 2.32L427.03 2.69L428.96 3.1L430.88 3.54L432.78 4L434.67 4.5L436.55 5.03L438.42 5.59L440.28 6.18L442.12 6.8L443.95 7.45L445.77 8.14L447.57 8.85L449.37 9.6L451.14 10.38L452.91 11.19L454.65 12.04L456.39 12.92L458.11 13.83L459.82 14.77L467.24 19.23L474.03 24.02L480.2 29.12L485.78 34.51L490.79 40.17L495.25 46.08L499.19 52.21L502.62 58.55L505.57 65.07L508.06 71.75L510.12 78.58L511.76 85.52L513.01 92.56L513.9 99.68L514.44 106.85L514.65 114.05L514.57 121.27L514.21 128.47L513.59 135.65L512.74 142.77L511.68 149.82L510.43 156.77L509.01 163.61L507.46 170.31L505.78 176.85L504 183.2L502.15 189.36L500.25 195.29L498.31 200.98L496.37 206.4L494.44 211.53L492.55 216.36L490.72 220.85L488.97 224.99L487.33 228.75L485.82 232.13L484.45 235.08L483.26 237.6L482.26 239.65L481.48 241.23L481.34 242.35L481.21 243.49L481.1 244.65L481 245.84L480.92 247.05L480.85 248.28L480.8 249.53L480.76 250.81L480.73 252.11L480.72 253.43L480.73 254.78L480.74 256.14L480.77 257.54L480.81 258.95L480.87 260.39L480.94 261.85L481.02 263.34L481.12 264.85L481.23 266.38L481.35 267.94L481.49 269.52L481.64 271.13L481.8 272.75L481.97 274.41L482.16 276.09L482.36 277.79L482.57 279.52L482.79 281.27L483.03 283.04L483.28 284.85L483.54 286.67L483.81 288.52L484.09 290.4L484.39 292.3L484.69 294.23L485.01 296.18L485.34 298.16L485.68 300.16L486.04 302.19L486.4 304.25L487.34 310.3L488.11 316.35L488.69 322.38L489.1 328.4L489.34 334.41L489.4 340.39L489.29 346.35L489.01 352.29L488.56 358.19L487.94 364.06L487.15 369.89L486.21 375.69L485.09 381.44L483.82 387.14L482.38 392.79L480.79 398.39L479.04 403.93L477.14 409.41L475.07 414.83L472.86 420.18L470.5 425.47L467.98 430.67L465.32 435.8L462.51 440.86L459.55 445.82L456.45 450.7L453.21 455.49L449.83 460.19L446.31 464.79L442.65 469.29L438.85 473.69L434.92 477.98L430.85 482.16L426.65 486.23L422.32 490.18L417.86 494.01L413.28 497.71L408.57 501.29L403.73 504.74L398.77 508.06L395.82 510.03L395.74 510.1L395.66 510.18L395.58 510.25L395.49 510.33L395.4 510.4L395.31 510.47L395.21 510.54L395.11 510.61L395.01 510.68L394.91 510.75L394.8 510.82L394.69 510.89L394.58 510.96L394.46 511.02L394.34 511.09L394.22 511.15L394.1 511.21L393.98 511.27L393.85 511.33L393.72 511.38L393.59 511.44L393.46 511.49L393.33 511.54L393.19 511.59L393.06 511.64L392.92 511.68L392.78 511.72L392.64 511.76L392.5 511.8L392.35 511.83L392.21 511.86L392.07 511.89L391.92 511.91L391.78 511.94L391.63 511.96L391.48 511.97L391.33 511.98L391.19 511.99L391.04 512L390.89 512L390.75 512L390.6 512L390.46 512L390.33 512L390.19 512L390.06 512L389.93 511.99L389.81 511.99L389.68 511.99L389.55 511.98L389.43 511.98L389.31 511.97L389.18 511.97L389.06 511.96L388.94 511.95L388.81 511.94L388.69 511.92L388.56 511.91L388.44 511.89L388.31 511.88L388.18 511.86L388.05 511.84L387.91 511.81L387.77 511.79L387.63 511.76L387.49 511.73L387.34 511.7L387.19 511.66L387.04 511.62L386.88 511.58L386.71 511.54L386.54 511.5L386.37 511.45L386.19 511.4L386.01 511.34L385.81 511.28L385.62 511.22L385.41 511.16L385.2 511.09L384.98 511.02L384.76 510.94L384.55 510.85L384.34 510.75L384.13 510.64L383.93 510.52L383.73 510.39L383.53 510.25L383.34 510.1L383.15 509.95L382.97 509.78L382.79 509.61L382.62 509.44L382.45 509.25L382.29 509.06L382.13 508.87L381.98 508.67L381.83 508.46L381.68 508.25L381.55 508.04L381.42 507.82L381.29 507.59L381.17 507.37L381.05 507.14L380.94 506.9L380.84 506.67L380.74 506.43L380.65 506.2L380.57 505.96L380.49 505.72L380.42 505.48L380.35 505.24L380.29 505L380.24 504.76L380.19 504.52L380.15 504.28L380.12 504.05L380.09 503.82L380.08 503.59L380.07 503.36L380.06 503.14L380.06 392.86L380.01 389.15L379.86 385.53L379.62 382.01L379.28 378.59L378.85 375.27L378.33 372.05L377.72 368.92L377.02 365.89L376.24 362.96L375.37 360.12L374.42 357.38L373.39 354.74L372.28 352.19L371.09 349.74L369.83 347.38L368.5 345.11L367.09 342.94L365.62 340.86L364.07 338.88L362.46 336.98L360.79 335.18L359.05 333.48L357.25 331.86L355.39 330.33L353.48 328.9L351.5 327.56L349.48 326.3L347.4 325.14L345.27 324.06L343.09 323.08L340.87 322.18L338.6 321.37L336.28 320.65L333.93 320.02L331.53 319.47L329.1 319.01L326.63 318.64L324.12 318.35L321.58 318.15L319.02 318.03L316.59 318.08L314.17 318.21L311.78 318.43L309.41 318.74L307.06 319.15L304.74 319.64L302.45 320.22L300.19 320.9L297.96 321.66L295.77 322.52L293.61 323.47L291.5 324.52L289.43 325.65L287.4 326.88L285.42 328.21L283.49 329.63L281.61 331.14L279.79 332.75L278.02 334.45L276.31 336.25L274.66 338.14L273.07 340.13L271.55 342.22L270.1 344.4L268.72 346.68L267.41 349.06L266.17 351.54L265.01 354.12L263.94 356.79L262.94 359.57L262.03 362.44L261.2 365.42L260.46 368.49L259.81 371.67L259.26 374.95L258.8 378.32L258.44 381.81L258.18 385.39L258.02 389.07L257.97 392.86L257.97 503.14L257.97 503.36L257.95 503.58L257.94 503.8L257.91 504.02L257.88 504.24L257.84 504.46L257.79 504.68L257.74 504.9L257.68 505.12L257.62 505.34L257.54 505.55L257.46 505.77L257.38 505.98L257.29 506.2L257.19 506.41L257.09 506.62L256.98 506.83L256.86 507.04L256.74 507.24L256.62 507.45L256.48 507.65L256.35 507.85L256.2 508.05L256.06 508.24L255.9 508.44L255.74 508.63L255.58 508.82L255.41 509L255.24 509.19L255.06 509.37L254.88 509.55L254.69 509.72L254.5 509.9L254.31 510.07L254.11 510.23L253.9 510.4L253.69 510.56L253.48 510.71L253.27 510.87L253.05 511.02L252.82 511.16L252.6 511.3L252.37 511.43L252.13 511.55L251.9 511.66L251.66 511.77L251.42 511.87L251.17 511.96L250.93 512.05L250.68 512.12L250.43 512.19L250.18 512.26L249.92 512.31L249.67 512.36L249.41 512.4L249.15 512.43L248.9 512.46L248.64 512.48L248.38 512.49L248.12 512.49L247.86 512.49L247.61 512.48L247.35 512.46L247.09 512.43L246.83 512.4L246.58 512.36L246.32 512.31L246.07 512.26L245.82 512.19L245.57 512.12L245.32 512.05L245.07 511.96L244.83 511.87L244.59 511.77L244.35 511.66L244.11 511.55L243.88 511.43L243.65 511.3L243.42 511.16L243.2 511.02L240.25 509.05L235.29 505.73L230.45 502.27L225.74 498.68L221.15 494.97L216.69 491.12L212.36 487.15L208.17 483.07L204.1 478.87L200.17 474.56L196.37 470.14L192.71 465.61L189.19 460.99L185.8 456.27L182.56 451.45L179.46 446.55L176.51 441.56L173.7 436.48L171.03 431.33L168.52 426.1L166.15 420.8L163.94 415.43L161.88 410L159.97 404.5L158.22 398.95L156.63 393.34L155.2 387.69L153.92 381.98L152.81 376.24L151.86 370.45L151.08 364.63L150.46 358.78L150.01 352.89L149.73 346.99L149.62 341.06L149.68 335.11L149.91 329.15L150.32 323.18L150.91 317.2L151.67 311.21L152.62 305.23L152.98 303.17L153.32 301.14L153.66 299.13L153.98 297.14L154.28 295.17L154.57 293.23L154.85 291.3L155.11 289.41L155.36 287.53L155.6 285.68L155.82 283.85L156.04 282.04L156.23 280.26L156.42 278.5L156.6 276.76L156.76 275.05L156.91 273.36L157.05 271.69L157.18 270.05L157.29 268.43L157.4 266.84L157.49 265.27L157.58 263.72L157.65 262.2L157.71 260.7L157.76 259.23L157.81 257.78L157.84 256.36L157.86 254.96L157.88 253.58L157.88 252.24L157.88 250.91L157.86 249.61L157.84 248.34L157.81 247.09L157.77 245.87L157.73 244.67L157.67 243.5L157.61 242.35L157.54 241.23L156.76 239.65L155.76 237.6L154.57 235.08L153.2 232.13L151.68 228.75L150.04 224.99L148.29 220.85L146.46 216.36L144.57 211.53L142.65 206.4L140.7 200.98L138.77 195.29L136.87 189.36L135.01 183.2L133.24 176.85L131.56 170.31L130 163.61L128.59 156.77L127.34 149.82L126.28 142.77L125.43 135.65L124.81 128.47L124.45 121.27L124.36 114.05L124.58 106.85L125.12 99.68L126 92.56L127.25 85.52L128.9 78.58L130.95 71.75L133.45 65.07L136.4 58.55L139.83 52.21L143.76 46.08L148.22 40.17L153.23 34.51L158.81 29.12L164.98 24.02L171.77 19.23L179.2 14.77L179.94 14.33L180.68 13.9L181.42 13.49L182.15 13.08L182.89 12.69L183.63 12.3L184.37 11.92L185.12 11.56L185.86 11.2L186.6 10.85L187.34 10.5L188.09 10.17L188.83 9.84L189.58 9.53L190.33 9.21L191.08 8.91L191.83 8.61L192.58 8.32L193.34 8.03L194.09 7.75L194.85 7.48L195.61 7.21L196.37 6.95L197.14 6.69L197.9 6.43L198.67 6.18L199.44 5.94L200.21 5.69L200.99 5.45L201.77 5.22L202.55 4.98L203.33 4.75L204.12 4.52L204.91 4.29L205.71 4.07L206.5 3.84L207.3 3.62L208.11 3.4L208.91 3.18L209.72 2.95L209.95 2.88L210.17 2.82L210.4 2.77L210.64 2.72L210.87 2.67L211.11 2.64L211.35 2.61L211.59 2.59L211.83 2.58L212.08 2.57L212.32 2.57L212.57 2.57L212.81 2.58L213.06 2.6L213.31 2.62L213.55 2.65L213.8 2.69L214.04 2.73L214.28 2.78L214.52 2.83L214.76 2.89L215 2.95L215.23 3.02L215.47 3.1L215.69 3.17L215.92 3.26L216.14 3.35L216.36 3.44L216.57 3.54L216.78 3.65L216.99 3.75L217.19 3.87L217.39 3.98L217.58 4.11L217.76 4.23L217.94 4.36L218.11 4.5L218.27 4.64L218.43 4.78L218.58 4.92L218.8 5.14L219.01 5.37L219.22 5.59L219.41 5.81L219.6 6.03L219.78 6.25L219.95 6.47L220.12 6.7L220.28 6.92L220.43 7.14L220.57 7.36L220.71 7.58L220.84 7.8L220.96 8.02L221.08 8.25L221.18 8.47L221.28 8.69L221.38 8.91L221.46 9.13L221.54 9.35L221.61 9.58L221.67 9.8L221.73 10.02L221.77 10.24L221.82 10.46L221.85 10.68L221.87 10.9L221.89 11.13L221.9 11.35L221.91 11.57L221.9 11.79L221.89 12.01L221.87 12.23L221.85 12.46L221.82 12.68L221.77 12.9L221.73 13.12L221.67 13.34L221.61 13.56L221.54 13.78L207.75 82.71L207.76 83L207.76 83.3L207.77 83.59L207.79 83.89L207.8 84.18L207.83 84.47L207.85 84.76L207.89 85.06L207.93 85.34L207.97 85.63L208.02 85.92L208.07 86.2L208.13 86.48L208.2 86.76L208.27 87.03L208.35 87.31L208.44 87.58L208.53 87.85L208.63 88.11L208.74 88.37L208.85 88.63L208.98 88.88L209.1 89.13L209.24 89.37L209.39 89.61L209.54 89.85L209.71 90.08L209.88 90.3L210.06 90.52L210.25 90.74L210.44 90.95L210.65 91.15L210.87 91.35L211.1 91.54L211.33 91.73L211.58 91.91L211.84 92.08L212.11 92.24L212.39 92.4L212.68 92.55L257.97 119.14L258.19 119.29L258.4 119.44L258.62 119.6L258.82 119.76L259.03 119.92L259.23 120.09L259.42 120.26L259.62 120.44L259.8 120.62L259.98 120.8L260.16 120.99L260.34 121.18L260.5 121.37L260.67 121.57L260.83 121.77L260.98 121.97L261.13 122.18L261.27 122.4L261.41 122.61L261.54 122.83L261.66 123.05L261.79 123.28L261.9 123.51L262.01 123.75L262.11 123.98L262.21 124.23L262.3 124.47L262.39 124.72L262.47 124.97L262.54 125.23L262.6 125.49L262.66 125.76L262.72 126.02L262.76 126.29L262.8 126.57L262.83 126.85L262.86 127.13L262.88 127.42L262.89 127.71L262.89 128L256.98 224.49L300.31 137.85L300.31 137.77L300.31 137.7L300.31 137.62L300.31 137.55L300.31 137.48L300.3 137.4L300.3 137.33L300.3 137.26L300.3 137.18L300.29 137.11L300.29 137.03L300.28 136.96L300.27 136.89L300.27 136.81L300.26 136.74L300.24 136.66L300.23 136.59L300.22 136.52L300.2 136.44L300.18 136.37L300.17 136.3L300.14 136.22L300.12 136.15L300.1 136.07L300.07 136L300.04 135.93L300 135.85L299.97 135.78L299.93 135.7L299.89 135.63L299.85 135.56L299.8 135.48L299.75 135.41L299.7 135.34L299.65 135.26L299.59 135.19L299.53 135.11L299.46 135.04L299.4 134.97L299.32 134.89L250.09 91.57L249.95 91.42L249.8 91.27L249.67 91.11L249.53 90.95L249.4 90.79L249.27 90.62L249.15 90.45L249.03 90.28L248.91 90.1L248.8 89.92L248.69 89.74L248.59 89.56L248.48 89.37L248.39 89.18L248.29 88.99L248.2 88.8L248.12 88.6L248.03 88.4L247.95 88.2L247.88 88L247.8 87.8L247.74 87.59L247.67 87.38L247.61 87.17L247.55 86.96L247.5 86.75L247.45 86.54L247.4 86.32L247.36 86.11L247.32 85.89L247.29 85.67L247.26 85.46L247.23 85.24L247.2 85.02L247.18 84.8L247.17 84.58L247.16 84.36L247.15 84.14L247.14 83.91L247.14 83.69L249.11 48.25L249.11 48.17L249.11 48.1L249.12 48.02L249.14 47.95L249.15 47.88L249.17 47.8L249.19 47.73L249.21 47.66L249.23 47.58L249.26 47.51L249.29 47.43L249.32 47.36L249.35 47.29L249.39 47.21L249.42 47.14L249.45 47.06L249.49 46.99L249.53 46.92L249.56 46.84L249.64 46.7L249.67 46.62L249.71 46.55L249.75 46.47L249.78 46.4L249.81 46.33L249.85 46.25L249.88 46.18L249.91 46.1L249.94 46.03L249.97 45.96L249.99 45.88L250.01 45.81L250.03 45.74L250.05 45.66L250.06 45.59L250.08 45.51L250.09 45.44L250.09 45.37L250.09 45.29L263.88 9.85L264.03 9.48L264.19 9.13L264.35 8.79L264.53 8.46L264.71 8.14L264.89 7.83L265.09 7.53L265.29 7.25L265.49 6.97L265.71 6.71L265.93 6.45L266.15 6.21L266.39 5.98L266.63 5.76L266.87 5.55L267.12 5.36L267.38 5.17L267.64 4.99L267.91 4.83L268.18 4.68L268.46 4.53L268.75 4.4L269.04 4.28L269.34 4.17L269.64 4.08L269.94 3.99L270.25 3.91L270.57 3.85L270.89 3.8L271.22 3.75L271.55 3.72L271.88 3.7L272.22 3.69L272.56 3.69L272.91 3.71L273.26 3.73L273.62 3.77L273.98 3.81L274.34 3.87L274.71 3.94L276.18 4.31L277.62 4.7L279.06 5.1L280.47 5.5L281.86 5.92L283.24 6.35L284.6 6.79L285.94 7.25L287.26 7.71L288.57 8.18L289.86 8.67L291.13 9.17L292.38 9.67L293.62 10.19L294.84 10.72L296.04 11.26L297.22 11.82L298.39 12.38L299.54 12.95L300.68 13.54L301.79 14.13L302.9 14.74L303.98 15.36L305.05 15.99L306.1 16.63L307.14 17.28L308.16 17.95L309.16 18.62L310.15 19.3L311.12 20L312.08 20.71L313.02 21.43L313.95 22.15L314.86 22.89L315.75 23.65L316.63 24.41L317.5 25.18L318.35 25.97L319.18 26.76L320 27.57L321.05 26.54L322.12 25.53L323.22 24.54L324.34 23.55L325.49 22.59L326.67 21.64L327.87 20.71L329.1 19.79L330.35 18.9L331.63 18.02L332.94 17.15L334.27 16.31L335.62 15.48L337.01 14.67L338.42 13.88L339.85 13.11L341.31 12.35L342.8 11.62L344.31 10.91L345.85 10.22L347.41 9.54L349 8.89L350.61 8.26L352.26 7.65L353.92 7.06L355.62 6.49L357.33 5.95L359.08 5.42L360.85 4.92L362.65 4.45L364.47 3.99L366.32 3.56L368.19 3.15L370.09 2.77L372.02 2.41L373.97 2.07L375.94 1.76L377.95 1.48L379.98 1.22L382.03 0.98L384.17 0.78L386.3 0.59L388.42 0.44L390.54 0.31L392.64 0.2L394.74 0.13L396.83 0.08L398.91 0.06L400.98 0.06L403.05 0.09ZM398.7 18.77L396.91 18.83L395.1 18.91L393.29 19.01L391.47 19.14L389.65 19.3L387.81 19.48L385.97 19.69L384.55 19.85L383.11 20.03L381.64 20.22L380.14 20.44L378.63 20.67L377.1 20.93L375.55 21.22L373.99 21.52L372.41 21.85L370.83 22.2L369.24 22.58L367.64 22.98L366.04 23.41L364.44 23.86L362.85 24.35L361.25 24.86L359.66 25.4L358.08 25.97L356.51 26.57L354.95 27.2L353.41 27.86L351.88 28.56L350.38 29.28L348.89 30.04L347.43 30.84L345.99 31.67L344.59 32.53L343.21 33.43L341.86 34.36L340.55 35.34L339.28 36.35L338.05 37.4L336.85 38.49L335.7 39.62L334.6 40.79L333.54 42L332.54 43.25L331.59 44.54L330.69 45.88L329.85 47.26L329.7 47.41L329.54 47.56L329.39 47.7L329.23 47.85L329.06 48L328.9 48.14L328.73 48.28L328.55 48.43L328.38 48.57L328.2 48.71L328.02 48.85L327.83 48.98L327.65 49.11L327.46 49.24L327.27 49.37L327.07 49.5L326.88 49.62L326.68 49.74L326.48 49.86L326.28 49.97L326.07 50.08L325.87 50.18L325.66 50.28L325.45 50.38L325.24 50.47L325.03 50.56L324.82 50.64L324.6 50.72L324.39 50.79L324.17 50.86L323.95 50.92L323.73 50.98L323.51 51.03L323.3 51.07L323.08 51.11L322.85 51.14L322.63 51.17L322.41 51.19L322.19 51.2L321.97 51.2L321.75 51.2L321.53 51.19L321.31 51.18L321.08 51.17L320.86 51.15L320.64 51.13L320.42 51.1L320.2 51.07L319.99 51.04L319.77 51L319.55 50.96L319.34 50.91L319.12 50.85L318.91 50.8L318.7 50.73L318.49 50.66L318.28 50.59L318.07 50.51L317.87 50.43L317.66 50.34L317.46 50.24L317.26 50.14L317.06 50.04L316.86 49.92L316.67 49.81L316.48 49.68L316.29 49.55L316.1 49.41L315.92 49.27L315.74 49.12L315.56 48.97L315.38 48.81L315.21 48.64L315.04 48.46L314.88 48.28L314.71 48.09L314.55 47.89L314.39 47.69L314.24 47.48L314.09 47.26L313.57 46.53L313.03 45.8L312.47 45.08L311.9 44.37L311.32 43.66L310.72 42.97L310.1 42.28L309.47 41.6L308.82 40.93L308.15 40.26L307.47 39.61L306.77 38.96L306.06 38.32L305.32 37.69L304.57 37.07L303.81 36.45L303.02 35.85L302.22 35.26L301.39 34.67L300.55 34.09L299.7 33.52L298.82 32.97L297.92 32.42L297.01 31.88L296.07 31.35L295.12 30.83L294.15 30.32L293.15 29.82L292.14 29.33L291.11 28.85L290.05 28.38L288.98 27.92L287.89 27.47L286.77 27.03L285.63 26.6L284.48 26.18L283.3 25.77L282.1 25.38L280.88 24.99L279.63 24.62L269.78 51.2L267.82 80.74L313.11 121.11L313.62 121.56L314.1 122.02L314.57 122.5L315.03 122.99L315.46 123.5L315.87 124.02L316.27 124.54L316.64 125.09L317 125.64L317.34 126.2L317.66 126.77L317.95 127.36L318.23 127.95L318.49 128.55L318.73 129.16L318.95 129.77L319.15 130.4L319.33 131.03L319.49 131.66L319.63 132.31L319.75 132.96L319.85 133.61L319.93 134.27L319.98 134.93L320.02 135.6L320.04 136.27L320.03 136.94L320.01 137.61L319.96 138.29L319.89 138.97L319.8 139.65L319.69 140.33L319.56 141.01L319.41 141.69L319.23 142.36L319.04 143.04L318.82 143.71L318.58 144.39L318.32 145.06L318.03 145.72L254.03 273.72L253.88 274.01L253.71 274.3L253.54 274.58L253.36 274.84L253.16 275.11L252.96 275.36L252.75 275.6L252.53 275.84L252.3 276.07L252.06 276.29L251.82 276.51L251.57 276.71L251.31 276.91L251.05 277.09L250.78 277.27L250.5 277.44L250.22 277.6L249.94 277.75L249.65 277.9L249.35 278.03L249.06 278.16L248.76 278.27L248.45 278.38L248.15 278.47L247.84 278.56L247.53 278.64L247.22 278.7L246.9 278.76L246.59 278.81L246.28 278.85L245.96 278.87L245.65 278.89L245.34 278.9L245.03 278.89L244.72 278.88L244.41 278.85L244.1 278.82L243.8 278.77L243.5 278.71L243.2 278.65L242.91 278.56L242.62 278.47L242.33 278.36L242.05 278.24L241.77 278.1L241.5 277.95L241.23 277.79L240.97 277.62L240.71 277.44L240.46 277.25L240.22 277.04L239.97 276.83L239.74 276.61L239.51 276.38L239.29 276.14L239.07 275.89L238.86 275.63L238.66 275.37L238.47 275.1L238.28 274.83L238.1 274.55L237.92 274.27L237.76 273.98L237.6 273.68L237.45 273.39L237.31 273.09L237.18 272.78L237.05 272.48L236.94 272.17L236.83 271.86L236.73 271.55L236.65 271.24L236.57 270.93L236.5 270.62L236.44 270.31L236.39 270.01L236.36 269.7L236.33 269.4L236.31 269.1L236.31 268.8L245.17 131.94L204.8 108.31L204 107.85L203.22 107.38L202.46 106.88L201.73 106.36L201.02 105.83L200.33 105.27L199.66 104.7L199.02 104.1L198.4 103.49L197.8 102.86L197.23 102.22L196.67 101.56L196.15 100.88L195.64 100.19L195.16 99.48L194.7 98.76L194.27 98.03L193.86 97.28L193.47 96.52L193.11 95.75L192.77 94.97L192.45 94.18L192.16 93.38L191.9 92.57L191.66 91.75L191.44 90.92L191.25 90.09L191.08 89.24L190.93 88.39L190.82 87.54L190.72 86.68L190.65 85.81L190.61 84.94L190.59 84.07L190.6 83.19L190.63 82.31L190.69 81.43L190.77 80.54L190.88 79.66L191.02 78.77L200.86 26.58L200.57 26.66L200.27 26.74L199.98 26.82L199.68 26.91L199.38 27L199.09 27.09L198.79 27.19L198.5 27.29L198.2 27.39L197.91 27.49L197.61 27.6L197.32 27.71L197.02 27.82L196.73 27.94L196.43 28.06L196.14 28.18L195.84 28.3L195.54 28.42L195.25 28.55L194.95 28.68L194.66 28.81L194.36 28.94L194.07 29.07L193.77 29.21L193.48 29.34L193.18 29.48L192.89 29.62L192.59 29.76L192.3 29.9L192 30.05L191.7 30.19L191.41 30.33L191.11 30.48L190.82 30.62L190.52 30.77L190.23 30.92L189.93 31.07L189.64 31.21L189.34 31.36L189.05 31.51L182.35 35.53L176.28 39.9L170.82 44.59L165.93 49.58L161.6 54.84L157.8 60.36L154.51 66.11L151.7 72.07L149.36 78.22L147.45 84.52L145.95 90.97L144.84 97.53L144.11 104.18L143.71 110.9L143.63 117.67L143.85 124.46L144.34 131.25L145.08 138.01L146.04 144.73L147.2 151.38L148.54 157.94L150.03 164.39L151.66 170.69L153.39 176.84L155.2 182.8L157.07 188.55L158.98 194.07L160.9 199.34L162.81 204.33L164.68 209.02L166.49 213.38L168.22 217.4L169.84 221.05L171.34 224.31L172.68 227.16L173.84 229.56L174.8 231.51L175.54 232.97L176.03 233.92L176.25 234.34L176.25 234.41L176.25 234.49L176.26 234.56L176.27 234.63L176.29 234.71L176.31 234.78L176.33 234.86L176.35 234.93L176.37 235L176.4 235.08L176.43 235.15L176.46 235.22L176.49 235.3L176.52 235.37L176.56 235.45L176.59 235.52L176.63 235.59L176.66 235.67L176.7 235.74L176.78 235.89L176.81 235.96L176.85 236.04L176.88 236.11L176.92 236.18L176.95 236.26L176.99 236.33L177.02 236.41L177.05 236.48L177.08 236.55L177.1 236.63L177.13 236.7L177.15 236.78L177.17 236.85L177.19 236.92L177.2 237L177.21 237.07L177.22 237.14L177.23 237.22L177.23 237.29L177.37 238.49L177.5 239.72L177.61 240.99L177.7 242.28L177.79 243.61L177.85 244.97L177.91 246.36L177.95 247.78L177.97 249.24L177.98 250.72L177.98 252.24L177.97 253.78L177.94 255.36L177.89 256.96L177.84 258.6L177.77 260.26L177.68 261.95L177.59 263.67L177.48 265.42L177.35 267.2L177.22 269L177.07 270.84L176.91 272.7L176.73 274.58L176.55 276.49L176.35 278.43L176.14 280.4L175.91 282.39L175.68 284.4L175.43 286.45L175.17 288.51L174.9 290.6L174.62 292.72L174.32 294.86L174.01 297.02L173.7 299.21L173.37 301.42L173.02 303.65L172.67 305.91L172.31 308.18L171.49 313.35L170.82 318.51L170.29 323.65L169.9 328.78L169.65 333.89L169.54 338.99L169.57 344.06L169.73 349.11L170.03 354.14L170.46 359.14L171.03 364.11L171.72 369.05L172.55 373.95L173.51 378.82L174.59 383.65L175.81 388.43L177.14 393.18L178.61 397.88L180.2 402.53L181.91 407.14L183.74 411.69L185.69 416.19L187.77 420.63L189.96 425.02L192.27 429.34L194.69 433.6L197.24 437.79L199.89 441.92L202.66 445.98L205.54 449.97L208.53 453.88L211.63 457.72L214.84 461.48L218.15 465.16L221.58 468.75L225.1 472.26L228.74 475.69L232.47 479.02L236.31 482.27L240.25 485.42L240.25 392.86L240.31 388.27L240.52 383.79L240.85 379.44L241.31 375.2L241.9 371.08L242.61 367.07L243.43 363.18L244.38 359.42L245.44 355.76L246.62 352.23L247.9 348.81L249.28 345.51L250.78 342.33L252.37 339.27L254.06 336.32L255.84 333.49L257.72 330.77L259.69 328.17L261.74 325.69L263.88 323.32L266.1 321.07L268.39 318.94L270.77 316.92L273.21 315.02L275.73 313.24L278.31 311.57L280.96 310.01L283.67 308.58L286.44 307.25L289.26 306.05L292.14 304.95L295.07 303.98L298.05 303.12L301.07 302.37L304.13 301.74L307.24 301.22L310.38 300.82L313.56 300.54L316.76 300.36L320 300.31L320.98 300.31L324.08 300.36L327.15 300.54L330.21 300.82L333.24 301.22L336.24 301.74L339.22 302.37L342.15 303.12L345.06 303.98L347.92 304.95L350.74 306.05L353.51 307.25L356.24 308.58L358.91 310.01L361.52 311.57L364.08 313.24L366.58 315.02L369.01 316.92L371.37 318.94L373.66 321.07L375.88 323.32L378.02 325.69L380.07 328.17L382.05 330.77L383.94 333.49L385.73 336.32L387.44 339.27L389.05 342.33L390.56 345.51L391.96 348.81L393.26 352.23L394.45 355.76L395.53 359.42L396.5 363.18L397.34 367.07L398.07 371.08L398.66 375.2L399.14 379.44L399.48 383.79L399.68 388.27L399.75 392.86L399.75 485.42L403.69 482.26L407.53 479.02L411.26 475.67L414.9 472.24L418.43 468.71L421.85 465.1L425.17 461.4L428.38 457.63L431.48 453.77L434.48 449.83L437.36 445.82L440.14 441.74L442.8 437.58L445.35 433.36L447.78 429.08L450.1 424.73L452.31 420.32L454.4 415.86L456.36 411.34L458.22 406.77L459.95 402.15L461.56 397.48L463.04 392.77L464.41 388.01L465.65 383.21L466.76 378.38L467.75 373.51L468.61 368.61L469.35 363.68L469.95 358.72L470.43 353.74L470.77 348.74L470.98 343.71L471.06 338.67L471.01 333.61L470.81 328.54L470.49 323.46L470.02 318.37L469.42 313.28L468.68 308.18L468.31 305.91L467.96 303.65L467.62 301.42L467.29 299.21L466.97 297.02L466.66 294.86L466.37 292.72L466.09 290.6L465.81 288.51L465.55 286.45L465.31 284.4L465.07 282.39L464.85 280.4L464.64 278.43L464.44 276.49L464.25 274.58L464.08 272.7L463.91 270.84L463.77 269L463.63 267.2L463.51 265.42L463.4 263.67L463.3 261.95L463.22 260.26L463.15 258.6L463.09 256.96L463.05 255.36L463.02 253.78L463 252.24L463 250.72L463.01 249.24L463.04 247.78L463.08 246.36L463.13 244.97L463.2 243.61L463.28 242.28L463.38 240.99L463.49 239.72L463.61 238.49L463.75 237.29L463.75 237.22L463.75 237.14L463.75 237.07L463.75 237L463.76 236.92L463.76 236.85L463.76 236.78L463.76 236.7L463.77 236.63L463.77 236.55L463.77 236.48L463.78 236.41L463.79 236.33L463.8 236.26L463.81 236.18L463.82 236.11L463.83 236.04L463.84 235.96L463.86 235.89L463.88 235.82L463.9 235.74L463.92 235.67L463.94 235.59L463.97 235.52L463.99 235.45L464.02 235.37L464.06 235.3L464.09 235.22L464.13 235.15L464.17 235.08L464.21 235L464.26 234.93L464.31 234.86L464.36 234.78L464.41 234.71L464.47 234.63L464.53 234.56L464.6 234.49L464.67 234.41L464.74 234.34L464.96 233.99L465.45 233.1L466.18 231.7L467.14 229.8L468.31 227.44L469.65 224.63L471.14 221.41L472.77 217.78L474.5 213.78L476.31 209.43L478.18 204.75L480.09 199.77L482.01 194.51L483.91 188.98L485.78 183.23L487.6 177.26L489.33 171.11L490.95 164.79L492.44 158.33L493.78 151.75L494.95 145.08L495.91 138.34L496.65 131.55L497.14 124.74L497.35 117.92L497.28 111.13L496.88 104.39L496.14 97.71L495.03 91.13L493.54 84.66L491.63 78.33L489.28 72.17L486.48 66.19L483.18 60.42L479.38 54.88L475.05 49.6L470.17 44.6L464.7 39.9L458.63 35.53L451.94 31.51L450.53 30.71L449.1 29.93L447.66 29.19L446.21 28.47L444.74 27.77L443.26 27.1L441.77 26.45L440.26 25.84L438.74 25.24L437.2 24.68L435.65 24.14L434.09 23.62L432.52 23.13L430.93 22.67L429.33 22.23L427.72 21.82L426.1 21.43L424.47 21.07L422.83 20.74L421.17 20.43L419.5 20.15L417.82 19.89L416.14 19.66L414.44 19.46L412.73 19.28L411.01 19.12L409.28 19L407.54 18.89L405.79 18.82L404.03 18.77L402.26 18.75L400.49 18.75L398.7 18.77Z" id="b2RGNsaWJr"></path></defs><g><g><use xlink:href="#b2RGNsaWJr" opacity="1" fill="#000000" fill-opacity="1"></use><g><use xlink:href="#b2RGNsaWJr" opacity="1" fill-opacity="0" stroke="#000000" stroke-width="1" stroke-opacity="0"></use></g></g></g></svg>