<?xml version="1.0" encoding="UTF-8" standalone="no"?>
<!DOCTYPE svg PUBLIC "-//W3C//DTD SVG 1.1//EN" "http://www.w3.org/Graphics/SVG/1.1/DTD/svg11.dtd">
<svg version="1.1" xmlns="http://www.w3.org/2000/svg" xmlns:xlink="http://www.w3.org/1999/xlink" preserveAspectRatio="xMidYMid meet" viewBox="76.86666666666666 -2.0666666666666815 489.33333333333337 518.1333333333333" width="94.4" height="100"><defs><path d="M315.44 -0.73L319.49 -0.33L323.49 0.24L327.43 0.97L331.32 1.84L335.16 2.87L338.93 4.04L342.63 5.35L346.27 6.8L349.83 8.39L353.32 10.11L356.73 11.96L360.06 13.93L363.3 16.03L366.46 18.25L369.52 20.59L372.49 23.04L375.36 25.6L378.13 28.27L380.8 31.04L383.36 33.91L385.81 36.88L388.15 39.94L390.37 43.1L392.47 46.34L394.44 49.67L396.29 53.08L398.01 56.57L399.6 60.13L401.05 63.77L402.36 67.47L403.53 71.24L404.56 75.08L405.43 78.97L406.16 82.91L406.73 86.91L407.13 90.96L407.38 95.06L407.47 99.2L407.38 103.34L407.13 107.44L406.73 111.49L406.16 115.49L405.43 119.43L404.56 123.32L403.53 127.16L402.36 130.93L401.05 134.63L399.6 138.27L398.01 141.83L396.29 145.32L394.44 148.73L392.47 152.06L390.37 155.3L388.15 158.46L385.81 161.52L383.36 164.49L380.8 167.36L378.13 170.13L375.36 172.8L372.49 175.36L369.52 177.81L366.46 180.15L363.3 182.37L360.06 184.47L356.73 186.44L353.32 188.29L349.83 190.01L346.27 191.6L342.63 193.05L338.93 194.36L335.16 195.53L331.32 196.56L327.43 197.43L323.49 198.16L319.49 198.73L315.44 199.13L311.34 199.38L307.2 199.47L303.06 199.38L298.96 199.13L294.91 198.73L290.91 198.16L286.97 197.43L283.08 196.56L279.24 195.53L275.47 194.36L271.77 193.05L268.13 191.6L264.57 190.01L261.08 188.29L257.67 186.44L254.34 184.47L251.1 182.37L247.94 180.15L244.88 177.81L241.91 175.36L239.04 172.8L236.27 170.13L233.6 167.36L231.04 164.49L228.59 161.52L226.25 158.46L224.03 155.3L221.93 152.06L219.96 148.73L218.11 145.32L216.39 141.83L214.8 138.27L213.35 134.63L212.04 130.93L210.87 127.16L209.84 123.32L208.97 119.43L208.24 115.49L207.67 111.49L207.27 107.44L207.02 103.34L206.93 99.2L207.02 95.06L207.27 90.96L207.67 86.91L208.24 82.91L208.97 78.97L209.84 75.08L210.87 71.24L212.04 67.47L213.35 63.77L214.8 60.13L216.39 56.57L218.11 53.08L219.96 49.67L221.93 46.34L224.03 43.1L226.25 39.94L228.59 36.88L231.04 33.91L233.6 31.04L236.27 28.27L239.04 25.6L241.91 23.04L244.88 20.59L247.94 18.25L251.1 16.03L254.34 13.93L257.67 11.96L261.08 10.11L264.57 8.39L268.13 6.8L271.77 5.35L275.47 4.04L279.24 2.87L283.08 1.84L286.97 0.97L290.91 0.24L294.91 -0.33L298.96 -0.73L303.06 -0.98L307.2 -1.07L311.34 -0.98L315.44 -0.73ZM242.85 54.36L242.16 55.42L241.49 56.49L240.82 57.56L240.17 58.65L239.54 59.74L238.92 60.83L238.31 61.94L237.72 63.05L237.14 64.17L236.58 65.29L236.03 66.43L235.5 67.56L234.99 68.71L234.49 69.86L234.01 71.02L233.54 72.19L233.1 73.36L232.67 74.53L232.26 75.72L231.86 76.91L231.49 78.1L231.13 79.3L230.8 80.51L230.48 81.72L230.18 82.93L229.91 84.16L229.65 85.38L229.42 86.62L229.2 87.85L229.01 89.1L228.84 90.34L228.69 91.6L228.56 92.85L228.46 94.11L228.37 95.38L228.31 96.65L228.28 97.92L228.27 99.2L228.33 102.46L228.53 105.69L228.85 108.88L229.3 112.04L229.86 115.15L230.55 118.21L231.36 121.23L232.28 124.2L233.31 127.12L234.45 129.98L235.7 132.79L237.05 135.54L238.51 138.22L240.06 140.84L241.71 143.39L243.46 145.88L245.29 148.29L247.22 150.63L249.23 152.89L251.33 155.07L253.51 157.17L255.77 159.18L258.11 161.11L260.52 162.94L263.01 164.69L265.56 166.34L268.18 167.89L270.86 169.35L273.61 170.7L276.42 171.95L279.28 173.09L282.2 174.12L285.17 175.04L288.19 175.85L291.25 176.54L294.36 177.1L297.52 177.55L300.71 177.87L303.94 178.07L307.2 178.13L308.48 178.12L309.76 178.09L311.04 178.03L312.32 177.94L313.59 177.84L314.87 177.71L316.14 177.56L317.41 177.39L318.67 177.2L319.93 176.98L321.19 176.75L322.44 176.49L323.69 176.22L324.94 175.92L326.17 175.6L327.41 175.27L328.63 174.91L329.85 174.54L331.06 174.14L332.27 173.73L333.46 173.3L334.65 172.86L335.83 172.39L337 171.91L338.16 171.41L339.31 170.9L340.45 170.37L341.58 169.82L342.69 169.26L343.8 168.68L344.89 168.09L345.98 167.48L347.04 166.86L348.1 166.23L349.14 165.58L350.17 164.91L351.18 164.24L352.18 163.55L353.17 162.85L354.13 162.13L244.27 52.27L243.55 53.31L242.85 54.36ZM304.5 21.38L303.16 21.44L301.82 21.52L300.5 21.63L299.18 21.75L297.88 21.9L296.58 22.08L295.28 22.27L294 22.48L292.72 22.72L291.46 22.97L290.2 23.25L288.94 23.55L287.7 23.86L286.46 24.2L285.24 24.56L284.02 24.93L282.8 25.32L281.6 25.73L280.4 26.16L279.22 26.61L278.04 27.07L276.86 27.55L275.7 28.05L274.54 28.57L273.4 29.1L272.26 29.64L271.12 30.21L270 30.78L268.88 31.38L267.78 31.98L266.68 32.6L265.58 33.24L264.5 33.89L263.42 34.55L262.36 35.23L261.3 35.92L260.24 36.62L259.2 37.33L369.07 147.2L369.78 146.23L370.48 145.26L371.17 144.27L371.85 143.27L372.51 142.25L373.16 141.23L373.8 140.19L374.42 139.14L375.02 138.09L375.62 137.02L376.19 135.94L376.76 134.84L377.3 133.74L377.83 132.63L378.35 131.51L378.85 130.37L379.33 129.23L379.79 128.07L380.24 126.91L380.67 125.73L381.08 124.55L381.47 123.35L381.84 122.15L382.2 120.93L382.54 119.71L382.85 118.48L383.15 117.23L383.43 115.98L383.68 114.72L383.92 113.45L384.13 112.17L384.32 110.88L384.5 109.58L384.65 108.28L384.77 106.96L384.88 105.64L384.96 104.31L385.02 102.97L385.05 101.62L385.07 100.27L385 97L384.81 93.77L384.48 90.58L384.04 87.43L383.47 84.32L382.78 81.25L381.98 78.23L381.06 75.26L380.04 72.35L378.9 69.48L377.66 66.68L376.31 63.93L374.86 61.25L373.32 58.63L371.68 56.07L369.95 53.59L368.12 51.18L366.21 48.84L364.21 46.58L362.13 44.4L359.97 42.3L357.74 40.29L355.43 38.36L353.04 36.52L350.59 34.78L348.07 33.13L345.48 31.57L342.84 30.12L340.13 28.76L337.37 27.52L334.55 26.38L331.68 25.34L328.77 24.42L325.8 23.62L322.8 22.93L319.75 22.36L316.66 21.92L313.54 21.59L310.39 21.4L307.2 21.33L305.84 21.35L304.5 21.38Z" id="d3iJ0SKeFS"></path><path d="M485.32 170.73L486.91 170.81L488.5 170.92L490.08 171.06L491.65 171.24L493.21 171.44L494.77 171.67L496.32 171.94L497.87 172.23L499.4 172.56L500.93 172.91L502.45 173.3L503.96 173.71L505.46 174.15L506.95 174.63L508.43 175.13L509.9 175.66L511.35 176.21L512.8 176.8L514.23 177.41L515.66 178.06L517.06 178.73L518.46 179.42L519.84 180.15L521.21 180.9L522.56 181.67L523.9 182.48L525.23 183.31L526.53 184.17L527.83 185.05L529.1 185.96L530.36 186.89L531.6 187.85L532.83 188.84L534.03 189.85L535.22 190.88L536.39 191.94L537.54 193.03L538.67 194.13L539.77 195.26L540.86 196.41L541.92 197.56L542.95 198.74L543.96 199.93L544.95 201.14L545.91 202.36L546.85 203.6L547.76 204.85L548.65 206.12L549.51 207.4L550.35 208.7L551.16 210.01L551.95 211.34L552.71 212.68L553.45 214.03L554.16 215.4L554.84 216.79L555.5 218.19L556.13 219.6L556.74 221.03L557.32 222.47L557.88 223.92L558.4 225.39L558.91 226.87L559.38 228.37L559.83 229.88L560.25 231.4L560.65 232.93L561.02 234.48L561.36 236.04L561.67 237.62L561.96 239.21L562.22 240.81L562.45 242.42L562.66 244.04L562.83 245.68L562.98 247.33L563.11 248.99L563.2 250.67L563.18 252.26L563.14 253.86L563.06 255.45L562.95 257.03L562.8 258.61L562.63 260.18L562.43 261.75L562.19 263.3L561.93 264.86L561.63 266.4L561.31 267.94L560.95 269.46L560.57 270.98L560.16 272.49L559.71 273.99L559.24 275.48L558.74 276.96L558.21 278.43L557.65 279.89L557.07 281.33L556.45 282.77L555.81 284.19L555.14 285.6L554.44 286.99L553.72 288.37L552.97 289.74L552.19 291.1L551.39 292.44L550.56 293.76L549.7 295.07L548.82 296.36L547.91 297.63L546.97 298.89L546.01 300.13L545.03 301.36L544.02 302.56L542.98 303.75L541.93 304.92L540.84 306.07L539.73 307.2L357.33 489.6L356.13 490.71L354.91 491.79L353.68 492.85L352.44 493.89L351.19 494.9L349.92 495.88L348.65 496.84L347.36 497.77L346.06 498.68L344.75 499.57L343.43 500.42L342.1 501.25L340.76 502.06L339.4 502.84L338.04 503.59L336.67 504.31L335.28 505.01L333.89 505.68L332.48 506.32L331.07 506.93L329.64 507.52L328.21 508.08L326.76 508.61L325.31 509.11L323.84 509.58L322.37 510.02L320.89 510.44L319.4 510.82L317.89 511.18L316.38 511.5L314.86 511.79L313.34 512.06L311.8 512.29L310.25 512.5L308.7 512.67L307.13 512.81L305.56 512.92L303.98 513L302.4 513.05L300.8 513.07L299.2 513.05L297.61 513L296.02 512.92L294.44 512.81L292.86 512.67L291.29 512.5L289.72 512.29L288.16 512.06L286.61 511.79L285.07 511.5L283.53 511.18L282 510.82L280.48 510.44L278.97 510.02L277.47 509.58L275.99 509.11L274.51 508.61L273.04 508.08L271.58 507.52L270.13 506.93L268.7 506.32L267.28 505.68L265.87 505.01L264.47 504.31L263.09 503.59L261.72 502.84L260.37 502.06L259.03 501.25L257.71 500.42L256.4 499.57L255.11 498.68L253.83 497.77L252.57 496.84L251.33 495.88L250.11 494.9L248.9 493.89L247.71 492.85L246.55 491.79L245.4 490.71L244.27 489.6L243.16 488.39L242.07 487.18L241.02 485.95L239.98 484.71L238.97 483.45L237.99 482.19L237.03 480.91L236.09 479.62L235.18 478.33L234.3 477.02L233.44 475.7L232.61 474.36L231.81 473.02L231.03 471.67L230.28 470.31L229.56 468.93L228.86 467.55L228.19 466.15L227.55 464.75L226.93 463.33L226.35 461.91L225.79 460.47L225.26 459.03L224.76 457.57L224.29 456.11L223.84 454.64L223.43 453.15L223.05 451.66L222.69 450.16L222.37 448.65L222.07 447.13L221.81 445.6L221.57 444.06L221.37 442.52L221.2 440.96L221.05 439.4L220.94 437.83L220.86 436.25L220.82 434.66L220.8 433.07L220.82 431.47L220.86 429.88L220.94 428.29L221.05 426.7L221.2 425.12L221.37 423.55L221.57 421.99L221.81 420.43L222.07 418.88L222.37 417.33L222.69 415.8L223.05 414.27L223.43 412.75L223.84 411.24L224.29 409.74L224.76 408.25L225.26 406.77L225.79 405.3L226.35 403.85L226.93 402.4L227.55 400.97L228.19 399.54L228.86 398.14L229.56 396.74L230.28 395.36L231.03 393.99L231.81 392.64L232.61 391.3L233.44 389.97L234.3 388.67L235.18 387.37L236.09 386.1L237.03 384.84L237.99 383.6L238.97 382.38L239.98 381.17L241.02 379.98L242.07 378.81L243.16 377.66L244.27 376.53L425.6 194.13L426.81 193.03L428.02 191.94L429.25 190.88L430.49 189.85L431.75 188.84L433.01 187.85L434.29 186.89L435.58 185.96L436.87 185.05L438.18 184.17L439.5 183.31L440.84 182.48L442.18 181.67L443.53 180.9L444.89 180.15L446.27 179.42L447.65 178.73L449.05 178.06L450.45 177.41L451.87 176.8L453.29 176.21L454.73 175.66L456.17 175.13L457.63 174.63L459.09 174.15L460.56 173.71L462.05 173.3L463.54 172.91L465.04 172.56L466.55 172.23L468.07 171.94L469.6 171.67L471.14 171.44L472.68 171.24L474.24 171.06L475.8 170.92L477.37 170.81L478.95 170.73L480.54 170.68L482.13 170.67L483.73 170.68L485.32 170.73ZM259.47 393.34L258.7 394.16L257.94 395L257.2 395.86L256.47 396.73L255.76 397.61L255.07 398.5L254.4 399.41L253.74 400.33L253.1 401.27L252.48 402.21L251.88 403.17L251.29 404.14L250.73 405.12L250.18 406.11L249.65 407.11L249.14 408.12L248.65 409.14L248.18 410.16L247.73 411.2L247.3 412.24L246.89 413.3L246.5 414.35L246.14 415.42L245.79 416.49L245.46 417.57L245.15 418.65L244.87 419.74L244.61 420.84L244.37 421.93L244.15 423.04L243.95 424.14L243.78 425.25L243.62 426.36L243.5 427.48L243.39 428.59L243.31 429.71L243.25 430.83L243.21 431.95L243.2 433.07L243.21 434.19L243.25 435.31L243.31 436.42L243.39 437.54L243.5 438.66L243.62 439.77L243.78 440.88L243.95 441.99L244.15 443.1L244.37 444.2L244.61 445.3L244.87 446.39L245.15 447.48L245.46 448.56L245.79 449.64L246.14 450.71L246.5 451.78L246.89 452.84L247.3 453.89L247.73 454.93L248.18 455.97L248.65 457L249.14 458.02L249.65 459.03L250.18 460.03L250.73 461.01L251.29 461.99L251.88 462.96L252.48 463.92L253.1 464.87L253.74 465.8L254.4 466.72L255.07 467.63L255.76 468.53L256.47 469.41L257.2 470.28L257.94 471.13L258.7 471.97L259.47 472.79L260.27 473.6L261.07 474.39L261.9 475.17L262.74 475.93L263.59 476.67L264.46 477.4L265.34 478.1L266.24 478.8L267.14 479.47L268.07 480.13L269 480.77L269.95 481.39L270.9 481.99L271.87 482.57L272.85 483.14L273.84 483.69L274.84 484.22L275.85 484.72L276.87 485.21L277.9 485.68L278.93 486.13L279.98 486.56L281.03 486.97L282.09 487.36L283.15 487.73L284.23 488.08L285.3 488.41L286.39 488.71L287.48 489L288.57 489.26L289.67 489.5L290.77 489.72L291.87 489.92L292.98 490.09L294.09 490.24L295.21 490.37L296.32 490.48L297.44 490.56L298.56 490.62L299.68 490.65L300.8 490.67L301.55 490.66L302.32 490.62L303.1 490.57L303.89 490.5L304.7 490.4L305.52 490.28L306.35 490.14L307.2 489.98L308.06 489.8L308.93 489.6L309.82 489.38L310.72 489.13L311.63 488.86L312.56 488.58L313.5 488.27L314.45 487.94L315.42 487.58L316.4 487.21L317.39 486.82L318.4 486.4L319.42 485.96L320.45 485.5L321.5 485.02L322.56 484.52L323.63 484L324.72 483.46L325.82 482.89L326.93 482.3L328.06 481.7L329.2 481.07L330.35 480.42L331.52 479.74L332.7 479.05L333.89 478.34L335.1 477.6L336.32 476.84L337.55 476.06L338.8 475.26L340.06 474.44L341.33 473.6L426.67 390.4L344.53 308.27L260.27 392.53L259.47 393.34ZM480.96 193.11L479.84 193.17L478.72 193.26L477.61 193.36L476.49 193.49L475.38 193.64L474.27 193.82L473.17 194.01L472.07 194.23L470.97 194.47L469.88 194.74L468.79 195.02L467.7 195.33L466.63 195.65L465.55 196L464.49 196.37L463.43 196.76L462.38 197.17L461.33 197.6L460.3 198.05L459.27 198.52L458.25 199.01L457.24 199.52L456.24 200.05L455.25 200.59L454.27 201.16L453.3 201.74L452.35 202.35L451.4 202.97L450.47 203.61L449.54 204.26L448.64 204.94L447.74 205.63L446.86 206.34L445.99 207.06L445.14 207.81L444.3 208.57L443.47 209.34L442.67 210.13L358.4 294.4L439.47 375.47L523.73 291.2L524.53 290.32L525.3 289.42L526.06 288.52L526.8 287.62L527.53 286.7L528.24 285.78L528.93 284.85L529.6 283.91L530.26 282.97L530.9 282.02L531.52 281.06L532.12 280.09L532.71 279.12L533.27 278.14L533.82 277.16L534.35 276.16L534.86 275.17L535.35 274.16L535.82 273.15L536.27 272.13L536.7 271.11L537.11 270.08L537.5 269.05L537.86 268.01L538.21 266.96L538.54 265.91L538.85 264.85L539.13 263.79L539.39 262.72L539.63 261.65L539.85 260.57L540.05 259.49L540.22 258.4L540.38 257.31L540.5 256.21L540.61 255.11L540.69 254.01L540.75 252.9L540.79 251.78L540.8 250.67L540.79 249.55L540.75 248.43L540.69 247.31L540.61 246.19L540.5 245.08L540.38 243.96L540.22 242.85L540.05 241.74L539.85 240.64L539.63 239.53L539.39 238.44L539.13 237.34L538.85 236.25L538.54 235.17L538.21 234.09L537.86 233.02L537.5 231.95L537.11 230.9L536.7 229.84L536.27 228.8L535.82 227.76L535.35 226.74L534.86 225.72L534.35 224.71L533.82 223.71L533.27 222.72L532.71 221.74L532.12 220.77L531.52 219.81L530.9 218.87L530.26 217.93L529.6 217.01L528.93 216.1L528.24 215.21L527.53 214.33L526.8 213.46L526.06 212.6L525.3 211.76L524.53 210.94L523.73 210.13L522.93 209.34L522.1 208.57L521.26 207.81L520.41 207.06L519.54 206.34L518.66 205.63L517.76 204.94L516.86 204.26L515.93 203.61L515 202.97L514.05 202.35L513.1 201.74L512.13 201.16L511.15 200.59L510.16 200.05L509.16 199.52L508.15 199.01L507.13 198.52L506.1 198.05L505.07 197.6L504.02 197.17L502.97 196.76L501.91 196.37L500.85 196L499.77 195.65L498.7 195.33L497.61 195.02L496.52 194.74L495.43 194.47L494.33 194.23L493.23 194.01L492.13 193.82L491.02 193.64L489.91 193.49L488.79 193.36L487.68 193.26L486.56 193.17L485.44 193.11L484.32 193.08L483.2 193.07L482.08 193.08L480.96 193.11Z" id="a2LC05dW0F"></path><path d="M151.83 178.48L154.62 178.91L157.38 179.51L160.09 180.27L162.77 181.19L165.4 182.27L167.98 183.5L170.51 184.88L173 186.42L175.43 188.09L177.81 189.91L180.14 191.87L182.4 193.96L184.61 196.19L186.75 198.55L188.83 201.03L190.85 203.63L192.79 206.36L194.67 209.2L196.47 212.16L198.2 215.22L199.85 218.4L201.43 221.68L202.93 225.06L204.34 228.54L205.67 232.12L206.91 235.78L208.07 239.54L209.13 243.38L210.11 247.31L210.99 251.32L211.77 255.4L212.46 259.55L213.04 263.78L213.53 268.08L213.91 272.43L214.18 276.85L214.34 281.33L214.4 285.87L214.34 290.4L214.18 294.88L213.91 299.3L213.53 303.66L213.04 307.95L212.46 312.18L211.77 316.34L210.99 320.42L210.11 324.42L209.13 328.35L208.07 332.19L206.91 335.95L205.67 339.62L204.34 343.19L202.93 346.67L201.43 350.05L199.85 353.33L198.2 356.51L196.47 359.58L194.67 362.53L192.79 365.38L190.85 368.1L188.83 370.71L186.75 373.19L184.61 375.54L182.4 377.77L180.14 379.86L177.81 381.82L175.43 383.64L173 385.32L170.51 386.85L167.98 388.23L165.39 389.47L162.77 390.54L160.09 391.46L157.38 392.23L154.62 392.82L151.83 393.25L149 393.51L146.13 393.6L143.27 393.51L140.44 393.25L137.65 392.82L134.89 392.23L132.17 391.46L129.5 390.54L126.87 389.47L124.29 388.23L121.75 386.85L119.27 385.32L116.83 383.64L114.45 381.82L112.13 379.86L109.86 377.77L107.66 375.54L105.51 373.19L103.43 370.71L101.42 368.1L99.48 365.38L97.6 362.53L95.8 359.58L94.07 356.51L92.41 353.33L90.84 350.05L89.34 346.67L87.93 343.19L86.6 339.62L85.35 335.95L84.2 332.19L83.13 328.35L82.16 324.42L81.28 320.42L80.5 316.34L79.81 312.18L79.22 307.95L78.74 303.66L78.36 299.3L78.09 294.88L77.92 290.4L77.87 285.87L77.92 281.33L78.09 276.85L78.36 272.43L78.74 268.08L79.23 263.78L79.81 259.55L80.5 255.4L81.28 251.32L82.16 247.31L83.13 243.38L84.2 239.54L85.35 235.78L86.6 232.12L87.93 228.54L89.34 225.06L90.84 221.68L92.41 218.4L94.07 215.22L95.8 212.16L97.6 209.2L99.48 206.36L101.42 203.63L103.43 201.03L105.51 198.55L107.66 196.19L109.86 193.96L112.13 191.87L114.45 189.91L116.83 188.09L119.27 186.42L121.75 184.88L124.29 183.5L126.87 182.27L129.5 181.19L132.18 180.27L134.89 179.51L137.65 178.91L140.44 178.48L143.27 178.22L146.13 178.13L149 178.22L151.83 178.48ZM99.47 298.57L99.81 301.65L100.2 304.69L100.66 307.7L101.17 310.66L101.75 313.59L102.37 316.48L103.06 319.32L103.79 322.11L104.58 324.85L105.42 327.54L106.31 330.17L107.25 332.75L108.24 335.26L109.27 337.71L110.34 340.1L111.46 342.41L112.62 344.66L113.83 346.83L115.07 348.93L116.35 350.95L117.66 352.89L119.01 354.75L120.4 356.52L121.81 358.21L123.26 359.8L124.74 361.3L126.25 362.7L127.79 364.01L129.35 365.22L130.94 366.32L132.55 367.32L134.18 368.21L135.84 368.99L137.51 369.65L139.2 370.2L140.91 370.64L142.64 370.95L144.38 371.14L146.13 371.2L147.89 371.14L149.63 370.95L151.35 370.65L153.06 370.23L154.76 369.7L156.43 369.05L158.09 368.29L159.72 367.42L161.33 366.45L162.92 365.37L164.48 364.19L166.01 362.91L167.52 361.53L169 360.05L170.45 358.49L171.87 356.83L173.25 355.08L174.61 353.25L175.92 351.33L177.2 349.33L178.44 347.25L179.64 345.1L180.8 342.86L181.92 340.56L183 338.18L184.03 335.73L185.01 333.22L185.95 330.64L186.84 328L187.68 325.3L188.47 322.54L189.21 319.73L189.89 316.86L190.52 313.94L191.09 310.97L191.61 307.96L192.06 304.89L192.46 301.79L192.79 298.65L193.07 295.47L99.2 295.47L99.47 298.57ZM142.64 199.72L140.91 200.03L139.2 200.46L137.51 201.01L135.84 201.68L134.19 202.46L132.56 203.35L130.95 204.35L129.37 205.45L127.81 206.66L126.28 207.96L124.78 209.37L123.31 210.87L121.87 212.46L120.47 214.14L119.09 215.92L117.76 217.77L116.46 219.71L115.2 221.73L113.98 223.83L112.8 226.01L111.67 228.25L110.57 230.57L109.53 232.96L108.53 235.41L107.58 237.92L106.68 240.5L105.83 243.13L105.03 245.82L104.29 248.56L103.6 251.35L102.97 254.19L102.4 257.07L101.89 260L101.44 262.97L101.05 265.98L100.72 269.02L100.46 272.09L100.27 275.2L193.07 275.2L192.79 272.09L192.46 269.02L192.06 265.98L191.61 262.97L191.09 260L190.52 257.07L189.89 254.19L189.21 251.35L188.47 248.56L187.68 245.82L186.84 243.13L185.95 240.5L185.01 237.92L184.03 235.41L183 232.96L181.92 230.57L180.8 228.25L179.64 226.01L178.44 223.83L177.2 221.73L175.92 219.71L174.61 217.77L173.25 215.92L171.87 214.14L170.45 212.46L169 210.87L167.52 209.37L166.01 207.96L164.48 206.66L162.92 205.45L161.33 204.35L159.72 203.35L158.09 202.46L156.43 201.68L154.76 201.01L153.06 200.46L151.35 200.03L149.63 199.72L147.89 199.53L146.13 199.47L144.38 199.53L142.64 199.72Z" id="aGYNGMMZK"></path></defs><g><g><use xlink:href="#d3iJ0SKeFS" opacity="1" fill="#000000" fill-opacity="1"></use><g><use xlink:href="#d3iJ0SKeFS" opacity="1" fill-opacity="0" stroke="#000000" stroke-width="1" stroke-opacity="0"></use></g></g><g><use xlink:href="#a2LC05dW0F" opacity="1" fill="#000000" fill-opacity="1"></use><g><use xlink:href="#a2LC05dW0F" opacity="1" fill-opacity="0" stroke="#000000" stroke-width="1" stroke-opacity="0"></use></g></g><g><use xlink:href="#aGYNGMMZK" opacity="1" fill="#000000" fill-opacity="1"></use><g><use xlink:href="#aGYNGMMZK" opacity="1" fill-opacity="0" stroke="#000000" stroke-width="1" stroke-opacity="0"></use></g></g></g></svg>