<?xml version="1.0" encoding="UTF-8" standalone="no"?>
<!DOCTYPE svg PUBLIC "-//W3C//DTD SVG 1.1//EN" "http://www.w3.org/Graphics/SVG/1.1/DTD/svg11.dtd">
<svg version="1.1" xmlns="http://www.w3.org/2000/svg" xmlns:xlink="http://www.w3.org/1999/xlink" preserveAspectRatio="xMidYMid meet" viewBox="127.00000599999979 55.0269744380809 411.9999872500006 395.97301156191617" width="100" height="96.07"><defs><path d="M325.78 319.84C325.78 321.49 325.78 334.72 325.78 336.37C325.72 340.79 329.25 344.42 333.67 344.48C338.09 344.55 341.72 341.02 341.78 336.6C341.78 336.52 341.78 336.45 341.78 336.37C341.78 334.72 341.78 321.49 341.78 319.84C341.83 315.42 338.29 311.8 333.87 311.75C333.8 311.75 333.73 311.75 333.66 311.75C329.25 311.82 325.73 315.43 325.78 319.84Z" id="cfVECKnhR"></path><path d="M309.75 331.03C309.64 334.64 311.97 337.89 315.44 338.93C317.02 339.45 329.67 343.55 331.25 344.06C335.45 345.45 339.98 343.16 341.37 338.96C342.75 334.76 340.47 330.23 336.27 328.85C336.23 328.83 336.2 328.82 336.16 328.81C334.58 328.3 321.93 324.22 320.34 323.72C319.59 323.45 318.8 323.31 318 323.28C313.58 323.14 309.89 326.61 309.75 331.03Z" id="bpCwTAbs2"></path><path d="M327.28 331.81C326.3 333.15 318.48 343.85 317.5 345.18C314.75 348.64 315.31 353.67 318.77 356.43C322.23 359.18 327.26 358.61 330.01 355.16C330.15 354.98 330.28 354.81 330.41 354.62C331.38 353.28 339.21 342.58 340.19 341.25C342.85 337.72 342.14 332.7 338.61 330.04C337.25 329.02 335.6 328.46 333.91 328.43C331.28 328.4 328.8 329.66 327.28 331.81Z" id="d4eL85qhOC"></path><path d="M325.77 336.81C325.85 338.42 326.41 339.96 327.37 341.25C328.35 342.58 336.15 353.28 337.12 354.62C339.71 358.21 344.71 359.03 348.3 356.45C351.89 353.87 352.71 348.86 350.13 345.27C350.11 345.24 350.08 345.21 350.06 345.18C349.08 343.85 341.26 333.15 340.28 331.81C338.71 329.58 336.1 328.31 333.37 328.43C328.96 328.65 325.56 332.4 325.77 336.81Z" id="c4WQ6SmHRH"></path><path d="M347.22 323.71C345.63 324.22 332.96 328.29 331.37 328.8C327.15 330.13 324.81 334.64 326.14 338.86C327.47 343.08 331.98 345.42 336.2 344.09C336.24 344.08 336.27 344.07 336.31 344.05C337.89 343.54 350.54 339.44 352.12 338.93C356.34 337.61 358.69 333.12 357.37 328.9C356.28 325.41 352.96 323.11 349.31 323.3C348.6 323.35 347.9 323.48 347.22 323.71Z" id="btoe3uHwI"></path><path d="M265.78 95.96C265.78 95.96 265.78 95.96 265.78 95.96C265.78 115.14 265.78 268.57 265.78 287.75C265.72 292.17 269.25 295.8 273.67 295.86C278.09 295.92 281.72 292.39 281.78 287.97C281.78 287.9 281.78 287.82 281.78 287.75C281.78 268.57 281.78 115.14 281.78 95.96C281.85 91.55 278.32 87.91 273.91 87.84C273.82 87.84 273.74 87.84 273.66 87.84C269.24 87.91 265.71 91.55 265.78 95.96Z" id="btzrCVUwL"></path><path d="M225.78 95.96C225.78 95.96 225.78 95.96 225.78 95.96C225.78 115.14 225.78 268.57 225.78 287.75C225.72 292.17 229.25 295.8 233.67 295.86C238.09 295.92 241.72 292.39 241.78 287.97C241.78 287.9 241.78 287.82 241.78 287.75C241.78 268.57 241.78 115.14 241.78 95.96C241.85 91.55 238.32 87.91 233.91 87.84C233.82 87.84 233.74 87.84 233.66 87.84C229.24 87.91 225.71 91.55 225.78 95.96Z" id="i8NICMdZF"></path><path d="M136.04 367.99L136.08 367.99L136.12 367.99L136.16 367.99L136.2 368L136.25 368L136.29 368L136.33 368L136.37 368L136.41 368L136.45 368.01L136.49 368.01L136.53 368.01L136.57 368.01L136.61 368.02L136.65 368.02L136.69 368.02L136.73 368.03L136.77 368.03L136.81 368.04L136.85 368.04L136.89 368.04L136.93 368.05L136.97 368.05L137.01 368.06L137.05 368.06L137.09 368.07L137.13 368.08L137.17 368.08L137.21 368.09L137.25 368.09L137.29 368.1L137.33 368.11L137.37 368.11L137.4 368.12L137.44 368.13L137.48 368.14L137.52 368.14L137.56 368.15L195.31 379.65L202.09 380.97L208.87 382.21L215.66 383.39L222.46 384.5L229.27 385.55L236.08 386.53L242.9 387.44L249.73 388.28L256.57 389.05L263.41 389.76L270.25 390.4L277.1 390.97L283.96 391.48L290.81 391.92L297.67 392.29L304.54 392.59L311.4 392.83L318.27 393L325.13 393.1L332 393.13L338.87 393.1L345.73 393L352.6 392.83L359.46 392.59L366.33 392.29L373.19 391.92L380.04 391.48L386.9 390.97L393.75 390.4L400.59 389.76L407.43 389.05L414.27 388.28L421.1 387.44L427.92 386.53L434.73 385.55L441.54 384.5L448.34 383.39L455.13 382.21L461.91 380.97L468.69 379.65L526.44 368.15L526.48 368.14L526.51 368.14L526.55 368.13L526.59 368.12L526.63 368.12L526.67 368.11L526.71 368.1L526.75 368.1L526.78 368.09L526.82 368.08L526.86 368.08L526.9 368.07L526.94 368.07L526.98 368.06L527.02 368.06L527.06 368.05L527.1 368.05L527.14 368.04L527.17 368.04L527.21 368.04L527.25 368.03L527.29 368.03L527.33 368.03L527.37 368.02L527.41 368.02L527.45 368.02L527.49 368.01L527.53 368.01L527.57 368.01L527.6 368.01L527.64 368.01L527.68 368L527.72 368L527.76 368L527.8 368L527.84 368L527.88 368L527.92 368L527.96 368L528 368L528.33 368L528.65 368.02L528.98 368.06L529.3 368.1L529.61 368.16L529.92 368.23L530.23 368.31L530.53 368.41L530.82 368.51L531.11 368.63L531.4 368.75L531.67 368.89L531.95 369.04L532.21 369.2L532.47 369.36L532.72 369.54L532.97 369.73L533.2 369.92L533.43 370.13L533.66 370.34L533.87 370.56L534.07 370.79L534.27 371.03L534.46 371.27L534.63 371.52L534.8 371.78L534.96 372.05L535.11 372.32L535.24 372.6L535.37 372.88L535.49 373.17L535.59 373.47L535.69 373.77L535.77 374.07L535.84 374.38L535.89 374.7L535.94 375.02L535.97 375.34L535.99 375.67L536 376L536 414.87L535.99 415.16L535.98 415.44L535.95 415.72L535.92 416L535.88 416.27L535.82 416.55L535.76 416.82L535.69 417.08L535.61 417.34L535.52 417.6L535.42 417.86L535.32 418.11L535.2 418.35L535.08 418.6L534.95 418.83L534.81 419.07L534.67 419.29L534.51 419.52L534.35 419.73L534.18 419.94L534.01 420.15L533.83 420.35L533.64 420.54L533.44 420.73L533.24 420.91L533.04 421.09L532.82 421.25L532.6 421.41L532.38 421.57L532.15 421.71L531.91 421.85L531.67 421.98L531.42 422.1L531.17 422.22L530.91 422.32L530.65 422.42L530.39 422.51L530.12 422.58L529.84 422.65L529.56 422.72L471.81 434.21L464.88 435.56L457.95 436.83L451 438.04L444.05 439.18L437.08 440.25L430.11 441.25L423.13 442.18L416.15 443.04L409.16 443.83L402.16 444.55L395.16 445.21L388.15 445.79L381.14 446.31L374.13 446.76L367.11 447.14L360.09 447.45L353.07 447.69L346.05 447.86L339.02 447.97L332 448L324.98 447.97L317.95 447.86L310.93 447.69L303.91 447.45L296.89 447.14L289.87 446.76L282.86 446.31L275.85 445.79L268.84 445.21L261.84 444.55L254.84 443.83L247.85 443.04L240.87 442.18L233.89 441.25L226.92 440.25L219.95 439.18L213 438.04L206.05 436.83L199.12 435.56L192.19 434.21L134.44 422.72L134.16 422.65L133.88 422.58L133.61 422.51L133.35 422.42L133.09 422.32L132.83 422.22L132.58 422.1L132.33 421.98L132.09 421.85L131.85 421.71L131.62 421.57L131.4 421.41L131.18 421.25L130.96 421.09L130.76 420.91L130.56 420.73L130.36 420.54L130.17 420.35L129.99 420.15L129.82 419.94L129.65 419.73L129.49 419.52L129.33 419.29L129.19 419.07L129.05 418.83L128.92 418.6L128.8 418.35L128.68 418.11L128.58 417.86L128.48 417.6L128.39 417.34L128.31 417.08L128.24 416.82L128.18 416.55L128.12 416.27L128.08 416L128.05 415.72L128.02 415.44L128.01 415.16L128 414.87L128 376L128.01 375.67L128.03 375.34L128.06 375.02L128.1 374.7L128.16 374.39L128.23 374.08L128.31 373.77L128.41 373.47L128.51 373.18L128.63 372.89L128.75 372.61L128.89 372.33L129.04 372.06L129.19 371.79L129.36 371.53L129.54 371.28L129.72 371.04L129.92 370.8L130.12 370.57L130.33 370.35L130.55 370.14L130.78 369.93L131.02 369.74L131.26 369.55L131.51 369.37L131.77 369.21L132.03 369.05L132.3 368.9L132.58 368.76L132.86 368.63L133.15 368.52L133.45 368.41L133.74 368.32L134.05 368.23L134.36 368.16L134.67 368.1L134.99 368.06L135.31 368.02L135.63 368L135.96 367.99L136 367.99L136.04 367.99ZM464.88 396.68L457.95 397.96L451 399.17L444.05 400.3L437.08 401.37L430.11 402.37L423.13 403.3L416.15 404.16L409.16 404.96L402.16 405.68L395.16 406.33L388.15 406.92L381.14 407.44L374.13 407.88L367.11 408.26L360.09 408.57L353.07 408.82L346.05 408.99L339.02 409.09L332 409.13L324.98 409.09L317.95 408.99L310.93 408.82L303.91 408.57L296.89 408.26L289.87 407.88L282.86 407.44L275.85 406.92L268.84 406.33L261.84 405.68L254.84 404.96L247.85 404.16L240.87 403.3L233.89 402.37L226.92 401.37L219.95 400.3L213 399.17L206.05 397.96L199.12 396.68L192.19 395.34L144 385.75L144 408.31L195.31 418.53L202.09 419.84L208.87 421.09L215.66 422.27L222.46 423.38L229.27 424.42L236.08 425.4L242.9 426.31L249.73 427.15L256.57 427.93L263.41 428.64L270.25 429.28L277.1 429.85L283.96 430.35L290.81 430.79L297.67 431.16L304.54 431.47L311.4 431.7L318.27 431.87L325.13 431.97L332 432.01L338.87 431.97L345.73 431.87L352.6 431.7L359.46 431.47L366.33 431.16L373.19 430.79L380.04 430.35L386.9 429.85L393.75 429.28L400.59 428.64L407.43 427.93L414.27 427.15L421.1 426.31L427.92 425.4L434.73 424.42L441.54 423.38L448.34 422.27L455.13 421.09L461.91 419.84L468.69 418.53L520 408.31L520 385.75L471.81 395.34L464.88 396.68Z" id="b2evbyTuj"></path><path d="M194 56.16C189.58 56.16 186 59.74 186 64.16C186 93.73 186 330.33 186 359.91C185.94 364.32 189.47 367.96 193.89 368.02C198.31 368.08 201.94 364.55 202 360.13C202 360.06 202 359.98 202 359.91C202 340.72 202 244.81 202 72.16L465.78 72C465.92 244.74 465.99 340.71 466 359.9C465.94 364.32 469.47 367.95 473.89 368.02C478.31 368.08 481.94 364.55 482 360.13C482.01 360.05 482.01 359.98 482 359.9C481.98 330.31 481.8 93.61 481.78 64.03C481.78 59.61 478.2 56.03 473.78 56.03C473.78 56.02 221.98 56.14 194 56.16Z" id="d76Vc0fvw"></path><path d="M193.78 279.84L193.78 295.84L473.78 295.84L473.78 279.84L193.78 279.84Z" id="cohK4puo7"></path><path d="M425.78 95.96C425.78 95.96 425.78 95.96 425.78 95.96C425.78 115.14 425.78 268.57 425.78 287.75C425.72 292.17 429.25 295.8 433.67 295.86C438.09 295.92 441.72 292.39 441.78 287.97C441.78 287.9 441.78 287.82 441.78 287.75C441.78 268.57 441.78 115.14 441.78 95.96C441.85 91.55 438.32 87.91 433.91 87.84C433.82 87.84 433.74 87.84 433.66 87.84C429.24 87.91 425.71 91.55 425.78 95.96Z" id="b8ldANBPhl"></path><path d="M385.78 95.96C385.78 95.96 385.78 95.96 385.78 95.96C385.78 115.14 385.78 268.57 385.78 287.75C385.72 292.17 389.25 295.8 393.67 295.86C398.09 295.92 401.72 292.39 401.78 287.97C401.78 287.9 401.78 287.82 401.78 287.75C401.78 268.57 401.78 115.14 401.78 95.96C401.85 91.55 398.32 87.91 393.91 87.84C393.82 87.84 393.74 87.84 393.66 87.84C389.24 87.91 385.71 91.55 385.78 95.96Z" id="c3ogZjzV6q"></path><path d="M345.78 95.96C345.78 95.96 345.78 95.96 345.78 95.96C345.78 115.14 345.78 268.57 345.78 287.75C345.72 292.17 349.25 295.8 353.67 295.86C358.09 295.92 361.72 292.39 361.78 287.97C361.78 287.9 361.78 287.82 361.78 287.75C361.78 268.57 361.78 115.14 361.78 95.96C361.85 91.55 358.32 87.91 353.91 87.84C353.82 87.84 353.74 87.84 353.66 87.84C349.24 87.91 345.71 91.55 345.78 95.96Z" id="j1qg7W0Ltu"></path><path d="M305.78 95.96C305.78 95.96 305.78 95.96 305.78 95.96C305.78 115.14 305.78 268.57 305.78 287.75C305.72 292.17 309.25 295.8 313.67 295.86C318.09 295.92 321.72 292.39 321.78 287.97C321.78 287.9 321.78 287.82 321.78 287.75C321.78 268.57 321.78 115.14 321.78 95.96C321.85 91.55 318.32 87.91 313.91 87.84C313.82 87.84 313.74 87.84 313.66 87.84C309.24 87.91 305.71 91.55 305.78 95.96Z" id="b2W5NVCwpN"></path><path d="M405.78 319.84C405.78 321.49 405.78 334.72 405.78 336.37C405.72 340.79 409.25 344.42 413.67 344.48C418.09 344.55 421.72 341.02 421.78 336.6C421.78 336.52 421.78 336.45 421.78 336.37C421.78 334.72 421.78 321.49 421.78 319.84C421.83 315.42 418.29 311.8 413.87 311.75C413.8 311.75 413.73 311.75 413.66 311.75C409.25 311.82 405.73 315.43 405.78 319.84Z" id="h1Zr0xMv7N"></path><path d="M389.75 331.03C389.64 334.64 391.97 337.89 395.44 338.93C397.02 339.45 409.67 343.55 411.25 344.06C415.45 345.45 419.98 343.16 421.37 338.96C422.75 334.76 420.47 330.23 416.27 328.85C416.23 328.83 416.2 328.82 416.16 328.81C414.58 328.3 401.93 324.22 400.34 323.72C399.59 323.45 398.8 323.31 398 323.28C393.58 323.14 389.89 326.61 389.75 331.03Z" id="c1uP1h4dLC"></path><path d="M407.28 331.81C406.3 333.15 398.48 343.85 397.5 345.18C394.75 348.64 395.31 353.67 398.77 356.43C402.23 359.18 407.26 358.61 410.01 355.16C410.15 354.98 410.28 354.81 410.41 354.62C411.38 353.28 419.21 342.58 420.19 341.25C422.85 337.72 422.14 332.7 418.61 330.04C417.25 329.02 415.6 328.46 413.91 328.43C411.28 328.4 408.8 329.66 407.28 331.81Z" id="bAQV4zi1h"></path><path d="M405.77 336.81C405.85 338.42 406.41 339.96 407.37 341.25C408.35 342.58 416.15 353.28 417.12 354.62C419.71 358.21 424.71 359.03 428.3 356.45C431.89 353.87 432.71 348.86 430.13 345.27C430.11 345.24 430.08 345.21 430.06 345.18C429.08 343.85 421.26 333.15 420.28 331.81C418.71 329.58 416.1 328.31 413.37 328.43C408.96 328.65 405.56 332.4 405.77 336.81Z" id="d1W4PnCd3"></path><path d="M427.22 323.71C425.63 324.22 412.96 328.29 411.37 328.8C407.15 330.13 404.81 334.64 406.14 338.86C407.47 343.08 411.98 345.42 416.2 344.09C416.24 344.08 416.27 344.07 416.31 344.05C417.89 343.54 430.54 339.44 432.12 338.93C436.34 337.61 438.69 333.12 437.37 328.9C436.28 325.41 432.96 323.11 429.31 323.3C428.6 323.35 427.9 323.48 427.22 323.71Z" id="c6334LoY"></path><path d="M245.78 319.84C245.78 321.49 245.78 334.72 245.78 336.37C245.72 340.79 249.25 344.42 253.67 344.48C258.09 344.55 261.72 341.02 261.78 336.6C261.78 336.52 261.78 336.45 261.78 336.37C261.78 334.72 261.78 321.49 261.78 319.84C261.83 315.42 258.29 311.8 253.87 311.75C253.8 311.75 253.73 311.75 253.66 311.75C249.25 311.82 245.73 315.43 245.78 319.84Z" id="f1JUjjkwS4"></path><path d="M229.75 331.03C229.64 334.64 231.97 337.89 235.44 338.93C237.02 339.45 249.67 343.55 251.25 344.06C255.45 345.45 259.98 343.16 261.37 338.96C262.75 334.76 260.47 330.23 256.27 328.85C256.23 328.83 256.2 328.82 256.16 328.81C254.58 328.3 241.93 324.22 240.34 323.72C239.59 323.45 238.8 323.31 238 323.28C233.58 323.14 229.89 326.61 229.75 331.03Z" id="a3Qd2VJK1"></path><path d="M247.28 331.81C246.3 333.15 238.48 343.85 237.5 345.18C234.75 348.64 235.31 353.67 238.77 356.43C242.23 359.18 247.26 358.61 250.01 355.16C250.15 354.98 250.28 354.81 250.41 354.62C251.38 353.28 259.21 342.58 260.19 341.25C262.85 337.72 262.14 332.7 258.61 330.04C257.25 329.02 255.6 328.46 253.91 328.43C251.28 328.4 248.8 329.66 247.28 331.81Z" id="f1q59BZE1e"></path><path d="M245.77 336.81C245.85 338.42 246.41 339.96 247.37 341.25C248.35 342.58 256.15 353.28 257.12 354.62C259.71 358.21 264.71 359.03 268.3 356.45C271.89 353.87 272.71 348.86 270.13 345.27C270.11 345.24 270.08 345.21 270.06 345.18C269.08 343.85 261.26 333.15 260.28 331.81C258.71 329.58 256.1 328.31 253.37 328.43C248.96 328.65 245.56 332.4 245.77 336.81Z" id="i6QGBiAsBn"></path><path d="M267.22 323.71C265.63 324.22 252.96 328.29 251.37 328.8C247.15 330.13 244.81 334.64 246.14 338.86C247.47 343.08 251.98 345.42 256.2 344.09C256.24 344.08 256.27 344.07 256.31 344.05C257.89 343.54 270.54 339.44 272.12 338.93C276.34 337.61 278.69 333.12 277.37 328.9C276.28 325.41 272.96 323.11 269.31 323.3C268.6 323.35 267.9 323.48 267.22 323.71Z" id="b1YuWkczEi"></path></defs><g><g><use xlink:href="#cfVECKnhR" opacity="1" fill="#000000" fill-opacity="1"></use><g><use xlink:href="#cfVECKnhR" opacity="1" fill-opacity="0" stroke="#000000" stroke-width="1" stroke-opacity="0"></use></g></g><g><use xlink:href="#bpCwTAbs2" opacity="1" fill="#000000" fill-opacity="1"></use><g><use xlink:href="#bpCwTAbs2" opacity="1" fill-opacity="0" stroke="#000000" stroke-width="1" stroke-opacity="0"></use></g></g><g><use xlink:href="#d4eL85qhOC" opacity="1" fill="#000000" fill-opacity="1"></use><g><use xlink:href="#d4eL85qhOC" opacity="1" fill-opacity="0" stroke="#000000" stroke-width="1" stroke-opacity="0"></use></g></g><g><use xlink:href="#c4WQ6SmHRH" opacity="1" fill="#000000" fill-opacity="1"></use><g><use xlink:href="#c4WQ6SmHRH" opacity="1" fill-opacity="0" stroke="#000000" stroke-width="1" stroke-opacity="0"></use></g></g><g><use xlink:href="#btoe3uHwI" opacity="1" fill="#000000" fill-opacity="1"></use><g><use xlink:href="#btoe3uHwI" opacity="1" fill-opacity="0" stroke="#000000" stroke-width="1" stroke-opacity="0"></use></g></g><g><use xlink:href="#btzrCVUwL" opacity="1" fill="#000000" fill-opacity="1"></use><g><use xlink:href="#btzrCVUwL" opacity="1" fill-opacity="0" stroke="#000000" stroke-width="1" stroke-opacity="0"></use></g></g><g><use xlink:href="#i8NICMdZF" opacity="1" fill="#000000" fill-opacity="1"></use><g><use xlink:href="#i8NICMdZF" opacity="1" fill-opacity="0" stroke="#000000" stroke-width="1" stroke-opacity="0"></use></g></g><g><use xlink:href="#b2evbyTuj" opacity="1" fill="#000000" fill-opacity="1"></use><g><use xlink:href="#b2evbyTuj" opacity="1" fill-opacity="0" stroke="#000000" stroke-width="1" stroke-opacity="0"></use></g></g><g><use xlink:href="#d76Vc0fvw" opacity="1" fill="#000000" fill-opacity="1"></use><g><use xlink:href="#d76Vc0fvw" opacity="1" fill-opacity="0" stroke="#000000" stroke-width="1" stroke-opacity="0"></use></g></g><g><use xlink:href="#cohK4puo7" opacity="1" fill="#000000" fill-opacity="1"></use><g><use xlink:href="#cohK4puo7" opacity="1" fill-opacity="0" stroke="#000000" stroke-width="1" stroke-opacity="0"></use></g></g><g><use xlink:href="#b8ldANBPhl" opacity="1" fill="#000000" fill-opacity="1"></use><g><use xlink:href="#b8ldANBPhl" opacity="1" fill-opacity="0" stroke="#000000" stroke-width="1" stroke-opacity="0"></use></g></g><g><use xlink:href="#c3ogZjzV6q" opacity="1" fill="#000000" fill-opacity="1"></use><g><use xlink:href="#c3ogZjzV6q" opacity="1" fill-opacity="0" stroke="#000000" stroke-width="1" stroke-opacity="0"></use></g></g><g><use xlink:href="#j1qg7W0Ltu" opacity="1" fill="#000000" fill-opacity="1"></use><g><use xlink:href="#j1qg7W0Ltu" opacity="1" fill-opacity="0" stroke="#000000" stroke-width="1" stroke-opacity="0"></use></g></g><g><use xlink:href="#b2W5NVCwpN" opacity="1" fill="#000000" fill-opacity="1"></use><g><use xlink:href="#b2W5NVCwpN" opacity="1" fill-opacity="0" stroke="#000000" stroke-width="1" stroke-opacity="0"></use></g></g><g><use xlink:href="#h1Zr0xMv7N" opacity="1" fill="#000000" fill-opacity="1"></use><g><use xlink:href="#h1Zr0xMv7N" opacity="1" fill-opacity="0" stroke="#000000" stroke-width="1" stroke-opacity="0"></use></g></g><g><use xlink:href="#c1uP1h4dLC" opacity="1" fill="#000000" fill-opacity="1"></use><g><use xlink:href="#c1uP1h4dLC" opacity="1" fill-opacity="0" stroke="#000000" stroke-width="1" stroke-opacity="0"></use></g></g><g><use xlink:href="#bAQV4zi1h" opacity="1" fill="#000000" fill-opacity="1"></use><g><use xlink:href="#bAQV4zi1h" opacity="1" fill-opacity="0" stroke="#000000" stroke-width="1" stroke-opacity="0"></use></g></g><g><use xlink:href="#d1W4PnCd3" opacity="1" fill="#000000" fill-opacity="1"></use><g><use xlink:href="#d1W4PnCd3" opacity="1" fill-opacity="0" stroke="#000000" stroke-width="1" stroke-opacity="0"></use></g></g><g><use xlink:href="#c6334LoY" opacity="1" fill="#000000" fill-opacity="1"></use><g><use xlink:href="#c6334LoY" opacity="1" fill-opacity="0" stroke="#000000" stroke-width="1" stroke-opacity="0"></use></g></g><g><use xlink:href="#f1JUjjkwS4" opacity="1" fill="#000000" fill-opacity="1"></use><g><use xlink:href="#f1JUjjkwS4" opacity="1" fill-opacity="0" stroke="#000000" stroke-width="1" stroke-opacity="0"></use></g></g><g><use xlink:href="#a3Qd2VJK1" opacity="1" fill="#000000" fill-opacity="1"></use><g><use xlink:href="#a3Qd2VJK1" opacity="1" fill-opacity="0" stroke="#000000" stroke-width="1" stroke-opacity="0"></use></g></g><g><use xlink:href="#f1q59BZE1e" opacity="1" fill="#000000" fill-opacity="1"></use><g><use xlink:href="#f1q59BZE1e" opacity="1" fill-opacity="0" stroke="#000000" stroke-width="1" stroke-opacity="0"></use></g></g><g><use xlink:href="#i6QGBiAsBn" opacity="1" fill="#000000" fill-opacity="1"></use><g><use xlink:href="#i6QGBiAsBn" opacity="1" fill-opacity="0" stroke="#000000" stroke-width="1" stroke-opacity="0"></use></g></g><g><use xlink:href="#b1YuWkczEi" opacity="1" fill="#000000" fill-opacity="1"></use><g><use xlink:href="#b1YuWkczEi" opacity="1" fill-opacity="0" stroke="#000000" stroke-width="1" stroke-opacity="0"></use></g></g></g></svg>