<?xml version="1.0" encoding="UTF-8" standalone="no"?>
<!DOCTYPE svg PUBLIC "-//W3C//DTD SVG 1.1//EN" "http://www.w3.org/Graphics/SVG/1.1/DTD/svg11.dtd">
<svg version="1.1" xmlns="http://www.w3.org/2000/svg" xmlns:xlink="http://www.w3.org/1999/xlink" preserveAspectRatio="xMidYMid meet" viewBox="135 63 372 388" width="95.83" height="100"><defs><path d="M320 312.72L341.03 328L333 303.28L354.02 288L328.03 288L320 263.28L311.97 288L285.98 288L307 303.28L298.98 328L320 312.72Z" id="aEQmcQIul"></path><path d="M328.65 64.18L332.89 64.41L337.08 64.72L341.21 65.12L345.28 65.6L349.28 66.16L353.21 66.81L357.07 67.53L360.85 68.33L364.56 69.21L368.18 70.16L371.72 71.18L375.17 72.28L378.54 73.44L381.8 74.67L384.97 75.96L388.04 77.32L391.01 78.74L393.87 80.23L396.62 81.77L399.26 83.36L401.78 85.02L404.19 86.72L406.47 88.48L408.63 90.29L410.66 92.15L412.56 94.06L414.32 96.01L415.95 98L417.44 100.04L418.78 102.12L419.98 104.24L421.03 106.39L421.92 108.58L422.66 110.8L423.24 113.06L423.66 115.34L423.91 117.66L424 120L410.43 283.14L414.73 284.31L418.94 285.54L423.07 286.81L427.11 288.14L431.07 289.51L434.93 290.93L438.7 292.39L442.38 293.9L445.97 295.45L449.46 297.05L452.86 298.69L456.16 300.37L459.36 302.09L462.46 303.84L465.47 305.64L468.37 307.47L471.16 309.34L473.85 311.24L476.44 313.18L478.92 315.15L481.28 317.15L483.54 319.19L485.69 321.25L487.73 323.34L489.65 325.47L491.46 327.61L493.15 329.79L494.73 331.99L496.18 334.21L497.52 336.46L498.73 338.73L499.82 341.02L500.79 343.33L501.64 345.66L502.35 348.01L502.94 350.38L503.4 352.76L503.73 355.16L503.93 357.57L504 360L503.85 363.68L503.4 367.32L502.66 370.91L501.63 374.45L500.33 377.95L498.74 381.39L496.89 384.77L494.77 388.1L492.39 391.37L489.76 394.57L486.88 397.7L483.76 400.77L480.4 403.76L476.8 406.68L472.99 409.53L468.95 412.29L464.69 414.98L460.23 417.57L455.56 420.08L450.69 422.5L445.63 424.83L440.38 427.07L434.95 429.2L429.34 431.24L423.56 433.17L417.61 434.99L411.51 436.71L405.24 438.32L398.83 439.81L392.28 441.19L385.58 442.45L378.76 443.59L371.8 444.6L364.72 445.49L357.53 446.24L350.22 446.87L342.81 447.36L335.3 447.71L327.7 447.93L320 448L312.3 447.93L304.7 447.71L297.19 447.36L289.78 446.87L282.47 446.24L275.28 445.49L268.2 444.6L261.24 443.59L254.42 442.45L247.72 441.19L241.17 439.81L234.76 438.32L228.49 436.71L222.39 434.99L216.44 433.17L210.66 431.24L205.05 429.2L199.62 427.07L194.37 424.83L189.31 422.5L184.44 420.08L179.77 417.57L175.31 414.98L171.05 412.29L167.01 409.53L163.2 406.68L159.6 403.76L156.24 400.77L153.12 397.7L150.24 394.57L147.61 391.37L145.23 388.1L143.11 384.77L141.26 381.39L139.67 377.95L138.37 374.45L137.34 370.91L136.6 367.32L136.15 363.68L136 360L136.07 357.57L136.27 355.16L136.6 352.76L137.06 350.38L137.65 348.01L138.36 345.66L139.21 343.33L140.18 341.02L141.27 338.73L142.48 336.46L143.82 334.21L145.28 331.99L146.85 329.79L148.54 327.61L150.35 325.46L152.27 323.34L154.31 321.25L156.46 319.18L158.72 317.15L161.09 315.15L163.57 313.18L166.15 311.24L168.85 309.33L171.64 307.47L174.54 305.63L177.54 303.84L180.65 302.08L183.85 300.36L187.15 298.68L190.55 297.04L194.04 295.45L197.63 293.89L201.31 292.38L205.08 290.92L208.95 289.5L212.9 288.13L216.94 286.8L221.07 285.53L225.29 284.3L229.58 283.13L216.02 120.66L216.02 120.65L216.02 120.65L216.03 120.63L216.03 120.62L216.03 120.61L216.03 120.6L216.03 120.59L216.03 120.56L216.03 120.55L216.04 120.54L216.04 120.53L216.04 120.52L216.04 120.51L216.04 120.5L216.04 120.48L216.04 120.47L216.04 120.46L216.04 120.44L216.04 120.43L216.04 120.42L216.04 120.41L216.04 120.4L216.04 120.38L216.03 120.37L216.03 120.36L216.03 120.35L216.03 120.34L216.03 120.31L216.03 120.29L216.02 120.27L216.02 120.22L216.01 120.2L216.01 120.18L216.01 120.16L216.01 120.15L216.01 120.12L216.01 120.11L216 120.1L216 120.09L216 120.07L216 120.06L216 120.05L216 120.04L216 120.03L216 120.01L216 120L216 119.98L216 119.96L216 119.94L216 119.92L216.01 119.9L216.01 119.88L216.01 119.86L216.01 119.84L216.02 119.82L216.02 119.8L216.02 119.78L216.03 119.77L216.03 119.75L216.04 119.73L216.04 119.71L216.05 119.69L216.05 119.67L216.06 119.65L216.06 119.64L216.07 119.62L216.09 119.54L216.09 119.52L216.1 119.51L216.1 119.49L216.11 119.47L216.11 119.45L216.12 119.43L216.12 119.41L216.13 119.39L216.13 119.38L216.13 119.36L216.14 119.34L216.14 119.32L216.14 119.3L216.15 119.28L216.15 119.26L216.15 119.24L216.33 116.9L216.67 114.59L217.17 112.32L217.83 110.07L218.64 107.86L219.59 105.69L220.7 103.55L221.94 101.45L223.33 99.39L224.86 97.38L226.52 95.41L228.31 93.48L230.23 91.6L232.28 89.76L234.44 87.98L236.73 86.25L239.14 84.57L241.66 82.94L244.29 81.37L247.03 79.86L249.88 78.41L252.82 77.01L255.87 75.68L259.01 74.41L262.25 73.21L265.57 72.07L268.99 71L272.49 70L276.07 69.08L279.73 68.22L283.46 67.44L287.27 66.73L291.15 66.11L295.09 65.56L299.1 65.09L303.17 64.7L307.3 64.4L311.48 64.18L315.72 64.04L320 64L324.35 64.05L328.65 64.18ZM223.83 301.36L220.38 302.45L217 303.58L213.69 304.74L210.45 305.93L207.29 307.15L204.2 308.41L201.19 309.7L198.25 311.02L195.39 312.36L192.61 313.74L189.91 315.14L187.29 316.56L184.76 318.02L182.31 319.49L179.94 320.99L177.67 322.52L175.48 324.06L173.37 325.63L171.36 327.22L169.45 328.82L167.62 330.45L165.89 332.09L164.25 333.75L162.71 335.42L161.27 337.11L159.93 338.81L158.69 340.52L157.55 342.25L156.51 343.99L155.58 345.74L154.75 347.5L154.03 349.27L153.41 351.04L152.91 352.82L152.51 354.61L152.23 356.4L152.06 358.2L152 360L152.14 362.92L152.57 365.81L153.27 368.67L154.25 371.5L155.48 374.3L156.98 377.06L158.73 379.79L160.73 382.48L162.97 385.12L165.44 387.72L168.15 390.27L171.08 392.77L174.22 395.21L177.58 397.6L181.15 399.93L184.91 402.21L188.87 404.41L193.02 406.56L197.34 408.63L201.85 410.64L206.53 412.57L211.37 414.42L216.37 416.2L221.52 417.9L226.83 419.51L232.27 421.04L237.85 422.48L243.55 423.83L249.38 425.08L255.33 426.24L261.39 427.3L267.56 428.26L273.83 429.12L280.19 429.87L286.64 430.51L293.17 431.04L299.78 431.46L306.45 431.76L313.2 431.94L320 432L326.8 431.94L333.55 431.76L340.22 431.46L346.83 431.04L353.36 430.51L359.81 429.87L366.17 429.12L372.44 428.26L378.61 427.3L384.67 426.24L390.62 425.08L396.45 423.83L402.15 422.48L407.73 421.04L413.17 419.51L418.48 417.9L423.63 416.2L428.63 414.42L433.47 412.57L438.15 410.64L442.66 408.63L446.98 406.56L451.13 404.41L455.09 402.21L458.85 399.93L462.42 397.6L465.78 395.21L468.92 392.77L471.85 390.27L474.56 387.72L477.03 385.12L479.27 382.48L481.27 379.79L483.02 377.06L484.52 374.3L485.75 371.5L486.73 368.67L487.43 365.81L487.86 362.92L488 360L487.94 358.2L487.77 356.4L487.49 354.61L487.09 352.82L486.59 351.04L485.97 349.26L485.25 347.5L484.42 345.74L483.49 343.99L482.45 342.25L481.31 340.52L480.07 338.81L478.73 337.11L477.29 335.42L475.75 333.74L474.11 332.09L472.38 330.45L470.56 328.82L468.64 327.22L466.63 325.63L464.53 324.07L462.34 322.52L460.06 321L457.7 319.5L455.25 318.02L452.72 316.57L450.1 315.14L447.4 313.74L444.62 312.37L441.76 311.02L438.83 309.7L435.81 308.42L432.72 307.16L429.56 305.94L426.32 304.74L423.01 303.58L419.63 302.46L416.18 301.37L412.66 300.31L409.08 299.3L407.97 312.66L407.9 314.96L407.69 317.23L407.33 319.47L406.84 321.68L406.22 323.87L405.47 326.02L404.58 328.14L403.57 330.22L402.43 332.27L401.18 334.28L399.8 336.25L398.31 338.17L396.7 340.05L394.98 341.89L393.16 343.68L391.23 345.42L389.19 347.11L387.06 348.75L384.83 350.33L382.5 351.86L380.08 353.33L377.57 354.74L374.97 356.09L372.29 357.37L369.53 358.6L366.68 359.75L363.76 360.84L360.77 361.86L357.7 362.8L354.57 363.68L351.37 364.47L348.1 365.2L344.77 365.84L341.39 366.4L337.95 366.88L334.45 367.28L330.91 367.59L327.32 367.82L323.68 367.95L320 368L316.32 367.95L312.68 367.82L309.09 367.59L305.55 367.28L302.05 366.88L298.61 366.4L295.23 365.84L291.9 365.19L288.63 364.47L285.43 363.67L282.3 362.79L279.23 361.84L276.24 360.82L273.32 359.72L270.47 358.56L267.71 357.33L265.02 356.04L262.43 354.68L259.92 353.26L257.5 351.78L255.17 350.23L252.93 348.64L250.8 346.98L248.76 345.28L246.83 343.52L245.01 341.71L243.29 339.85L241.68 337.94L240.19 335.99L238.81 334L237.55 331.96L236.41 329.88L235.4 327.76L234.51 325.61L233.76 323.42L233.13 321.2L232.64 318.94L232.29 316.66L232.07 314.34L232 312L230.94 299.29L227.35 300.31L223.83 301.36ZM248.04 313L248.22 314.66L248.53 316.29L248.94 317.9L249.48 319.5L250.12 321.07L250.87 322.62L251.73 324.15L252.69 325.64L253.75 327.12L254.91 328.56L256.17 329.97L257.52 331.36L258.96 332.71L260.49 334.02L262.1 335.3L263.8 336.55L265.58 337.75L267.43 338.92L269.36 340.05L271.37 341.13L273.44 342.17L275.59 343.17L277.8 344.12L280.07 345.03L282.4 345.88L284.79 346.69L287.24 347.44L289.74 348.14L292.29 348.79L294.88 349.38L297.53 349.92L300.21 350.39L302.94 350.81L305.7 351.17L308.5 351.46L311.33 351.7L314.2 351.86L317.08 351.97L320 352L322.92 351.97L325.81 351.86L328.67 351.7L331.5 351.47L334.3 351.17L337.06 350.81L339.79 350.4L342.48 349.92L345.12 349.39L347.72 348.8L350.27 348.15L352.77 347.46L355.21 346.71L357.6 345.91L359.93 345.06L362.21 344.16L364.41 343.22L366.56 342.23L368.63 341.2L370.64 340.13L372.57 339.02L374.42 337.86L376.2 336.67L377.9 335.45L379.51 334.18L381.04 332.89L382.48 331.56L383.83 330.2L385.08 328.81L386.24 327.4L387.3 325.95L388.26 324.49L389.12 322.99L389.87 321.48L390.51 319.94L391.04 318.39L391.46 316.81L391.76 315.22L391.94 313.62L392 312L405.28 152.38L404.69 152.83L404.09 153.28L403.48 153.72L402.87 154.16L402.25 154.6L401.62 155.03L400.98 155.46L400.33 155.89L399.68 156.31L399.02 156.72L398.35 157.14L397.67 157.55L396.99 157.95L396.29 158.36L395.6 158.76L394.89 159.15L394.18 159.54L393.46 159.93L392.73 160.31L391.99 160.69L391.25 161.07L390.5 161.44L389.75 161.81L388.98 162.17L388.21 162.53L387.44 162.89L386.65 163.24L385.86 163.59L385.07 163.93L384.26 164.27L383.45 164.6L382.64 164.93L381.82 165.26L380.99 165.58L380.15 165.9L379.31 166.21L378.46 166.52L377.61 166.83L376.75 167.13L375.88 167.42L375.88 167.44L375.88 167.45L375.89 167.47L375.89 167.48L375.89 167.5L375.89 167.51L375.9 167.53L375.9 167.54L375.9 167.55L375.91 167.57L375.91 167.58L375.91 167.6L375.92 167.61L375.92 167.63L375.92 167.64L375.93 167.65L375.93 167.67L375.94 167.7L375.95 167.72L375.95 167.74L375.96 167.75L375.96 167.76L375.97 167.78L375.97 167.79L375.97 167.81L375.98 167.82L375.98 167.84L375.98 167.85L375.99 167.86L375.99 167.88L375.99 167.89L375.99 167.91L376 167.92L376 167.94L376 167.95L376 167.97L376 167.98L376 168L376 232L375.99 232.33L375.97 232.66L375.94 232.98L375.9 233.3L375.84 233.61L375.77 233.92L375.69 234.23L375.59 234.53L375.49 234.82L375.37 235.11L375.25 235.4L375.11 235.68L374.96 235.95L374.8 236.21L374.64 236.47L374.46 236.72L374.27 236.97L374.08 237.21L373.87 237.43L373.66 237.66L373.44 237.87L373.21 238.07L372.97 238.27L372.73 238.46L372.48 238.63L372.22 238.8L371.95 238.96L371.68 239.11L371.4 239.24L371.12 239.37L370.83 239.49L370.53 239.59L370.23 239.69L369.92 239.77L369.61 239.84L369.3 239.9L368.98 239.94L368.66 239.97L368.33 239.99L368 240L367.67 239.99L367.34 239.97L367.02 239.94L366.7 239.9L366.39 239.84L366.08 239.77L365.77 239.69L365.47 239.59L365.17 239.49L364.88 239.37L364.6 239.24L364.32 239.11L364.05 238.96L363.78 238.8L363.52 238.63L363.27 238.46L363.03 238.27L362.79 238.07L362.56 237.87L362.34 237.66L362.13 237.43L361.92 237.21L361.73 236.97L361.54 236.72L361.36 236.47L361.2 236.21L361.04 235.95L360.89 235.68L360.75 235.4L360.63 235.11L360.51 234.82L360.41 234.53L360.31 234.23L360.23 233.92L360.16 233.61L360.1 233.3L360.06 232.98L360.03 232.66L360.01 232.33L360 232L360 171.83L359.25 171.99L358.5 172.15L357.75 172.31L356.99 172.46L356.24 172.61L355.47 172.75L354.71 172.9L353.94 173.04L353.17 173.17L352.4 173.31L351.62 173.44L350.84 173.56L350.06 173.69L349.28 173.81L348.49 173.92L347.7 174.04L346.91 174.15L346.11 174.25L345.31 174.36L344.51 174.46L343.71 174.56L342.9 174.65L342.1 174.74L341.29 174.83L340.47 174.92L339.66 175L338.84 175.08L338.02 175.15L337.2 175.22L336.37 175.29L335.54 175.36L334.71 175.42L333.88 175.48L333.05 175.53L332.21 175.58L331.37 175.63L330.53 175.68L329.69 175.72L328.85 175.76L328 175.79L328 232L327.99 232.33L327.97 232.66L327.94 232.98L327.9 233.3L327.84 233.61L327.77 233.92L327.69 234.23L327.59 234.53L327.49 234.82L327.37 235.11L327.24 235.4L327.11 235.68L326.96 235.95L326.8 236.21L326.63 236.47L326.46 236.72L326.27 236.97L326.07 237.21L325.87 237.43L325.66 237.66L325.43 237.87L325.21 238.07L324.97 238.27L324.72 238.46L324.47 238.63L324.21 238.8L323.95 238.96L323.68 239.11L323.4 239.24L323.11 239.37L322.82 239.49L322.53 239.59L322.23 239.69L321.92 239.77L321.61 239.84L321.3 239.9L320.98 239.94L320.66 239.97L320.33 239.99L320 240L319.67 239.99L319.34 239.97L319.02 239.94L318.7 239.9L318.39 239.84L318.08 239.77L317.77 239.69L317.47 239.59L317.18 239.49L316.89 239.37L316.6 239.24L316.32 239.11L316.05 238.96L315.79 238.8L315.53 238.63L315.28 238.46L315.03 238.27L314.79 238.07L314.57 237.87L314.34 237.66L314.13 237.43L313.93 237.21L313.73 236.97L313.54 236.72L313.37 236.47L313.2 236.21L313.04 235.95L312.89 235.68L312.76 235.4L312.63 235.11L312.51 234.82L312.41 234.53L312.31 234.23L312.23 233.92L312.16 233.61L312.1 233.3L312.06 232.98L312.03 232.66L312.01 232.33L312 232L312 175.79L311.15 175.76L310.31 175.72L309.47 175.68L308.63 175.63L307.79 175.58L306.95 175.53L306.12 175.47L305.29 175.42L304.46 175.35L303.63 175.29L302.8 175.22L301.98 175.15L301.16 175.07L300.34 175L299.53 174.91L298.71 174.83L297.9 174.74L297.1 174.65L296.29 174.55L295.49 174.46L294.69 174.36L293.89 174.25L293.09 174.14L292.3 174.03L291.51 173.92L290.72 173.8L289.94 173.68L289.16 173.56L288.38 173.43L287.6 173.3L286.83 173.17L286.06 173.03L285.29 172.89L284.53 172.75L283.76 172.61L283.01 172.46L282.25 172.31L281.5 172.15L280.75 171.99L280 171.83L280 232L279.99 232.33L279.97 232.66L279.94 232.98L279.9 233.3L279.84 233.61L279.77 233.92L279.69 234.23L279.59 234.53L279.49 234.82L279.37 235.11L279.24 235.4L279.11 235.68L278.96 235.95L278.8 236.21L278.63 236.47L278.46 236.72L278.27 236.97L278.07 237.21L277.87 237.43L277.66 237.66L277.43 237.87L277.21 238.07L276.97 238.27L276.72 238.46L276.47 238.63L276.21 238.8L275.95 238.96L275.68 239.11L275.4 239.24L275.11 239.37L274.82 239.49L274.53 239.59L274.23 239.69L273.92 239.77L273.61 239.84L273.3 239.9L272.98 239.94L272.66 239.97L272.33 239.99L272 240L271.67 239.99L271.34 239.97L271.02 239.94L270.7 239.9L270.39 239.84L270.08 239.77L269.77 239.69L269.47 239.59L269.18 239.49L268.89 239.37L268.6 239.24L268.32 239.11L268.05 238.96L267.79 238.8L267.53 238.63L267.28 238.46L267.03 238.27L266.79 238.07L266.57 237.87L266.34 237.66L266.13 237.43L265.93 237.21L265.73 236.97L265.54 236.72L265.37 236.47L265.2 236.21L265.04 235.95L264.89 235.68L264.76 235.4L264.63 235.11L264.51 234.82L264.41 234.53L264.31 234.23L264.23 233.92L264.16 233.61L264.1 233.3L264.06 232.98L264.03 232.66L264.01 232.33L264 232L264 168L264 167.98L264 167.97L264 167.95L264 167.94L264 167.92L264.01 167.91L264.01 167.89L264.01 167.88L264.01 167.86L264.02 167.85L264.02 167.84L264.02 167.82L264.03 167.81L264.03 167.79L264.03 167.78L264.04 167.76L264.04 167.75L264.05 167.74L264.05 167.72L264.05 167.71L264.06 167.68L264.07 167.65L264.08 167.64L264.08 167.62L264.08 167.61L264.09 167.59L264.09 167.58L264.09 167.57L264.1 167.55L264.1 167.54L264.1 167.52L264.11 167.51L264.11 167.49L264.11 167.48L264.11 167.46L264.12 167.45L264.12 167.43L264.12 167.42L263.54 167.22L262.94 167.01L262.35 166.79L261.74 166.56L261.12 166.33L260.5 166.08L259.87 165.83L259.23 165.56L258.59 165.29L257.93 165.01L257.27 164.72L256.6 164.42L255.92 164.11L255.24 163.79L254.55 163.47L253.85 163.13L253.14 162.79L252.42 162.43L251.7 162.07L250.97 161.7L250.23 161.32L249.48 160.93L248.72 160.53L247.96 160.12L247.19 159.7L246.41 159.28L245.63 158.84L244.83 158.4L244.03 157.95L243.22 157.48L242.41 157.01L241.58 156.53L240.75 156.04L239.91 155.55L239.06 155.04L238.21 154.52L237.34 154L236.47 153.46L235.59 152.92L234.7 152.37L247.98 311.34L248.04 313ZM312.34 80.16L308.61 80.35L304.93 80.61L301.33 80.94L297.79 81.34L294.33 81.81L290.94 82.34L287.62 82.94L284.37 83.59L281.21 84.3L278.12 85.06L275.12 85.88L272.2 86.75L269.37 87.67L266.62 88.63L263.97 89.64L261.4 90.69L258.93 91.78L256.55 92.91L254.28 94.07L252.1 95.26L250.02 96.49L248.04 97.75L246.17 99.03L244.41 100.34L242.75 101.67L241.21 103.02L239.78 104.38L238.46 105.77L237.26 107.17L236.17 108.57L235.21 109.99L234.37 111.42L233.65 112.85L233.06 114.28L232.6 115.72L232.27 117.15L232.07 118.58L232 120L232.07 121.42L232.27 122.85L232.6 124.28L233.06 125.72L233.65 127.15L234.37 128.58L235.21 130.01L236.17 131.43L237.26 132.83L238.46 134.23L239.78 135.62L241.21 136.98L242.75 138.33L244.41 139.66L246.17 140.97L248.04 142.25L250.02 143.51L252.1 144.74L254.28 145.93L256.55 147.1L258.93 148.22L261.4 149.31L263.97 150.36L266.62 151.37L269.37 152.33L272.2 153.25L275.12 154.12L278.12 154.94L281.21 155.7L284.37 156.41L287.62 157.06L290.94 157.66L294.33 158.19L297.79 158.66L301.33 159.06L304.93 159.39L308.61 159.65L312.34 159.84L316.14 159.96L320 160L323.81 159.96L327.56 159.85L331.26 159.66L334.88 159.41L338.45 159.08L341.94 158.69L345.37 158.23L348.73 157.71L352.01 157.13L355.22 156.49L358.35 155.8L361.41 155.05L364.39 154.25L367.28 153.4L370.09 152.51L372.82 151.56L375.46 150.58L378.01 149.55L380.47 148.48L382.84 147.38L385.11 146.24L387.28 145.07L389.36 143.86L391.34 142.63L393.22 141.37L394.99 140.09L396.66 138.78L398.22 137.45L399.67 136.11L401.01 134.75L402.24 133.37L403.35 131.99L404.35 130.59L405.23 129.18L405.98 127.77L406.62 126.36L407.13 124.94L407.52 123.53L407.78 122.11L407.91 120.7L408.03 119.34L407.96 117.96L407.76 116.58L407.42 115.19L406.96 113.8L406.37 112.4L405.65 111.01L404.81 109.62L403.84 108.23L402.76 106.86L401.56 105.49L400.24 104.13L398.8 102.79L397.26 101.46L395.6 100.15L393.84 98.87L391.97 97.6L389.99 96.36L387.91 95.15L385.73 93.97L383.45 92.82L381.07 91.71L378.6 90.63L376.04 89.59L373.38 88.59L370.63 87.63L367.8 86.72L364.88 85.86L361.88 85.05L358.79 84.29L355.63 83.58L352.38 82.93L349.06 82.34L345.67 81.81L342.21 81.34L338.67 80.94L335.07 80.61L331.39 80.35L327.66 80.16L323.86 80.04L320 80L316.14 80.04L312.34 80.16Z" id="dBjasjLAX"></path></defs><g><g><use xlink:href="#aEQmcQIul" opacity="1" fill="#000000" fill-opacity="1"></use><g><use xlink:href="#aEQmcQIul" opacity="1" fill-opacity="0" stroke="#000000" stroke-width="1" stroke-opacity="0"></use></g></g><g><use xlink:href="#dBjasjLAX" opacity="1" fill="#000000" fill-opacity="1"></use><g><use xlink:href="#dBjasjLAX" opacity="1" fill-opacity="0" stroke="#000000" stroke-width="1" stroke-opacity="0"></use></g></g></g></svg>