<?xml version="1.0" encoding="UTF-8" standalone="no"?>
<!DOCTYPE svg PUBLIC "-//W3C//DTD SVG 1.1//EN" "http://www.w3.org/Graphics/SVG/1.1/DTD/svg11.dtd">
<svg version="1.1" xmlns="http://www.w3.org/2000/svg" xmlns:xlink="http://www.w3.org/1999/xlink" preserveAspectRatio="xMidYMid meet" viewBox="63 65.95384615384616 516 382.09230769230777" width="100" height="73.85"><defs><path d="M402.45 67.58L410.08 68.36L417.61 69.43L425.04 70.8L432.37 72.45L439.59 74.39L446.69 76.6L453.67 79.07L460.52 81.82L467.24 84.81L473.81 88.06L480.24 91.56L486.52 95.29L492.63 99.25L498.59 103.44L504.37 107.85L509.97 112.47L515.39 117.31L520.62 122.34L525.65 127.57L530.48 132.99L535.1 138.59L539.51 144.37L543.7 150.32L547.67 156.44L551.4 162.71L554.89 169.14L558.14 175.71L561.14 182.43L563.88 189.28L566.36 196.26L568.57 203.36L570.5 210.58L572.16 217.91L573.52 225.34L574.6 232.88L575.37 240.5L575.84 248.21L576 256L575.84 263.79L575.37 271.5L574.6 279.12L573.52 286.66L572.16 294.09L570.5 301.42L568.56 308.64L566.35 315.74L563.87 322.72L561.12 329.57L558.12 336.29L554.87 342.86L551.37 349.29L547.63 355.56L543.65 361.68L539.45 367.63L535.03 373.41L530.39 379.01L525.54 384.43L520.49 389.66L515.24 394.69L509.8 399.53L504.18 404.15L498.37 408.56L492.39 412.75L486.25 416.71L479.94 420.44L473.48 423.94L466.86 427.19L460.11 430.18L453.21 432.93L446.19 435.4L439.04 437.61L431.77 439.55L424.38 441.2L416.89 442.57L409.3 443.64L401.61 444.42L393.83 444.89L385.97 445.05L382.21 445.01L378.45 444.9L374.71 444.72L370.97 444.46L367.25 444.13L363.54 443.73L359.85 443.25L356.16 442.71L352.5 442.09L348.85 441.4L345.21 440.64L341.6 439.81L338.01 438.91L334.43 437.94L330.88 436.89L327.35 435.78L323.84 434.6L320.36 433.35L316.91 432.03L313.48 430.65L310.08 429.19L306.7 427.67L303.36 426.08L300.05 424.42L296.77 422.69L293.52 420.9L290.31 419.04L287.13 417.11L283.98 415.12L280.88 413.06L277.81 410.94L274.78 408.75L271.79 406.5L268.84 404.18L265.93 401.79L263.07 399.35L260.25 396.84L257.47 394.26L254.74 391.62L252.06 388.92L72.86 388.92L72.49 388.92L72.13 388.89L71.77 388.86L71.42 388.81L71.07 388.74L70.72 388.67L70.38 388.58L70.05 388.47L69.72 388.36L69.4 388.23L69.08 388.09L68.78 387.94L68.47 387.78L68.18 387.6L67.89 387.42L67.62 387.22L67.34 387.02L67.08 386.8L66.83 386.57L66.58 386.34L66.35 386.09L66.12 385.84L65.91 385.58L65.7 385.31L65.51 385.03L65.32 384.74L65.15 384.45L64.98 384.15L64.83 383.84L64.69 383.52L64.56 383.2L64.45 382.87L64.35 382.54L64.26 382.2L64.18 381.86L64.12 381.51L64.07 381.15L64.03 380.79L64.01 380.43L64 380.06L64 323.94L64.01 323.57L64.03 323.21L64.07 322.85L64.12 322.49L64.18 322.14L64.26 321.8L64.35 321.46L64.45 321.13L64.56 320.8L64.69 320.48L64.83 320.16L64.98 319.85L65.15 319.55L65.32 319.26L65.51 318.97L65.7 318.69L65.91 318.42L66.12 318.16L66.35 317.91L66.58 317.66L66.83 317.43L67.08 317.2L67.34 316.98L67.62 316.78L67.89 316.58L68.18 316.4L68.47 316.22L68.78 316.06L69.08 315.91L69.4 315.77L69.72 315.64L70.05 315.53L70.38 315.42L70.72 315.33L71.07 315.26L71.42 315.19L71.77 315.14L72.13 315.11L72.49 315.08L72.86 315.08L506.09 315.08L506.75 313.74L507.39 312.4L508.02 311.06L508.63 309.7L509.23 308.34L509.81 306.97L510.38 305.6L510.93 304.21L511.46 302.83L511.98 301.43L512.49 300.03L512.98 298.62L513.45 297.21L513.91 295.79L514.35 294.36L514.77 292.93L515.18 291.49L515.57 290.04L515.95 288.59L516.31 287.14L516.65 285.68L516.98 284.21L517.28 282.74L517.58 281.26L517.85 279.78L518.11 278.29L518.35 276.8L518.57 275.3L518.78 273.8L518.97 272.29L519.14 270.78L519.29 269.26L519.43 267.74L519.55 266.22L519.65 264.69L519.73 263.16L519.79 261.62L519.84 260.08L519.87 258.53L519.88 256.98L519.77 251.47L519.43 246.02L518.88 240.64L518.12 235.32L517.15 230.07L515.98 224.9L514.61 219.81L513.05 214.8L511.29 209.89L509.35 205.06L507.23 200.33L504.94 195.71L502.47 191.19L499.83 186.77L497.03 182.48L494.07 178.29L490.96 174.24L487.7 170.3L484.29 166.5L480.74 162.83L477.05 159.3L473.23 155.91L469.29 152.67L465.22 149.58L461.03 146.65L456.73 143.87L452.32 141.26L447.8 138.82L443.18 136.54L438.46 134.45L433.65 132.53L428.76 130.8L423.78 129.25L418.72 127.9L413.58 126.74L408.38 125.79L403.11 125.04L397.78 124.5L392.39 124.17L386.95 124.06L384.74 124.08L382.53 124.14L380.33 124.23L378.13 124.36L375.93 124.52L373.74 124.72L371.56 124.96L369.38 125.24L367.21 125.55L365.05 125.89L362.89 126.27L360.74 126.69L358.6 127.15L356.47 127.64L354.35 128.16L352.23 128.72L350.13 129.32L348.03 129.95L345.95 130.62L343.88 131.32L341.81 132.06L339.76 132.83L337.73 133.64L335.7 134.48L333.68 135.36L331.68 136.27L329.7 137.22L327.72 138.2L325.76 139.21L323.82 140.26L321.88 141.34L319.97 142.46L318.07 143.61L316.18 144.8L314.32 146.02L312.46 147.27L310.63 148.56L308.81 149.88L307.01 151.23L305.23 152.62L305.08 152.69L304.94 152.76L304.79 152.84L304.64 152.91L304.49 152.98L304.34 153.06L304.2 153.13L304.05 153.2L303.9 153.27L303.75 153.34L303.61 153.41L303.46 153.47L303.31 153.54L303.16 153.61L303.02 153.67L302.87 153.73L302.72 153.8L302.57 153.85L302.42 153.91L302.28 153.97L302.13 154.02L301.98 154.08L301.83 154.13L301.69 154.18L301.54 154.22L301.39 154.26L301.24 154.31L301.1 154.35L300.95 154.38L300.8 154.42L300.65 154.45L300.5 154.47L300.36 154.5L300.21 154.52L300.06 154.54L299.91 154.56L299.77 154.57L299.62 154.58L299.47 154.58L299.32 154.58L245.17 154.58L244.95 154.58L244.73 154.57L244.51 154.55L244.28 154.53L244.06 154.49L243.84 154.46L243.62 154.41L243.4 154.36L243.19 154.3L242.97 154.23L242.75 154.16L242.54 154.08L242.32 153.99L242.11 153.9L241.9 153.81L241.69 153.7L241.48 153.59L241.27 153.48L241.07 153.36L240.86 153.23L240.66 153.1L240.46 152.96L240.26 152.82L240.06 152.67L239.87 152.52L239.68 152.36L239.49 152.2L239.3 152.03L239.12 151.85L238.94 151.68L238.76 151.49L238.58 151.31L238.41 151.12L238.24 150.92L238.08 150.72L237.91 150.52L237.75 150.31L237.59 150.1L237.44 149.88L237.29 149.66L237.15 149.44L237.02 149.21L236.9 148.98L236.79 148.75L236.69 148.51L236.6 148.27L236.52 148.03L236.45 147.79L236.39 147.54L236.34 147.29L236.3 147.04L236.26 146.79L236.24 146.54L236.23 146.28L236.22 146.03L236.22 145.77L236.23 145.51L236.25 145.26L236.27 145L236.31 144.74L236.35 144.48L236.4 144.22L236.45 143.96L236.51 143.71L236.58 143.45L236.66 143.19L236.74 142.94L236.82 142.69L236.92 142.43L237.02 142.18L237.12 141.94L237.23 141.69L237.34 141.45L237.46 141.2L237.59 140.97L237.72 140.73L237.85 140.5L237.99 140.27L238.13 140.04L238.28 139.82L240.97 136.38L243.74 133.02L246.58 129.74L249.48 126.53L252.46 123.4L255.5 120.34L258.61 117.37L261.77 114.47L265 111.65L268.29 108.91L271.64 106.25L275.04 103.67L278.5 101.17L282.01 98.76L285.58 96.43L289.19 94.18L292.86 92.01L296.57 89.93L300.32 87.94L304.12 86.03L307.97 84.21L311.85 82.48L315.77 80.83L319.73 79.27L323.73 77.81L327.76 76.43L331.82 75.14L335.92 73.95L340.05 72.84L344.2 71.83L348.38 70.91L352.59 70.09L356.82 69.36L361.07 68.73L365.34 68.19L369.63 67.74L373.94 67.4L378.26 67.15L382.6 67L386.95 66.95L394.74 67.11L402.45 67.58ZM381.16 85.79L377.78 85.96L374.42 86.19L371.06 86.49L367.72 86.85L364.39 87.27L361.07 87.76L357.77 88.32L354.48 88.94L351.2 89.62L347.95 90.37L344.71 91.18L341.49 92.05L338.28 92.98L335.1 93.98L331.94 95.04L328.8 96.16L325.68 97.34L322.58 98.58L319.51 99.89L316.47 101.25L313.45 102.68L310.45 104.16L307.49 105.71L304.55 107.31L301.64 108.98L298.76 110.7L295.91 112.48L293.09 114.32L290.31 116.22L287.55 118.18L284.84 120.19L282.15 122.26L279.51 124.39L276.89 126.58L274.32 128.82L271.78 131.11L269.29 133.47L266.83 135.88L297.35 135.88L299.36 134.42L301.37 132.99L303.4 131.6L305.45 130.24L307.51 128.91L309.58 127.62L311.67 126.36L313.77 125.14L315.89 123.95L318.02 122.8L320.16 121.68L322.32 120.6L324.49 119.55L326.67 118.54L328.87 117.57L331.08 116.63L333.31 115.72L335.55 114.86L337.8 114.02L340.06 113.23L342.34 112.47L344.63 111.75L346.93 111.07L349.25 110.43L351.57 109.82L353.92 109.25L356.27 108.72L358.63 108.22L361.01 107.77L363.4 107.35L365.8 106.98L368.21 106.64L370.64 106.34L373.08 106.08L375.53 105.86L377.98 105.68L380.46 105.54L382.94 105.43L385.43 105.37L387.94 105.35L394.11 105.48L400.23 105.85L406.28 106.46L412.25 107.31L418.16 108.39L423.98 109.7L429.72 111.24L435.37 112.99L440.92 114.95L446.37 117.12L451.72 119.5L456.95 122.08L462.07 124.85L467.07 127.81L471.95 130.95L476.7 134.28L481.31 137.78L485.78 141.45L490.1 145.29L494.28 149.29L498.3 153.45L502.16 157.76L505.85 162.22L509.38 166.82L512.73 171.56L515.9 176.43L518.88 181.43L521.68 186.55L524.28 191.8L526.68 197.15L528.87 202.62L530.86 208.19L532.63 213.87L534.18 219.64L535.5 225.5L536.6 231.44L537.46 237.47L538.08 243.58L538.46 249.76L538.58 256L538.53 260.11L538.37 264.18L538.11 268.21L537.74 272.19L537.27 276.13L536.7 280.02L536.04 283.87L535.27 287.68L534.41 291.45L533.45 295.17L532.39 298.85L531.25 302.49L530.01 306.08L528.68 309.64L527.27 313.15L525.76 316.62L524.17 320.05L522.49 323.44L520.73 326.79L518.89 330.09L516.97 333.36L514.97 336.58L512.88 339.77L510.72 342.91L508.49 346.02L506.18 349.08L503.79 352.11L501.34 355.1L498.81 358.05L496.22 360.95L493.55 363.82L490.82 366.66L488.02 369.45L485.16 372.2L482.23 374.92L479.25 377.6L476.2 380.24L473.09 382.84L469.93 385.41L466.71 387.94L466.56 388.01L466.41 388.09L466.26 388.16L466.12 388.23L465.97 388.31L465.82 388.38L465.67 388.45L465.53 388.52L465.38 388.59L465.23 388.66L465.08 388.73L464.94 388.8L464.79 388.86L464.64 388.93L464.49 388.99L464.34 389.06L464.2 389.12L464.05 389.18L463.9 389.24L463.75 389.29L463.61 389.35L463.46 389.4L463.31 389.45L463.16 389.5L463.02 389.54L462.87 389.59L462.72 389.63L462.57 389.67L462.42 389.7L462.28 389.74L462.13 389.77L461.98 389.8L461.83 389.82L461.69 389.84L461.54 389.86L461.39 389.88L461.24 389.89L461.1 389.9L460.95 389.91L460.8 389.91L279.63 389.91L281.93 391.73L284.26 393.51L286.61 395.25L288.99 396.94L291.39 398.58L293.81 400.18L296.26 401.74L298.73 403.25L301.22 404.72L303.74 406.14L306.27 407.51L308.83 408.84L311.41 410.13L314 411.37L316.62 412.56L319.25 413.71L321.9 414.81L324.58 415.87L327.26 416.88L329.97 417.85L332.69 418.76L335.43 419.64L338.18 420.46L340.95 421.24L343.74 421.98L346.53 422.66L349.35 423.3L352.17 423.89L355.01 424.44L357.86 424.94L360.72 425.39L363.6 425.79L366.48 426.15L369.38 426.46L372.29 426.73L375.2 426.94L378.13 427.11L381.06 427.23L384 427.3L386.95 427.32L393.94 427.18L400.87 426.76L407.72 426.07L414.51 425.11L421.21 423.88L427.83 422.4L434.36 420.66L440.79 418.68L447.12 416.46L453.34 414L459.44 411.31L465.42 408.39L471.28 405.26L477 401.91L482.58 398.35L488.01 394.59L493.3 390.62L498.43 386.47L503.39 382.13L508.18 377.6L512.8 372.9L517.24 368.02L521.49 362.98L525.55 357.78L529.41 352.42L533.06 346.91L536.5 341.26L539.72 335.46L542.72 329.53L545.49 323.48L548.03 317.3L550.32 311L552.37 304.58L554.16 298.06L555.69 291.44L556.96 284.72L557.96 277.91L558.68 271.02L559.11 264.04L559.26 256.98L559.12 249.93L558.69 242.95L557.99 236.04L557.02 229.22L555.78 222.48L554.28 215.84L552.52 209.3L550.52 202.87L548.27 196.55L545.78 190.34L543.07 184.25L540.12 178.29L536.95 172.47L533.57 166.78L529.98 161.24L526.18 155.84L522.18 150.61L517.99 145.53L513.61 140.62L509.05 135.88L504.31 131.31L499.39 126.93L494.32 122.74L489.08 118.74L483.68 114.95L478.14 111.35L472.45 107.97L466.63 104.8L460.67 101.86L454.58 99.14L448.38 96.65L442.05 94.4L435.62 92.4L429.08 90.65L422.44 89.15L415.7 87.91L408.88 86.93L401.98 86.23L394.99 85.8L387.94 85.66L384.55 85.69L381.16 85.79ZM82.71 371.2L457.85 371.2L459.3 369.89L460.71 368.62L462.08 367.39L463.41 366.19L464.7 365.03L465.96 363.9L467.17 362.8L468.35 361.72L469.5 360.68L470.62 359.66L471.7 358.67L472.75 357.7L473.78 356.74L474.77 355.81L475.74 354.9L476.69 354L477.61 353.11L478.51 352.24L479.39 351.38L480.25 350.52L481.09 349.68L481.91 348.84L482.72 348L483.51 347.17L484.29 346.33L485.06 345.5L485.81 344.66L486.56 343.82L487.3 342.98L488.03 342.12L488.76 341.26L489.48 340.39L490.2 339.5L490.92 338.6L491.63 337.68L492.35 336.75L493.07 335.79L493.8 334.82L494.53 333.82L495.26 332.8L82.71 332.8L82.71 371.2Z" id="c4Wps4NaOe"></path><path d="M228.08 173.67L232.75 174.14L237.36 174.79L241.91 175.62L246.39 176.62L250.8 177.79L255.14 179.13L259.4 180.63L263.58 182.29L267.68 184.11L271.69 186.08L275.61 188.2L279.43 190.46L283.16 192.87L286.78 195.41L290.3 198.09L293.71 200.9L297.01 203.83L300.18 206.89L303.24 210.07L306.18 213.37L308.99 216.78L311.67 220.29L314.21 223.92L316.62 227.64L318.88 231.47L321 235.39L322.97 239.39L324.78 243.49L326.45 247.67L327.95 251.94L329.29 256.27L330.46 260.69L331.46 265.17L332.29 269.71L332.94 274.32L333.41 278.99L333.69 283.72L333.78 288.49L333.78 288.86L333.76 289.22L333.72 289.58L333.67 289.94L333.61 290.29L333.53 290.63L333.44 290.97L333.34 291.3L333.22 291.63L333.09 291.95L332.95 292.27L332.8 292.58L332.64 292.88L332.46 293.17L332.28 293.46L332.08 293.74L331.88 294.01L331.66 294.27L331.44 294.52L331.2 294.77L330.96 295L330.7 295.23L330.44 295.45L330.17 295.65L329.89 295.85L329.6 296.03L329.31 296.21L329.01 296.37L328.7 296.52L328.38 296.66L328.06 296.79L327.74 296.9L327.4 297.01L327.06 297.1L326.72 297.18L326.37 297.24L326.01 297.29L325.65 297.32L325.29 297.35L324.92 297.35L72.86 297.35L72.49 297.35L72.13 297.32L71.77 297.29L71.42 297.24L71.07 297.18L70.72 297.1L70.38 297.01L70.05 296.9L69.72 296.79L69.4 296.66L69.08 296.52L68.78 296.37L68.47 296.21L68.18 296.03L67.89 295.85L67.62 295.65L67.34 295.45L67.08 295.23L66.83 295L66.58 294.77L66.35 294.52L66.12 294.27L65.91 294.01L65.7 293.74L65.51 293.46L65.32 293.17L65.15 292.88L64.98 292.58L64.83 292.27L64.69 291.95L64.56 291.63L64.45 291.3L64.35 290.97L64.26 290.63L64.18 290.29L64.12 289.94L64.07 289.58L64.03 289.22L64.01 288.86L64 288.49L64 182.15L64.01 181.79L64.03 181.42L64.07 181.06L64.12 180.71L64.18 180.36L64.26 180.01L64.35 179.68L64.45 179.34L64.56 179.01L64.69 178.69L64.83 178.38L64.98 178.07L65.15 177.77L65.32 177.47L65.51 177.19L65.7 176.91L65.91 176.64L66.12 176.38L66.35 176.12L66.58 175.88L66.83 175.64L67.08 175.42L67.34 175.2L67.62 174.99L67.89 174.8L68.18 174.61L68.47 174.44L68.78 174.28L69.08 174.12L69.4 173.98L69.72 173.86L70.05 173.74L70.38 173.64L70.72 173.55L71.07 173.47L71.42 173.41L71.77 173.36L72.13 173.32L72.49 173.3L72.86 173.29L218.58 173.29L223.36 173.39L228.08 173.67ZM82.71 279.63L316.06 279.63L315.62 275.96L315.05 272.33L314.35 268.75L313.52 265.21L312.56 261.73L311.48 258.3L310.28 254.93L308.96 251.61L307.52 248.36L305.97 245.17L304.31 242.05L302.54 238.99L300.66 236.01L298.69 233.1L296.61 230.27L294.43 227.52L292.16 224.85L289.8 222.26L287.34 219.76L284.8 217.35L282.17 215.04L279.46 212.82L276.68 210.69L273.81 208.67L270.87 206.75L267.86 204.93L264.77 203.22L261.63 201.62L258.41 200.14L255.14 198.77L251.8 197.52L248.41 196.39L244.97 195.38L241.47 194.5L237.93 193.75L234.34 193.12L230.71 192.64L227.03 192.28L223.32 192.07L219.57 192L82.71 192L82.71 279.63Z" id="a50wmbSo4G"></path><path d="M420.62 173.5L423.14 173.75L425.62 174.1L428.07 174.54L430.48 175.08L432.86 175.71L435.19 176.44L437.49 177.24L439.74 178.14L441.94 179.12L444.1 180.18L446.21 181.32L448.27 182.54L450.28 183.83L452.23 185.2L454.12 186.64L455.96 188.16L457.73 189.74L459.45 191.38L461.09 193.1L462.67 194.87L464.19 196.71L465.63 198.6L467 200.55L468.29 202.56L469.51 204.62L470.65 206.73L471.71 208.89L472.69 211.09L473.59 213.34L474.4 215.64L475.12 217.97L475.75 220.35L476.29 222.76L476.73 225.21L477.08 227.69L477.33 230.21L477.49 232.75L477.54 235.32L477.49 237.89L477.33 240.44L477.08 242.95L476.73 245.43L476.29 247.88L475.75 250.3L475.12 252.67L474.4 255.01L473.59 257.3L472.69 259.55L471.71 261.76L470.65 263.92L469.51 266.03L468.29 268.09L467 270.09L465.63 272.05L464.19 273.94L462.67 275.77L461.09 277.55L459.45 279.26L457.73 280.91L455.96 282.49L454.12 284L452.23 285.44L450.28 286.81L448.27 288.11L446.21 289.33L444.1 290.47L441.94 291.53L439.74 292.51L437.49 293.4L435.19 294.21L432.86 294.93L430.48 295.56L428.07 296.1L425.62 296.55L423.14 296.9L420.62 297.15L418.08 297.3L415.51 297.35L412.94 297.3L410.39 297.15L407.88 296.9L405.4 296.55L402.95 296.1L400.54 295.56L398.16 294.93L395.82 294.21L393.53 293.4L391.28 292.51L389.07 291.53L386.91 290.47L384.8 289.33L382.74 288.11L380.74 286.81L378.79 285.44L376.89 284L375.06 282.49L373.28 280.91L371.57 279.26L369.92 277.55L368.34 275.77L366.83 273.94L365.39 272.05L364.02 270.09L362.72 268.09L361.5 266.03L360.36 263.92L359.3 261.76L358.32 259.55L357.43 257.3L356.62 255.01L355.9 252.67L355.27 250.3L354.73 247.88L354.28 245.43L353.93 242.95L353.68 240.44L353.53 237.89L353.48 235.32L353.53 232.75L353.68 230.21L353.93 227.69L354.28 225.21L354.73 222.76L355.27 220.35L355.9 217.97L356.62 215.64L357.43 213.34L358.32 211.09L359.3 208.89L360.36 206.73L361.5 204.62L362.72 202.56L364.02 200.55L365.39 198.6L366.83 196.71L368.34 194.87L369.92 193.1L371.57 191.38L373.28 189.74L375.06 188.16L376.89 186.64L378.79 185.2L380.74 183.83L382.74 182.54L384.8 181.32L386.91 180.18L389.07 179.12L391.28 178.14L393.53 177.24L395.82 176.44L398.16 175.71L400.54 175.08L402.95 174.54L405.4 174.1L407.88 173.75L410.39 173.5L412.94 173.34L415.51 173.29L418.08 173.34L420.62 173.5ZM411.85 191.16L410.06 191.34L408.29 191.59L406.54 191.91L404.81 192.29L403.12 192.75L401.45 193.26L399.81 193.84L398.2 194.48L396.62 195.18L395.08 195.93L393.57 196.75L392.1 197.62L390.67 198.54L389.28 199.52L387.92 200.55L386.61 201.63L385.35 202.76L384.12 203.94L382.95 205.16L381.82 206.43L380.74 207.74L379.71 209.09L378.73 210.49L377.8 211.92L376.93 213.39L376.12 214.9L375.36 216.44L374.66 218.02L374.02 219.62L373.44 221.26L372.93 222.93L372.48 224.63L372.09 226.35L371.78 228.1L371.53 229.87L371.35 231.67L371.24 233.49L371.2 235.32L371.24 237.16L371.35 238.98L371.53 240.77L371.78 242.55L372.09 244.29L372.48 246.02L372.93 247.71L373.44 249.38L374.02 251.02L374.66 252.63L375.36 254.21L376.12 255.75L376.93 257.26L377.8 258.73L378.73 260.16L379.71 261.55L380.74 262.91L381.82 264.22L382.95 265.48L384.12 266.71L385.35 267.88L386.61 269.01L387.92 270.09L389.28 271.12L390.67 272.1L392.1 273.03L393.57 273.9L395.08 274.71L396.62 275.47L398.2 276.17L399.81 276.81L401.45 277.39L403.12 277.9L404.81 278.35L406.54 278.74L408.29 279.05L410.06 279.3L411.85 279.48L413.67 279.59L415.51 279.63L417.34 279.59L419.16 279.48L420.96 279.3L422.73 279.05L424.48 278.74L426.2 278.35L427.9 277.9L429.57 277.39L431.21 276.81L432.82 276.17L434.39 275.47L435.93 274.71L437.44 273.9L438.91 273.03L440.34 272.1L441.74 271.12L443.09 270.09L444.4 269.01L445.67 267.88L446.89 266.71L448.07 265.48L449.2 264.22L450.28 262.91L451.31 261.55L452.29 260.16L453.21 258.73L454.08 257.26L454.9 255.75L455.65 254.21L456.35 252.63L456.99 251.02L457.57 249.38L458.09 247.71L458.54 246.02L458.92 244.29L459.24 242.55L459.49 240.77L459.67 238.98L459.78 237.16L459.82 235.32L459.78 233.49L459.67 231.67L459.49 229.87L459.24 228.1L458.92 226.35L458.54 224.63L458.09 222.93L457.57 221.26L456.99 219.62L456.35 218.02L455.65 216.44L454.9 214.9L454.08 213.39L453.21 211.92L452.29 210.49L451.31 209.09L450.28 207.74L449.2 206.43L448.07 205.16L446.89 203.94L445.67 202.76L444.4 201.63L443.09 200.55L441.74 199.52L440.34 198.54L438.91 197.62L437.44 196.75L435.93 195.93L434.39 195.18L432.82 194.48L431.21 193.84L429.57 193.26L427.9 192.75L426.2 192.29L424.48 191.91L422.73 191.59L420.96 191.34L419.16 191.16L417.34 191.05L415.51 191.02L413.67 191.05L411.85 191.16Z" id="c2WNl6DJp"></path></defs><g><g><use xlink:href="#c4Wps4NaOe" opacity="1" fill="#000000" fill-opacity="1"></use><g><use xlink:href="#c4Wps4NaOe" opacity="1" fill-opacity="0" stroke="#000000" stroke-width="1" stroke-opacity="0"></use></g></g><g><use xlink:href="#a50wmbSo4G" opacity="1" fill="#000000" fill-opacity="1"></use><g><use xlink:href="#a50wmbSo4G" opacity="1" fill-opacity="0" stroke="#000000" stroke-width="1" stroke-opacity="0"></use></g></g><g><use xlink:href="#c2WNl6DJp" opacity="1" fill="#000000" fill-opacity="1"></use><g><use xlink:href="#c2WNl6DJp" opacity="1" fill-opacity="0" stroke="#000000" stroke-width="1" stroke-opacity="0"></use></g></g></g></svg>