<?xml version="1.0" encoding="UTF-8" standalone="no"?>
<!DOCTYPE svg PUBLIC "-//W3C//DTD SVG 1.1//EN" "http://www.w3.org/Graphics/SVG/1.1/DTD/svg11.dtd">
<svg version="1.1" xmlns="http://www.w3.org/2000/svg" xmlns:xlink="http://www.w3.org/1999/xlink" preserveAspectRatio="xMidYMid meet" viewBox="62.956933333333346 -1 516.0430666666666 516" width="100" height="99.99"><defs><path d="M494.67 0.03L495.06 0.07L495.46 0.13L495.86 0.2L496.25 0.29L496.64 0.39L497.03 0.51L497.42 0.65L497.8 0.8L498.18 0.97L498.55 1.15L498.92 1.35L499.28 1.57L499.64 1.8L499.99 2.05L500.34 2.31L500.68 2.59L501.01 2.89L501.33 3.2L549.33 51.2L549.65 51.52L549.94 51.86L550.22 52.19L550.49 52.54L550.73 52.89L550.97 53.25L551.18 53.61L551.38 53.98L551.57 54.36L551.73 54.73L551.89 55.12L552.02 55.5L552.14 55.89L552.25 56.28L552.33 56.68L552.41 57.07L552.46 57.47L552.5 57.87L552.53 58.27L552.53 58.67L552.53 59.07L552.5 59.47L552.46 59.86L552.41 60.26L552.33 60.66L552.25 61.05L552.14 61.44L552.02 61.83L551.89 62.22L551.73 62.6L551.57 62.98L551.38 63.35L551.18 63.72L550.97 64.08L550.73 64.44L550.49 64.79L550.22 65.14L549.94 65.48L549.65 65.81L549.33 66.13L539.2 76.35L454.72 161.47L449.44 166.79L408.53 208L427.73 227.2L428.05 227.52L428.34 227.86L428.62 228.19L428.89 228.54L429.13 228.89L429.37 229.25L429.58 229.61L429.78 229.98L429.97 230.36L430.13 230.73L430.29 231.12L430.42 231.5L430.54 231.89L430.65 232.28L430.73 232.68L430.81 233.07L430.86 233.47L430.9 233.87L430.93 234.27L430.93 234.67L430.93 235.07L430.9 235.47L430.86 235.86L430.81 236.26L430.73 236.66L430.65 237.05L430.54 237.44L430.42 237.83L430.29 238.22L430.13 238.6L429.97 238.98L429.78 239.35L429.58 239.72L429.37 240.08L429.13 240.44L428.89 240.79L428.62 241.14L428.34 241.48L428.05 241.81L427.73 242.13L317.87 352L313.51 356.27L309.08 360.45L304.59 364.53L300.02 368.51L295.39 372.39L290.7 376.17L285.94 379.85L281.11 383.44L276.23 386.92L271.28 390.3L266.28 393.58L261.22 396.76L256.1 399.83L250.93 402.8L245.7 405.66L240.42 408.42L235.09 411.08L229.71 413.62L224.28 416.07L218.8 418.4L213.28 420.63L207.71 422.74L202.1 424.75L196.45 426.65L190.75 428.44L185.02 430.11L179.25 431.68L173.44 433.13L167.59 434.47L161.72 435.7L155.81 436.81L149.86 437.81L143.89 438.69L137.89 439.46L131.86 440.11L125.8 440.65L119.72 441.06L113.61 441.36L107.48 441.54L101.33 441.6L100.61 441.6L99.89 441.6L99.17 441.6L98.45 441.6L97.74 441.6L97.02 441.6L96.3 441.59L95.58 441.59L94.87 441.59L94.15 441.58L93.44 441.58L92.72 441.57L92.01 441.56L91.3 441.55L90.59 441.54L89.88 441.53L89.18 441.52L88.47 441.5L87.77 441.49L87.07 441.47L86.37 441.45L85.67 441.42L84.98 441.4L84.28 441.37L83.59 441.34L82.91 441.31L82.22 441.27L81.54 441.23L80.86 441.19L80.18 441.15L79.51 441.1L78.84 441.05L78.17 441L77.51 440.94L76.85 440.89L76.19 440.82L75.54 440.76L74.89 440.69L74.24 440.61L73.6 440.53L73.28 440.53L72.97 440.51L72.66 440.48L72.35 440.44L72.05 440.39L71.76 440.32L71.46 440.25L71.18 440.17L70.89 440.07L70.62 439.97L70.34 439.85L70.08 439.73L69.81 439.59L69.56 439.45L69.31 439.3L69.06 439.13L68.82 438.96L68.59 438.78L68.36 438.6L68.13 438.4L67.92 438.2L67.71 437.98L67.5 437.76L67.3 437.54L67.11 437.3L66.92 437.06L66.75 436.82L66.57 436.56L66.41 436.3L66.25 436.03L66.1 435.76L65.95 435.48L65.82 435.2L65.69 434.91L65.56 434.61L65.45 434.31L65.34 434.01L65.24 433.7L65.15 433.38L65.07 433.07L64.91 432.82L64.77 432.58L64.64 432.33L64.52 432.08L64.41 431.82L64.32 431.56L64.23 431.3L64.16 431.04L64.1 430.77L64.05 430.5L64.01 430.23L63.98 429.96L63.96 429.68L63.96 429.41L63.96 429.13L63.97 428.85L64 428.57L64.03 428.29L64.08 428.01L64.13 427.73L64.2 427.45L64.27 427.17L64.36 426.89L64.45 426.62L64.56 426.34L64.67 426.06L64.79 425.78L64.92 425.51L65.07 425.24L65.22 424.97L65.38 424.7L65.54 424.43L65.72 424.17L65.91 423.9L66.1 423.65L66.31 423.39L66.52 423.14L66.74 422.89L66.96 422.64L67.2 422.4L276.8 212.8L486.4 3.2L486.72 2.89L487.06 2.59L487.39 2.31L487.74 2.05L488.09 1.8L488.45 1.57L488.81 1.35L489.18 1.15L489.56 0.97L489.93 0.8L490.32 0.65L490.7 0.51L491.09 0.39L491.48 0.29L491.88 0.2L492.27 0.13L492.67 0.07L493.07 0.03L493.47 0.01L493.87 0L494.27 0.01L494.67 0.03ZM188.95 329.69L98.13 420.27L100.27 420.27L105.94 420.21L111.6 420.04L117.25 419.77L122.87 419.38L128.49 418.88L134.08 418.27L139.65 417.56L145.19 416.73L150.72 415.8L156.22 414.77L161.69 413.62L167.13 412.38L172.54 411.02L177.92 409.57L183.27 408L188.59 406.34L193.86 404.57L199.1 402.71L204.31 400.74L209.47 398.67L214.59 396.5L219.66 394.23L224.69 391.86L229.67 389.39L234.61 386.83L239.5 384.17L244.33 381.41L249.11 378.56L253.84 375.61L258.52 372.57L263.13 369.43L267.69 366.2L272.19 362.88L276.62 359.46L281 355.95L285.31 352.36L289.55 348.67L293.72 344.89L297.83 341.02L301.87 337.07L370.68 268.25L374.52 264.41L404.27 234.67L400.19 230.59L390.83 221.23L385.07 215.47L384.75 215.14L384.46 214.81L384.18 214.47L383.91 214.13L383.67 213.77L383.43 213.42L383.22 213.05L383.02 212.68L382.83 212.31L382.67 211.93L382.51 211.55L382.38 211.17L382.26 210.78L382.15 210.39L382.07 209.99L381.99 209.6L381.94 209.2L381.9 208.8L381.87 208.4L381.87 208L381.87 207.6L381.9 207.2L381.94 206.8L381.99 206.4L382.07 206.01L382.15 205.61L382.26 205.22L382.38 204.83L382.51 204.45L382.67 204.07L382.83 203.69L383.02 203.32L383.22 202.95L383.43 202.58L383.67 202.23L383.91 201.87L384.18 201.53L384.46 201.19L384.75 200.86L385.07 200.53L526.93 58.67L493.87 25.6L197.86 320.81L188.95 329.69Z" id="a7t83ovSK"></path><path d="M74.67 490.67C68.27 490.67 64 494.93 64 501.33C64 507.73 68.27 512 74.67 512C76.8 512 93.87 512 96 512C102.4 512 106.67 507.73 106.67 501.33C106.67 494.93 102.4 490.67 96 490.67C91.73 490.67 76.8 490.67 74.67 490.67Z" id="bHBKQzuP6"></path><path d="M136.53 490.67C130.13 490.67 125.87 494.93 125.87 501.33C125.87 507.73 130.13 512 136.53 512C140.59 512 173.01 512 177.07 512C183.47 512 187.73 507.73 187.73 501.33C187.73 494.93 183.47 490.67 177.07 490.67C168.96 490.67 140.59 490.67 136.53 490.67Z" id="ihszipB9o"></path><path d="M380.8 490.67C374.4 490.67 370.13 494.93 370.13 501.33C370.13 507.73 374.4 512 380.8 512C384.85 512 417.28 512 421.33 512C427.73 512 432 507.73 432 501.33C432 494.93 427.73 490.67 421.33 490.67C413.23 490.67 384.85 490.67 380.8 490.67Z" id="ejGYRWlYH"></path><path d="M462.93 490.67C456.53 490.67 452.27 494.93 452.27 501.33C452.27 507.73 456.53 512 462.93 512C466.99 512 499.41 512 503.47 512C509.87 512 514.13 507.73 514.13 501.33C514.13 494.93 508.8 490.67 503.47 490.67C495.36 490.67 466.99 490.67 462.93 490.67Z" id="broRZ2pNY"></path><path d="M218.67 490.67C212.27 490.67 208 494.93 208 501.33C208 507.73 212.27 512 218.67 512C222.72 512 255.15 512 259.2 512C265.6 512 269.87 507.73 269.87 501.33C269.87 494.93 264.53 490.67 259.2 490.67C251.09 490.67 222.72 490.67 218.67 490.67Z" id="d1YkoLole"></path><path d="M299.73 490.67C293.33 490.67 289.07 494.93 289.07 501.33C289.07 507.73 293.33 512 299.73 512C303.79 512 336.21 512 340.27 512C346.67 512 350.93 507.73 350.93 501.33C350.93 494.93 346.67 490.67 340.27 490.67C332.16 490.67 303.79 490.67 299.73 490.67Z" id="a1AjJBncsN"></path><path d="M544 490.67C537.6 490.67 533.33 494.93 533.33 501.33C533.33 507.73 537.6 512 544 512C546.13 512 563.2 512 565.33 512C571.73 512 576 507.73 576 501.33C576 494.93 571.73 490.67 565.33 490.67C561.07 490.67 546.13 490.67 544 490.67Z" id="j2W4NHd3SW"></path></defs><g><g><use xlink:href="#a7t83ovSK" opacity="1" fill="#000000" fill-opacity="1"></use><g><use xlink:href="#a7t83ovSK" opacity="1" fill-opacity="0" stroke="#000000" stroke-width="1" stroke-opacity="0"></use></g></g><g><use xlink:href="#bHBKQzuP6" opacity="1" fill="#000000" fill-opacity="1"></use><g><use xlink:href="#bHBKQzuP6" opacity="1" fill-opacity="0" stroke="#000000" stroke-width="1" stroke-opacity="0"></use></g></g><g><use xlink:href="#ihszipB9o" opacity="1" fill="#000000" fill-opacity="1"></use><g><use xlink:href="#ihszipB9o" opacity="1" fill-opacity="0" stroke="#000000" stroke-width="1" stroke-opacity="0"></use></g></g><g><use xlink:href="#ejGYRWlYH" opacity="1" fill="#000000" fill-opacity="1"></use><g><use xlink:href="#ejGYRWlYH" opacity="1" fill-opacity="0" stroke="#000000" stroke-width="1" stroke-opacity="0"></use></g></g><g><use xlink:href="#broRZ2pNY" opacity="1" fill="#000000" fill-opacity="1"></use><g><use xlink:href="#broRZ2pNY" opacity="1" fill-opacity="0" stroke="#000000" stroke-width="1" stroke-opacity="0"></use></g></g><g><use xlink:href="#d1YkoLole" opacity="1" fill="#000000" fill-opacity="1"></use><g><use xlink:href="#d1YkoLole" opacity="1" fill-opacity="0" stroke="#000000" stroke-width="1" stroke-opacity="0"></use></g></g><g><use xlink:href="#a1AjJBncsN" opacity="1" fill="#000000" fill-opacity="1"></use><g><use xlink:href="#a1AjJBncsN" opacity="1" fill-opacity="0" stroke="#000000" stroke-width="1" stroke-opacity="0"></use></g></g><g><use xlink:href="#j2W4NHd3SW" opacity="1" fill="#000000" fill-opacity="1"></use><g><use xlink:href="#j2W4NHd3SW" opacity="1" fill-opacity="0" stroke="#000000" stroke-width="1" stroke-opacity="0"></use></g></g></g></svg>