<?xml version="1.0" encoding="UTF-8" standalone="no"?>
<!DOCTYPE svg PUBLIC "-//W3C//DTD SVG 1.1//EN" "http://www.w3.org/Graphics/SVG/1.1/DTD/svg11.dtd">
<svg version="1.1" xmlns="http://www.w3.org/2000/svg" xmlns:xlink="http://www.w3.org/1999/xlink" preserveAspectRatio="xMidYMid meet" viewBox="63 -1.0000000000000018 516 516" width="100" height="100"><defs><path d="M482.93 0.03L483.33 0.07L483.73 0.13L484.13 0.2L484.52 0.29L484.91 0.39L485.3 0.51L485.68 0.65L486.07 0.8L486.44 0.97L486.82 1.15L487.19 1.35L487.55 1.57L487.91 1.8L488.26 2.05L488.61 2.31L488.94 2.59L489.28 2.89L489.6 3.2L572.8 86.4L573.11 86.65L573.41 86.91L573.69 87.19L573.95 87.48L574.2 87.78L574.43 88.1L574.65 88.43L574.85 88.76L575.03 89.11L575.2 89.47L575.35 89.83L575.49 90.2L575.61 90.58L575.71 90.96L575.8 91.35L575.87 91.74L575.93 92.14L575.97 92.53L575.99 92.93L576 93.33L575.99 93.73L575.97 94.13L575.93 94.53L575.87 94.92L575.8 95.32L575.71 95.7L575.61 96.09L575.49 96.47L575.35 96.84L575.2 97.2L575.03 97.56L574.85 97.9L574.65 98.24L574.43 98.57L574.2 98.88L573.95 99.19L573.69 99.48L573.41 99.76L573.11 100.02L572.8 100.27L572.64 100.42L572.48 100.58L572.32 100.73L572.16 100.87L572 101.02L571.84 101.15L571.67 101.29L571.51 101.42L571.35 101.54L571.18 101.67L571.02 101.78L570.85 101.9L570.68 102.01L570.51 102.11L570.34 102.22L570.17 102.31L570 102.41L569.82 102.5L569.65 102.58L569.47 102.67L569.29 102.74L569.1 102.82L568.92 102.89L568.73 102.95L568.54 103.02L568.35 103.07L568.15 103.13L567.95 103.18L567.75 103.22L567.55 103.27L567.34 103.3L567.13 103.34L566.92 103.37L566.7 103.39L566.49 103.42L566.26 103.43L566.04 103.45L565.81 103.46L565.57 103.46L565.33 103.47L565.17 103.46L565.01 103.46L564.84 103.45L564.66 103.43L564.49 103.42L564.31 103.39L564.13 103.37L563.94 103.34L563.76 103.3L563.57 103.27L563.38 103.22L563.18 103.18L562.99 103.13L562.79 103.07L562.6 103.02L562.4 102.95L562.2 102.89L562 102.82L561.8 102.74L561.6 102.67L561.4 102.58L561.2 102.5L561 102.41L560.8 102.31L560.6 102.22L560.41 102.11L560.21 102.01L560.02 101.9L559.82 101.78L559.63 101.67L559.44 101.54L559.26 101.42L559.07 101.29L558.89 101.15L558.71 101.02L558.54 100.87L558.36 100.73L558.19 100.58L558.03 100.42L557.87 100.27L523.73 66.13L461.87 128L524.8 190.93L525.11 191.26L525.41 191.59L525.69 191.93L525.95 192.27L526.2 192.63L526.43 192.98L526.65 193.35L526.85 193.72L527.03 194.09L527.2 194.47L527.35 194.85L527.49 195.23L527.61 195.62L527.71 196.01L527.8 196.41L527.87 196.8L527.93 197.2L527.97 197.6L527.99 198L528 198.4L527.99 198.8L527.97 199.2L527.93 199.6L527.87 200L527.8 200.39L527.71 200.79L527.61 201.18L527.49 201.57L527.35 201.95L527.2 202.33L527.03 202.71L526.85 203.08L526.65 203.45L526.43 203.82L526.2 204.18L525.95 204.53L525.69 204.87L525.41 205.21L525.11 205.54L524.8 205.87L524.64 206.02L524.48 206.18L524.32 206.33L524.16 206.47L524 206.62L523.84 206.75L523.67 206.89L523.51 207.02L523.35 207.14L523.18 207.27L523.02 207.38L522.85 207.5L522.68 207.61L522.51 207.71L522.34 207.82L522.17 207.91L522 208.01L521.82 208.1L521.65 208.18L521.47 208.27L521.29 208.34L521.1 208.42L520.92 208.49L520.73 208.55L520.54 208.62L520.35 208.67L520.15 208.73L519.95 208.78L519.75 208.82L519.55 208.87L519.34 208.9L519.13 208.94L518.92 208.97L518.7 208.99L518.49 209.02L518.26 209.03L518.04 209.05L517.81 209.06L517.57 209.06L517.33 209.07L517.17 209.06L517.01 209.06L516.84 209.05L516.66 209.03L516.49 209.02L516.31 208.99L516.13 208.97L515.94 208.94L515.76 208.9L515.57 208.87L515.38 208.82L515.18 208.78L514.99 208.73L514.79 208.67L514.6 208.62L514.4 208.55L514.2 208.49L514 208.42L513.8 208.34L513.6 208.27L513.4 208.18L513.2 208.1L513 208.01L512.8 207.91L512.6 207.82L512.41 207.71L512.21 207.61L512.02 207.5L511.82 207.38L511.63 207.27L511.44 207.14L511.26 207.02L511.07 206.89L510.89 206.75L510.71 206.62L510.54 206.47L510.36 206.33L510.19 206.18L510.03 206.02L509.87 205.87L509.75 205.75L503.99 199.99L496.31 192.31L493.91 189.91L488.53 184.53L479.28 193.79L461.39 211.68L452.76 220.31L444.33 228.73L436.12 236.95L420.31 252.76L405.33 267.73L398.16 274.91L391.19 281.88L384.43 288.64L377.88 295.19L371.53 301.53L348.24 324.83L342.93 330.13L332.95 340.12L328.27 344.8L323.8 349.27L319.53 353.53L315.48 357.59L311.63 361.44L307.99 365.08L304.56 368.51L298.32 374.75L295.51 377.56L288.33 384.73L286.36 386.71L283.03 390.04L281.68 391.39L280.53 392.53L279.49 393.48L278.43 394.41L277.36 395.32L276.28 396.21L275.19 397.08L274.08 397.93L272.97 398.75L271.85 399.56L270.71 400.34L269.57 401.1L268.41 401.84L267.25 402.56L266.07 403.25L264.89 403.92L263.7 404.57L262.49 405.2L261.28 405.8L260.06 406.38L258.84 406.93L257.6 407.47L256.36 407.97L255.1 408.46L253.84 408.92L252.58 409.35L251.3 409.76L250.02 410.15L248.74 410.51L247.44 410.84L246.14 411.15L244.83 411.43L243.52 411.69L242.2 411.92L240.88 412.13L239.55 412.3L238.21 412.45L236.87 412.58L235.53 412.67L234.18 412.74L232.82 412.79L231.47 412.8L231.15 412.8L230.83 412.8L230.52 412.8L230.22 412.8L229.91 412.8L229.61 412.8L229.31 412.79L229.02 412.79L228.72 412.79L228.43 412.78L228.14 412.78L227.86 412.77L227.57 412.76L227.29 412.75L227 412.74L226.72 412.73L226.44 412.72L226.16 412.7L225.88 412.69L225.6 412.67L225.32 412.65L225.04 412.62L224.76 412.6L224.48 412.57L224.2 412.54L223.91 412.51L223.63 412.47L223.34 412.43L223.06 412.39L222.77 412.35L222.48 412.3L222.18 412.25L221.89 412.2L221.59 412.14L221.29 412.09L220.98 412.02L220.68 411.96L220.37 411.89L220.05 411.81L219.73 411.73L216.53 414.93L215.97 415.49L215.4 416.03L214.82 416.56L214.23 417.08L213.64 417.58L213.03 418.07L212.42 418.55L211.81 419.02L211.18 419.48L210.55 419.92L209.91 420.35L209.27 420.76L208.61 421.16L207.96 421.55L207.29 421.93L206.62 422.29L205.94 422.64L205.25 422.97L204.56 423.29L203.87 423.6L203.16 423.89L202.45 424.17L201.74 424.44L201.02 424.69L200.29 424.92L199.56 425.14L198.83 425.35L198.08 425.54L197.34 425.72L196.58 425.88L195.83 426.03L195.06 426.16L194.3 426.28L193.52 426.38L192.75 426.47L191.97 426.54L191.18 426.6L190.39 426.63L189.6 426.66L188.8 426.67L188.32 426.66L187.84 426.65L187.36 426.63L186.88 426.6L186.4 426.57L185.92 426.53L185.44 426.48L184.96 426.42L184.48 426.35L184 426.28L183.52 426.2L183.04 426.12L182.56 426.03L182.08 425.93L181.6 425.82L181.12 425.71L180.64 425.59L180.16 425.47L179.68 425.34L179.2 425.2L178.72 425.06L178.24 424.91L177.76 424.75L177.28 424.59L176.8 424.43L176.32 424.26L175.84 424.08L175.36 423.9L174.88 423.71L174.4 423.52L173.92 423.32L173.44 423.12L172.96 422.91L172.48 422.7L172 422.48L171.52 422.26L171.04 422.03L170.56 421.81L170.08 421.57L169.6 421.33L82.13 508.8L81.97 508.96L81.81 509.11L81.65 509.26L81.49 509.41L81.33 509.55L81.17 509.69L81.01 509.82L80.84 509.95L80.68 510.08L80.52 510.2L80.35 510.32L80.18 510.43L80.02 510.54L79.85 510.65L79.68 510.75L79.51 510.85L79.33 510.94L79.16 511.03L78.98 511.12L78.8 511.2L78.62 511.28L78.44 511.35L78.25 511.42L78.06 511.49L77.87 511.55L77.68 511.61L77.49 511.66L77.29 511.71L77.09 511.76L76.88 511.8L76.68 511.84L76.47 511.87L76.25 511.9L76.04 511.93L75.82 511.95L75.6 511.97L75.37 511.98L75.14 511.99L74.9 512L74.67 512L74.43 512L74.19 511.99L73.96 511.98L73.74 511.97L73.51 511.95L73.3 511.93L73.08 511.9L72.87 511.87L72.66 511.84L72.45 511.8L72.25 511.76L72.05 511.71L71.85 511.66L71.65 511.61L71.46 511.55L71.27 511.49L71.08 511.42L70.9 511.35L70.71 511.28L70.53 511.2L70.35 511.12L70.18 511.03L70 510.94L69.83 510.85L69.66 510.75L69.49 510.65L69.32 510.54L69.15 510.43L68.98 510.32L68.82 510.2L68.65 510.08L68.49 509.95L68.33 509.82L68.16 509.69L68 509.55L67.84 509.41L67.68 509.26L67.52 509.11L67.36 508.96L67.2 508.8L66.89 508.48L66.59 508.14L66.31 507.81L66.05 507.46L65.8 507.11L65.57 506.75L65.35 506.39L65.15 506.02L64.97 505.64L64.8 505.27L64.65 504.88L64.51 504.5L64.39 504.11L64.29 503.72L64.2 503.33L64.13 502.93L64.07 502.53L64.03 502.13L64.01 501.73L64 501.33L64.01 500.93L64.03 500.53L64.07 500.14L64.13 499.74L64.2 499.34L64.29 498.95L64.39 498.56L64.51 498.17L64.65 497.78L64.8 497.4L64.97 497.02L65.15 496.65L65.35 496.28L65.57 495.92L65.8 495.56L66.05 495.21L66.31 494.86L66.59 494.52L66.89 494.19L67.2 493.87L154.67 406.4L154.43 406L154.19 405.59L153.97 405.18L153.74 404.77L153.52 404.35L153.3 403.93L153.09 403.5L152.88 403.07L152.68 402.64L152.48 402.2L152.29 401.76L152.1 401.31L151.92 400.86L151.74 400.41L151.57 399.95L151.41 399.49L151.25 399.02L151.09 398.55L150.94 398.08L150.8 397.6L150.66 397.12L150.53 396.63L150.41 396.14L150.29 395.65L150.18 395.15L150.07 394.65L149.97 394.14L149.88 393.63L149.8 393.12L149.72 392.6L149.65 392.08L149.58 391.55L149.52 391.02L149.47 390.49L149.43 389.95L149.4 389.41L149.37 388.86L149.35 388.31L149.34 387.76L149.33 387.2L149.34 386.4L149.37 385.6L149.4 384.8L149.46 384L149.53 383.21L149.62 382.41L149.72 381.62L149.84 380.83L149.97 380.05L150.12 379.27L150.28 378.49L150.46 377.72L150.65 376.95L150.86 376.18L151.08 375.42L151.31 374.67L151.56 373.93L151.83 373.19L152.11 372.46L152.4 371.73L152.71 371.02L153.03 370.31L153.36 369.61L153.71 368.92L154.07 368.24L154.45 367.57L154.84 366.91L155.24 366.26L155.65 365.63L156.08 365L156.52 364.39L156.98 363.78L157.45 363.2L157.93 362.62L158.42 362.06L158.92 361.51L159.44 360.98L159.97 360.46L160.51 359.95L161.07 359.47L164.27 356.27L164.04 354.59L163.86 352.91L163.71 351.23L163.59 349.55L163.52 347.88L163.47 346.21L163.47 344.54L163.5 342.88L163.56 341.22L163.67 339.57L163.8 337.92L163.98 336.28L164.19 334.65L164.43 333.02L164.72 331.4L165.03 329.8L165.39 328.2L165.78 326.61L166.2 325.03L166.67 323.47L167.16 321.91L167.7 320.37L168.27 318.84L168.87 317.33L169.52 315.83L170.19 314.34L170.91 312.87L171.66 311.42L172.44 309.99L173.27 308.57L174.12 307.17L175.02 305.78L175.95 304.42L176.91 303.08L177.92 301.75L178.95 300.45L180.03 299.17L181.14 297.91L182.28 296.68L183.47 295.47L210.78 268.01L235.61 243.05L262 216.53L322.53 155.69L330.29 147.89L390.4 87.47L386.73 83.8L385.87 82.93L374.44 71.51L373.96 71.03L369.07 66.13L368.75 65.81L368.46 65.48L368.18 65.14L367.91 64.79L367.67 64.44L367.43 64.08L367.22 63.72L367.02 63.35L366.83 62.98L366.67 62.6L366.51 62.22L366.38 61.83L366.26 61.44L366.15 61.05L366.07 60.66L365.99 60.26L365.94 59.86L365.9 59.47L365.87 59.07L365.87 58.67L365.87 58.27L365.9 57.87L365.94 57.47L365.99 57.07L366.07 56.68L366.15 56.28L366.26 55.89L366.38 55.5L366.51 55.12L366.67 54.73L366.83 54.36L367.02 53.98L367.22 53.61L367.43 53.25L367.67 52.89L367.91 52.54L368.18 52.19L368.46 51.86L368.75 51.52L369.07 51.2L369.39 50.89L369.72 50.59L370.06 50.31L370.41 50.05L370.76 49.8L371.12 49.57L371.48 49.35L371.85 49.15L372.22 48.97L372.6 48.8L372.98 48.65L373.37 48.51L373.76 48.39L374.15 48.29L374.54 48.2L374.94 48.13L375.34 48.07L375.73 48.03L376.13 48.01L376.53 48L376.93 48.01L377.33 48.03L377.73 48.07L378.13 48.13L378.53 48.2L378.92 48.29L379.31 48.39L379.7 48.51L380.08 48.65L380.47 48.8L380.84 48.97L381.22 49.15L381.59 49.35L381.95 49.57L382.31 49.8L382.66 50.05L383.01 50.31L383.34 50.59L383.68 50.89L384 51.2L446.93 114.13L508.8 52.27L474.67 18.13L474.35 17.81L474.06 17.48L473.78 17.14L473.51 16.79L473.27 16.44L473.03 16.08L472.82 15.72L472.62 15.35L472.43 14.98L472.27 14.6L472.11 14.22L471.98 13.83L471.86 13.44L471.75 13.05L471.67 12.66L471.59 12.26L471.54 11.86L471.5 11.47L471.47 11.07L471.47 10.67L471.47 10.27L471.5 9.87L471.54 9.47L471.59 9.07L471.67 8.67L471.75 8.28L471.86 7.89L471.98 7.5L472.11 7.12L472.27 6.73L472.43 6.36L472.62 5.98L472.82 5.61L473.03 5.25L473.27 4.89L473.51 4.54L473.78 4.19L474.06 3.86L474.35 3.52L474.67 3.2L474.99 2.89L475.32 2.59L475.66 2.31L476.01 2.05L476.36 1.8L476.72 1.57L477.08 1.35L477.45 1.15L477.82 0.97L478.2 0.8L478.58 0.65L478.97 0.51L479.36 0.39L479.75 0.29L480.14 0.2L480.54 0.13L480.94 0.07L481.33 0.03L481.73 0.01L482.13 0L482.53 0.01L482.93 0.03ZM388.1 120.7L362.2 146.6L345.98 162.82L316.02 192.78L309.06 199.74L302.3 206.5L255.7 253.1L250.82 257.98L246.14 262.66L241.66 267.14L237.4 271.4L233.34 275.46L229.5 279.3L225.86 282.94L222.42 286.38L219.2 289.6L213.38 295.42L208.38 300.42L202.46 306.34L200.9 307.9L199.54 309.26L198.4 310.4L197.53 311.29L196.7 312.2L195.89 313.13L195.11 314.07L194.35 315.04L193.63 316.02L192.93 317.02L192.26 318.04L191.63 319.07L191.02 320.12L190.44 321.18L189.88 322.26L189.36 323.35L188.87 324.45L188.41 325.57L187.97 326.7L187.57 327.84L187.19 328.99L186.85 330.16L186.53 331.33L186.25 332.52L185.99 333.71L185.77 334.92L185.57 336.13L185.41 337.35L185.28 338.58L185.17 339.81L185.1 341.05L185.06 342.3L185.05 343.55L185.07 344.81L185.12 346.07L185.2 347.34L185.32 348.6L185.46 349.88L185.64 351.15L185.85 352.43L186.09 353.71L186.36 354.99L186.67 356.27L186.74 356.58L186.81 356.9L186.87 357.21L186.92 357.52L186.97 357.82L187 358.12L187.03 358.41L187.05 358.71L187.06 359L187.07 359.28L187.06 359.57L187.05 359.85L187.03 360.13L187 360.4L186.97 360.67L186.92 360.94L186.87 361.21L186.81 361.48L186.74 361.74L186.67 362L186.58 362.26L186.49 362.52L186.39 362.77L186.28 363.03L186.17 363.28L186.04 363.53L185.91 363.78L185.77 364.02L185.62 364.27L185.47 364.52L185.3 364.76L185.13 365L184.95 365.25L184.76 365.49L184.57 365.73L184.36 365.97L184.15 366.21L183.93 366.45L183.7 366.69L183.47 366.93L176 374.4L175.76 374.64L175.53 374.9L175.3 375.15L175.07 375.42L174.85 375.69L174.64 375.97L174.42 376.26L174.22 376.55L174.01 376.85L173.82 377.15L173.62 377.46L173.44 377.77L173.25 378.09L173.08 378.41L172.91 378.73L172.74 379.06L172.58 379.39L172.43 379.72L172.28 380.06L172.13 380.4L172 380.74L171.87 381.08L171.74 381.43L171.62 381.77L171.51 382.12L171.4 382.47L171.31 382.81L171.21 383.16L171.13 383.5L171.05 383.85L170.98 384.19L170.91 384.54L170.86 384.88L170.81 385.22L170.76 385.56L170.73 385.89L170.7 386.22L170.68 386.55L170.67 386.88L170.67 387.2L170.67 387.52L170.68 387.85L170.7 388.18L170.73 388.51L170.76 388.84L170.81 389.18L170.86 389.52L170.91 389.86L170.98 390.21L171.05 390.55L171.13 390.9L171.21 391.24L171.31 391.59L171.4 391.93L171.51 392.28L171.62 392.63L171.74 392.97L171.87 393.32L172 393.66L172.13 394L172.28 394.34L172.43 394.68L172.58 395.01L172.74 395.34L172.91 395.67L173.08 395.99L173.25 396.31L173.44 396.63L173.62 396.94L173.82 397.25L174.01 397.55L174.22 397.85L174.42 398.14L174.64 398.43L174.85 398.71L175.07 398.98L175.3 399.25L175.53 399.5L175.76 399.76L176 400L176.57 400.55L177.15 401.06L177.75 401.55L178.36 402.02L178.98 402.45L179.62 402.86L180.27 403.23L180.92 403.58L181.59 403.91L182.27 404.2L182.95 404.47L183.64 404.7L184.34 404.91L185.04 405.1L185.75 405.25L186.46 405.38L187.18 405.47L187.89 405.54L188.61 405.59L189.33 405.6L190.05 405.59L190.77 405.54L191.49 405.47L192.2 405.38L192.92 405.25L193.62 405.1L194.33 404.91L195.03 404.7L195.72 404.47L196.4 404.2L197.08 403.91L197.74 403.58L198.4 403.23L199.05 402.86L199.68 402.45L200.31 402.02L200.92 401.55L201.52 401.06L202.1 400.55L202.67 400L209.07 392.53L209.31 392.3L209.55 392.07L209.8 391.85L210.06 391.64L210.31 391.43L210.57 391.24L210.83 391.05L211.1 390.87L211.36 390.7L211.63 390.53L211.9 390.38L212.18 390.23L212.45 390.09L212.73 389.96L213 389.83L213.28 389.72L213.56 389.61L213.84 389.51L214.12 389.42L214.4 389.33L214.68 389.26L214.96 389.19L215.24 389.13L215.52 389.08L215.8 389.03L216.07 389L216.35 388.97L216.62 388.95L216.9 388.94L217.17 388.93L217.44 388.94L217.7 388.95L217.97 388.97L218.23 389L218.49 389.03L218.74 389.08L219 389.13L219.25 389.19L219.49 389.26L219.73 389.33L220.94 389.71L222.15 390.05L223.37 390.36L224.59 390.62L225.82 390.84L227.05 391.03L228.28 391.18L229.52 391.29L230.76 391.36L232 391.4L233.24 391.4L234.48 391.37L235.72 391.3L236.95 391.2L238.18 391.06L239.41 390.89L240.63 390.68L241.85 390.44L243.06 390.17L244.27 389.87L245.46 389.53L246.65 389.16L247.83 388.76L248.99 388.33L250.15 387.88L251.29 387.39L252.42 386.87L253.54 386.32L254.65 385.74L255.73 385.13L256.81 384.5L257.86 383.84L258.9 383.15L259.92 382.43L260.92 381.69L261.9 380.92L262.86 380.13L263.79 379.31L264.71 378.47L265.6 377.6L265.91 377.29L266.55 376.65L266.75 376.45L267.71 375.49L267.99 375.21L268.6 374.6L269.27 373.93L269.63 373.57L270.01 373.19L270.81 372.39L271.23 371.97L271.67 371.53L272.13 371.07L272.6 370.6L273.09 370.11L273.59 369.61L274.11 369.09L274.65 368.55L275.2 368L276.35 366.85L276.95 366.25L278.2 365L278.85 364.35L280.19 363.01L280.89 362.31L281.6 361.6L264.53 344.53L264.22 344.21L263.93 343.88L263.65 343.54L263.38 343.19L263.13 342.84L262.9 342.48L262.69 342.12L262.49 341.75L262.3 341.38L262.13 341L261.98 340.62L261.85 340.23L261.73 339.84L261.62 339.45L261.53 339.06L261.46 338.66L261.41 338.26L261.37 337.87L261.34 337.47L261.33 337.07L261.34 336.67L261.37 336.27L261.41 335.87L261.46 335.47L261.53 335.08L261.62 334.68L261.73 334.29L261.85 333.9L261.98 333.52L262.13 333.13L262.3 332.76L262.49 332.38L262.69 332.01L262.9 331.65L263.13 331.29L263.38 330.94L263.65 330.59L263.93 330.26L264.22 329.92L264.53 329.6L264.86 329.29L265.19 328.99L265.53 328.71L265.87 328.45L266.23 328.2L266.58 327.97L266.95 327.75L267.32 327.55L267.69 327.37L268.07 327.2L268.45 327.05L268.83 326.91L269.22 326.79L269.61 326.69L270.01 326.6L270.4 326.53L270.8 326.47L271.2 326.43L271.6 326.41L272 326.4L272.4 326.41L272.8 326.43L273.2 326.47L273.6 326.53L273.99 326.6L274.39 326.69L274.78 326.79L275.17 326.91L275.55 327.05L275.93 327.2L276.31 327.37L276.68 327.55L277.05 327.75L277.42 327.97L277.78 328.2L278.13 328.45L278.47 328.71L278.81 328.99L279.14 329.29L279.47 329.6L296.53 346.67L328.53 314.67L311.47 297.6L311.15 297.28L310.86 296.94L310.58 296.61L310.31 296.26L310.07 295.91L309.83 295.55L309.62 295.19L309.42 294.82L309.23 294.44L309.07 294.07L308.91 293.68L308.78 293.3L308.66 292.91L308.55 292.52L308.47 292.13L308.39 291.73L308.34 291.33L308.3 290.93L308.27 290.53L308.27 290.13L308.27 289.73L308.3 289.33L308.34 288.94L308.39 288.54L308.47 288.14L308.55 287.75L308.66 287.36L308.78 286.97L308.91 286.58L309.07 286.2L309.23 285.82L309.42 285.45L309.62 285.08L309.83 284.72L310.07 284.36L310.31 284.01L310.58 283.66L310.86 283.32L311.15 282.99L311.47 282.67L311.79 282.35L312.12 282.06L312.46 281.78L312.81 281.51L313.16 281.27L313.52 281.03L313.88 280.82L314.25 280.62L314.62 280.43L315 280.27L315.38 280.11L315.77 279.98L316.16 279.86L316.55 279.75L316.94 279.67L317.34 279.59L317.74 279.54L318.13 279.5L318.53 279.47L318.93 279.47L319.33 279.47L319.73 279.5L320.13 279.54L320.53 279.59L320.93 279.67L321.32 279.75L321.71 279.86L322.1 279.98L322.48 280.11L322.87 280.27L323.24 280.43L323.62 280.62L323.99 280.82L324.35 281.03L324.71 281.27L325.06 281.51L325.41 281.78L325.74 282.06L326.08 282.35L326.4 282.67L343.47 299.73L375.47 267.73L358.4 250.67L358.09 250.34L357.79 250.01L357.51 249.67L357.25 249.33L357 248.98L356.77 248.62L356.55 248.25L356.35 247.88L356.17 247.51L356 247.13L355.85 246.75L355.71 246.37L355.59 245.98L355.49 245.59L355.4 245.19L355.33 244.8L355.27 244.4L355.23 244L355.21 243.6L355.2 243.2L355.21 242.8L355.23 242.4L355.27 242L355.33 241.6L355.4 241.21L355.49 240.81L355.59 240.42L355.71 240.03L355.85 239.65L356 239.27L356.17 238.89L356.35 238.52L356.55 238.15L356.77 237.78L357 237.43L357.25 237.07L357.51 236.73L357.79 236.39L358.09 236.06L358.4 235.73L358.72 235.42L359.06 235.13L359.39 234.85L359.74 234.58L360.09 234.33L360.45 234.1L360.81 233.89L361.18 233.69L361.56 233.5L361.93 233.33L362.32 233.18L362.7 233.05L363.09 232.93L363.48 232.82L363.88 232.73L364.27 232.66L364.67 232.61L365.07 232.57L365.47 232.54L365.87 232.53L366.27 232.54L366.67 232.57L367.06 232.61L367.46 232.66L367.86 232.73L368.25 232.82L368.64 232.93L369.03 233.05L369.42 233.18L369.8 233.33L370.18 233.5L370.55 233.69L370.92 233.89L371.28 234.1L371.64 234.33L371.99 234.58L372.34 234.85L372.68 235.13L373.01 235.42L373.33 235.73L391.47 252.8L423.47 220.8L419.84 217.17L406.4 203.73L406.09 203.41L405.79 203.08L405.51 202.74L405.25 202.39L405 202.04L404.77 201.68L404.55 201.32L404.35 200.95L404.17 200.58L404 200.2L403.85 199.82L403.71 199.43L403.59 199.04L403.49 198.65L403.4 198.26L403.33 197.86L403.27 197.46L403.23 197.07L403.21 196.67L403.2 196.27L403.21 195.87L403.23 195.47L403.27 195.07L403.33 194.67L403.4 194.27L403.49 193.88L403.59 193.49L403.71 193.1L403.85 192.72L404 192.33L404.17 191.96L404.35 191.58L404.55 191.21L404.77 190.85L405 190.49L405.25 190.14L405.51 189.79L405.79 189.46L406.09 189.12L406.4 188.8L406.72 188.49L407.06 188.19L407.39 187.91L407.74 187.65L408.09 187.4L408.45 187.17L408.81 186.95L409.18 186.75L409.56 186.57L409.93 186.4L410.32 186.25L410.7 186.11L411.09 185.99L411.48 185.89L411.88 185.8L412.27 185.73L412.67 185.67L413.07 185.63L413.47 185.61L413.87 185.6L414.27 185.61L414.67 185.63L415.06 185.67L415.46 185.73L415.86 185.8L416.25 185.89L416.64 185.99L417.03 186.11L417.42 186.25L417.8 186.4L418.18 186.57L418.55 186.75L418.92 186.95L419.28 187.17L419.64 187.4L419.99 187.65L420.34 187.91L420.68 188.19L421.01 188.49L421.33 188.8L438.4 205.87L473.6 169.6L406.4 102.4L397.14 111.66L388.1 120.7Z" id="auqv02ezd"></path></defs><g><g><use xlink:href="#auqv02ezd" opacity="1" fill="#000000" fill-opacity="1"></use><g><use xlink:href="#auqv02ezd" opacity="1" fill-opacity="0" stroke="#000000" stroke-width="1" stroke-opacity="0"></use></g></g></g></svg>