<?xml version="1.0" encoding="UTF-8" standalone="no"?>
<!DOCTYPE svg PUBLIC "-//W3C//DTD SVG 1.1//EN" "http://www.w3.org/Graphics/SVG/1.1/DTD/svg11.dtd">
<svg version="1.1" xmlns="http://www.w3.org/2000/svg" xmlns:xlink="http://www.w3.org/1999/xlink" preserveAspectRatio="xMidYMid meet" viewBox="63 -1 516 516" width="100" height="100"><defs><path d="M536.82 0.14L538.54 0.32L540.23 0.56L541.9 0.87L543.55 1.25L545.18 1.68L546.78 2.18L548.36 2.75L549.9 3.37L551.41 4.05L552.9 4.78L554.35 5.57L555.77 6.42L557.15 7.31L558.49 8.26L559.79 9.26L561.06 10.3L562.28 11.4L563.47 12.53L564.6 13.72L565.7 14.94L566.74 16.21L567.74 17.51L568.69 18.85L569.58 20.23L570.43 21.65L571.22 23.1L571.95 24.59L572.63 26.1L573.25 27.64L573.82 29.22L574.32 30.82L574.75 32.45L575.13 34.1L575.44 35.77L575.68 37.46L575.86 39.18L575.96 40.91L576 42.67L576 469.33L575.96 471.09L575.86 472.82L575.68 474.54L575.44 476.23L575.13 477.9L574.75 479.55L574.32 481.18L573.82 482.78L573.25 484.36L572.63 485.9L571.95 487.41L571.22 488.9L570.43 490.35L569.58 491.77L568.69 493.15L567.74 494.49L566.74 495.79L565.7 497.06L564.6 498.28L563.47 499.47L562.28 500.6L561.06 501.7L559.79 502.74L558.49 503.74L557.15 504.69L555.77 505.58L554.35 506.43L552.9 507.22L551.41 507.95L549.9 508.63L548.36 509.25L546.78 509.82L545.18 510.32L543.55 510.75L541.9 511.13L540.23 511.44L538.54 511.68L536.82 511.86L535.09 511.96L533.33 512L106.67 512L104.91 511.96L103.18 511.86L101.46 511.68L99.77 511.44L98.1 511.13L96.45 510.75L94.82 510.32L93.22 509.82L91.64 509.25L90.1 508.63L88.59 507.95L87.1 507.22L85.65 506.43L84.23 505.58L82.85 504.69L81.51 503.74L80.21 502.74L78.94 501.7L77.72 500.6L76.53 499.47L75.4 498.28L74.3 497.06L73.26 495.79L72.26 494.49L71.31 493.15L70.42 491.77L69.57 490.35L68.78 488.9L68.05 487.41L67.37 485.9L66.75 484.36L66.18 482.78L65.68 481.18L65.25 479.55L64.87 477.9L64.56 476.23L64.32 474.54L64.14 472.82L64.04 471.09L64 469.33L64 42.67L64.04 40.91L64.14 39.18L64.32 37.46L64.56 35.77L64.87 34.1L65.25 32.45L65.68 30.82L66.18 29.22L66.75 27.64L67.37 26.1L68.05 24.59L68.78 23.1L69.57 21.65L70.42 20.23L71.31 18.85L72.26 17.51L73.26 16.21L74.3 14.94L75.4 13.72L76.53 12.53L77.72 11.4L78.94 10.3L80.21 9.26L81.51 8.26L82.85 7.31L84.23 6.42L85.65 5.57L87.1 4.78L88.59 4.05L90.1 3.37L91.64 2.75L93.22 2.18L94.82 1.68L96.45 1.25L98.1 0.87L99.77 0.56L101.46 0.32L103.18 0.14L104.91 0.04L106.67 0L533.33 0L535.09 0.04L536.82 0.14ZM105.79 21.35L104.92 21.4L104.07 21.49L103.22 21.61L102.38 21.77L101.56 21.96L100.74 22.18L99.94 22.43L99.16 22.71L98.38 23.02L97.63 23.36L96.88 23.72L96.16 24.12L95.45 24.54L94.76 24.99L94.09 25.46L93.44 25.96L92.8 26.48L92.19 27.03L91.6 27.6L91.03 28.19L90.48 28.8L89.96 29.44L89.46 30.09L88.99 30.76L88.54 31.45L88.12 32.16L87.72 32.88L87.36 33.63L87.02 34.38L86.71 35.16L86.43 35.94L86.18 36.74L85.96 37.56L85.77 38.38L85.61 39.22L85.49 40.07L85.4 40.92L85.35 41.79L85.33 42.67L85.33 469.33L85.35 470.21L85.4 471.08L85.49 471.93L85.61 472.78L85.77 473.62L85.96 474.44L86.18 475.26L86.43 476.06L86.71 476.84L87.02 477.62L87.36 478.37L87.72 479.12L88.12 479.84L88.54 480.55L88.99 481.24L89.46 481.91L89.96 482.56L90.48 483.2L91.03 483.81L91.6 484.4L92.19 484.97L92.8 485.52L93.44 486.04L94.09 486.54L94.76 487.01L95.45 487.46L96.16 487.88L96.88 488.28L97.63 488.64L98.38 488.98L99.16 489.29L99.94 489.57L100.74 489.82L101.56 490.04L102.38 490.23L103.22 490.39L104.07 490.51L104.92 490.6L105.79 490.65L106.67 490.67L533.33 490.67L533.92 490.65L534.5 490.61L535.08 490.55L535.66 490.45L536.23 490.33L536.81 490.19L537.37 490.01L537.94 489.81L538.51 489.59L539.07 489.33L539.63 489.05L540.18 488.75L540.73 488.41L541.29 488.05L541.83 487.67L542.38 487.25L542.92 486.81L543.46 486.35L544 485.85L544.53 485.33L545.07 484.79L545.59 484.21L546.12 483.61L546.65 482.99L547.17 482.33L547.69 481.65L548.2 480.95L548.71 480.21L549.23 479.45L549.73 478.67L550.24 477.85L550.74 477.01L551.24 476.15L551.74 475.25L552.23 474.33L552.73 473.39L553.21 472.41L553.7 471.41L554.19 470.39L554.67 469.33L554.67 42.67L554.65 41.79L554.6 40.92L554.51 40.07L554.39 39.22L554.23 38.38L554.04 37.56L553.82 36.74L553.57 35.94L553.29 35.16L552.98 34.38L552.64 33.63L552.28 32.88L551.88 32.16L551.46 31.45L551.01 30.76L550.54 30.09L550.04 29.44L549.52 28.8L548.97 28.19L548.4 27.6L547.81 27.03L547.2 26.48L546.56 25.96L545.91 25.46L545.24 24.99L544.55 24.54L543.84 24.12L543.12 23.72L542.37 23.36L541.62 23.02L540.84 22.71L540.06 22.43L539.26 22.18L538.44 21.96L537.62 21.77L536.78 21.61L535.93 21.49L535.08 21.4L534.21 21.35L533.33 21.33L106.67 21.33L105.79 21.35Z" id="a1c1gyPfb"></path><path d="M322.01 54.43L322.47 54.47L322.92 54.53L323.36 54.6L323.8 54.68L324.22 54.78L324.63 54.89L325.04 55.02L325.43 55.17L325.82 55.32L326.19 55.49L326.56 55.68L326.91 55.88L327.25 56.09L327.59 56.31L327.91 56.55L328.22 56.8L328.51 57.06L328.8 57.33L329.07 57.62L329.34 57.92L329.59 58.23L329.82 58.55L330.05 58.88L330.26 59.22L330.45 59.58L330.64 59.94L330.81 60.32L330.97 60.7L331.11 61.09L331.24 61.5L331.35 61.91L331.45 62.34L331.54 62.77L331.61 63.21L331.66 63.66L331.7 64.12L331.73 64.59L331.73 65.07L331.73 92.8L332.86 93.66L334.01 94.46L335.18 95.22L336.36 95.94L337.56 96.6L338.77 97.22L339.99 97.79L341.23 98.31L342.48 98.79L343.73 99.22L345 99.6L346.27 99.93L347.54 100.22L348.82 100.46L350.11 100.66L351.39 100.8L352.68 100.91L353.97 100.96L355.25 100.97L356.53 100.93L357.81 100.85L359.08 100.72L360.35 100.55L361.61 100.33L362.86 100.06L364.1 99.75L365.33 99.39L366.54 98.99L367.75 98.54L368.93 98.05L370.11 97.51L371.26 96.93L372.4 96.3L373.51 95.63L374.61 94.91L375.68 94.15L376.73 93.35L377.76 92.5L378.76 91.6L379.73 90.67L380.06 90.35L380.39 90.06L380.73 89.78L381.07 89.51L381.43 89.27L381.78 89.03L382.15 88.82L382.52 88.62L382.89 88.43L383.27 88.27L383.65 88.11L384.03 87.98L384.42 87.86L384.81 87.75L385.21 87.67L385.6 87.59L386 87.54L386.4 87.5L386.8 87.47L387.2 87.47L387.6 87.47L388 87.5L388.4 87.54L388.8 87.59L389.19 87.67L389.59 87.75L389.98 87.86L390.37 87.98L390.75 88.11L391.13 88.27L391.51 88.43L391.88 88.62L392.25 88.82L392.62 89.03L392.98 89.27L393.33 89.51L393.67 89.78L394.01 90.06L394.34 90.35L394.67 90.67L394.98 90.99L395.27 91.32L395.55 91.66L395.82 92.01L396.07 92.36L396.3 92.72L396.51 93.08L396.71 93.45L396.9 93.82L397.07 94.2L397.22 94.58L397.35 94.97L397.47 95.36L397.58 95.75L397.67 96.14L397.74 96.54L397.79 96.94L397.83 97.33L397.86 97.73L397.87 98.13L397.86 98.53L397.83 98.93L397.79 99.33L397.74 99.73L397.67 100.13L397.58 100.52L397.47 100.91L397.35 101.3L397.22 101.68L397.07 102.07L396.9 102.44L396.71 102.82L396.51 103.19L396.3 103.55L396.07 103.91L395.82 104.26L395.55 104.61L395.27 104.94L394.98 105.28L394.67 105.6L393.37 106.85L392.05 108.06L390.71 109.21L389.33 110.31L387.94 111.35L386.52 112.35L385.08 113.3L383.62 114.19L382.13 115.04L380.63 115.83L379.11 116.58L377.58 117.27L376.03 117.92L374.46 118.52L372.88 119.06L371.29 119.56L369.68 120.01L368.06 120.41L366.44 120.76L364.8 121.07L363.16 121.32L361.51 121.53L359.85 121.69L358.19 121.8L356.52 121.87L354.85 121.89L353.18 121.86L351.51 121.79L349.84 121.67L348.17 121.5L346.5 121.29L344.83 121.03L343.17 120.72L341.51 120.37L339.86 119.98L338.22 119.54L336.58 119.05L334.96 118.53L333.34 117.95L331.73 117.33L331.73 154.67L333.19 155.91L334.68 157.09L336.21 158.2L337.76 159.24L339.34 160.22L340.95 161.13L342.59 161.97L344.24 162.74L345.92 163.44L347.62 164.08L349.33 164.65L351.06 165.16L352.8 165.6L354.55 165.97L356.31 166.27L358.08 166.51L359.86 166.68L361.64 166.79L363.42 166.83L365.2 166.8L366.98 166.71L368.75 166.55L370.52 166.32L372.28 166.03L374.04 165.68L375.78 165.26L377.5 164.77L379.21 164.22L380.91 163.6L382.58 162.92L384.24 162.17L385.87 161.36L387.48 160.48L389.06 159.54L390.61 158.53L392.13 157.46L393.62 156.32L395.07 155.13L396.49 153.86L397.87 152.53L398.19 152.22L398.52 151.93L398.86 151.65L399.21 151.38L399.56 151.13L399.92 150.9L400.28 150.69L400.65 150.49L401.02 150.3L401.4 150.13L401.78 149.98L402.17 149.85L402.56 149.73L402.95 149.62L403.34 149.53L403.74 149.46L404.14 149.41L404.53 149.37L404.93 149.34L405.33 149.33L405.73 149.34L406.13 149.37L406.53 149.41L406.93 149.46L407.33 149.53L407.72 149.62L408.11 149.73L408.5 149.85L408.88 149.98L409.27 150.13L409.64 150.3L410.02 150.49L410.39 150.69L410.75 150.9L411.11 151.13L411.46 151.38L411.81 151.65L412.14 151.93L412.48 152.22L412.8 152.53L413.11 152.86L413.41 153.19L413.69 153.53L413.95 153.87L414.2 154.23L414.43 154.58L414.65 154.95L414.85 155.32L415.03 155.69L415.2 156.07L415.35 156.45L415.49 156.83L415.61 157.22L415.71 157.61L415.8 158.01L415.87 158.4L415.93 158.8L415.97 159.2L415.99 159.6L416 160L415.99 160.4L415.97 160.8L415.93 161.2L415.87 161.6L415.8 161.99L415.71 162.39L415.61 162.78L415.49 163.17L415.35 163.55L415.2 163.93L415.03 164.31L414.85 164.68L414.65 165.05L414.43 165.42L414.2 165.78L413.95 166.13L413.69 166.47L413.41 166.81L413.11 167.14L412.8 167.47L411.1 169.03L409.37 170.54L407.6 171.98L405.81 173.35L403.98 174.67L402.12 175.91L400.24 177.1L398.33 178.22L396.39 179.27L394.43 180.27L392.45 181.19L390.45 182.06L388.43 182.86L386.39 183.59L384.34 184.27L382.27 184.87L380.18 185.42L378.09 185.9L375.98 186.31L373.87 186.67L371.74 186.95L369.61 187.18L367.48 187.34L365.34 187.43L363.2 187.47L361.05 187.43L358.91 187.34L356.77 187.18L354.63 186.95L352.5 186.67L350.37 186.31L348.25 185.9L346.14 185.42L344.04 184.87L341.95 184.27L339.88 183.59L337.82 182.86L335.77 182.06L333.74 181.19L331.73 180.27L331.73 217.6L332.46 218.23L333.19 218.85L333.93 219.45L334.68 220.03L335.43 220.6L336.19 221.15L336.96 221.69L337.74 222.21L338.53 222.71L339.32 223.2L340.12 223.67L340.92 224.13L341.73 224.57L342.55 224.99L343.38 225.4L344.21 225.79L345.05 226.17L345.89 226.53L346.74 226.87L347.6 227.2L348.46 227.51L349.33 227.81L350.21 228.09L351.09 228.35L351.97 228.6L352.86 228.83L353.76 229.05L354.66 229.25L355.57 229.43L356.48 229.6L357.4 229.75L358.32 229.89L359.25 230.01L360.18 230.11L361.12 230.2L362.06 230.27L363.01 230.33L363.95 230.37L364.91 230.39L365.87 230.4L366.91 230.39L367.95 230.35L368.98 230.29L370.02 230.21L371.06 230.11L372.09 229.98L373.12 229.83L374.15 229.66L375.18 229.46L376.2 229.25L377.22 229.01L378.23 228.76L379.24 228.48L380.24 228.19L381.24 227.87L382.23 227.53L383.22 227.18L384.2 226.8L385.17 226.41L386.13 226L387.09 225.57L388.04 225.12L388.98 224.66L389.91 224.18L390.83 223.68L391.73 223.17L392.63 222.64L393.52 222.09L394.4 221.53L395.27 220.95L396.12 220.36L396.96 219.75L397.79 219.13L398.61 218.49L399.41 217.84L400.2 217.18L400.97 216.5L401.73 215.82L402.47 215.11L403.2 214.4L403.52 214.09L403.86 213.79L404.19 213.51L404.54 213.25L404.89 213L405.25 212.77L405.61 212.55L405.98 212.35L406.36 212.17L406.73 212L407.12 211.85L407.5 211.71L407.89 211.59L408.28 211.49L408.67 211.4L409.07 211.33L409.47 211.27L409.87 211.23L410.27 211.21L410.67 211.2L411.07 211.21L411.47 211.23L411.86 211.27L412.26 211.33L412.66 211.4L413.05 211.49L413.44 211.59L413.83 211.71L414.22 211.85L414.6 212L414.98 212.17L415.35 212.35L415.72 212.55L416.08 212.77L416.44 213L416.79 213.25L417.14 213.51L417.48 213.79L417.81 214.09L418.13 214.4L418.45 214.72L418.74 215.06L419.02 215.39L419.29 215.74L419.53 216.09L419.77 216.45L419.98 216.81L420.18 217.18L420.37 217.56L420.53 217.93L420.69 218.32L420.82 218.7L420.94 219.09L421.05 219.48L421.13 219.88L421.21 220.27L421.26 220.67L421.3 221.07L421.33 221.47L421.33 221.87L421.33 222.27L421.3 222.67L421.26 223.06L421.21 223.46L421.13 223.86L421.05 224.25L420.94 224.64L420.82 225.03L420.69 225.42L420.53 225.8L420.37 226.18L420.18 226.55L419.98 226.92L419.77 227.28L419.53 227.64L419.29 227.99L419.02 228.34L418.74 228.68L418.45 229.01L418.13 229.33L417.09 230.36L416.02 231.37L414.94 232.34L413.85 233.3L412.74 234.23L411.61 235.14L410.47 236.02L409.32 236.88L408.15 237.71L406.97 238.52L405.77 239.3L404.56 240.06L403.33 240.79L402.1 241.5L400.85 242.18L399.58 242.83L398.31 243.46L397.02 244.07L395.71 244.65L394.4 245.2L393.07 245.73L391.74 246.23L390.39 246.7L389.03 247.15L387.65 247.57L386.27 247.97L384.88 248.34L383.47 248.68L382.06 248.99L380.63 249.28L379.2 249.54L377.75 249.78L376.3 249.99L374.84 250.17L373.36 250.32L371.88 250.44L370.39 250.54L368.89 250.61L367.38 250.65L365.87 250.67L364.99 250.66L364.11 250.64L363.23 250.61L362.35 250.57L361.47 250.52L360.59 250.45L359.71 250.38L358.84 250.29L357.96 250.19L357.08 250.08L356.21 249.96L355.34 249.83L354.46 249.69L353.59 249.54L352.72 249.37L351.85 249.2L350.99 249.01L350.12 248.82L349.26 248.61L348.4 248.4L347.54 248.18L346.68 247.94L345.83 247.7L344.98 247.44L344.13 247.18L343.28 246.9L342.43 246.62L341.59 246.33L340.75 246.03L339.92 245.72L339.08 245.4L338.25 245.07L337.43 244.73L336.6 244.39L335.78 244.03L334.96 243.67L334.15 243.3L333.34 242.92L332.54 242.53L331.73 242.13L331.73 300.8L331.74 300.72L331.74 300.65L331.75 300.58L331.76 300.51L331.78 300.45L331.8 300.38L331.83 300.33L331.85 300.27L331.88 300.22L331.92 300.17L331.95 300.12L331.99 300.07L332.03 300.02L332.08 299.98L332.13 299.94L332.18 299.9L332.23 299.85L332.28 299.81L332.34 299.77L332.4 299.73L332.46 299.69L332.52 299.65L332.59 299.61L332.65 299.57L332.72 299.53L332.79 299.49L332.86 299.44L332.94 299.4L333.01 299.35L333.08 299.3L333.16 299.25L333.24 299.2L333.31 299.14L333.39 299.08L333.47 299.02L333.55 298.96L333.63 298.89L333.71 298.82L333.79 298.74L333.87 298.67L334.67 298.03L335.5 297.41L336.34 296.8L337.19 296.2L338.06 295.62L338.94 295.05L339.84 294.49L340.75 293.95L341.68 293.42L342.62 292.9L343.57 292.4L344.53 291.91L345.51 291.43L346.5 290.97L347.5 290.53L348.51 290.1L349.53 289.68L350.57 289.29L351.61 288.9L352.67 288.53L353.73 288.18L354.81 287.85L355.89 287.53L356.98 287.22L358.09 286.94L359.2 286.67L360.31 286.42L361.44 286.18L362.58 285.97L363.72 285.77L364.87 285.59L366.02 285.42L367.18 285.28L368.35 285.15L369.52 285.05L370.7 284.96L371.89 284.89L373.08 284.84L374.27 284.81L375.47 284.8L376.66 284.81L377.85 284.83L379.03 284.87L380.2 284.93L381.37 285L382.52 285.09L383.67 285.2L384.81 285.32L385.94 285.46L387.07 285.62L388.18 285.79L389.29 285.98L390.39 286.19L391.48 286.41L392.57 286.66L393.64 286.92L394.71 287.19L395.77 287.49L396.82 287.8L397.87 288.13L398.9 288.48L399.93 288.85L400.95 289.23L401.96 289.64L402.97 290.06L403.96 290.5L404.95 290.96L405.93 291.44L406.9 291.93L407.87 292.45L408.82 292.98L409.77 293.54L410.71 294.11L411.64 294.7L412.57 295.31L413.48 295.95L414.39 296.6L415.29 297.27L416.18 297.96L417.07 298.67L417.94 299.39L418.79 300.13L419.62 300.88L420.43 301.64L421.21 302.41L421.98 303.2L422.73 303.99L423.46 304.79L424.16 305.61L424.85 306.43L425.51 307.27L426.16 308.11L426.78 308.97L427.38 309.83L427.96 310.7L428.52 311.59L429.05 312.48L429.57 313.38L430.06 314.28L430.53 315.2L430.98 316.12L431.41 317.06L431.81 318L432.2 318.94L432.56 319.9L432.89 320.86L433.21 321.82L433.5 322.8L433.77 323.78L434.02 324.77L434.24 325.76L434.44 326.76L434.62 327.76L434.77 328.77L434.9 329.79L435.01 330.81L435.09 331.83L435.15 332.86L435.19 333.9L435.2 334.93L435.19 336.05L435.15 337.16L435.09 338.26L435.01 339.35L434.9 340.43L434.77 341.51L434.62 342.57L434.44 343.63L434.24 344.68L434.02 345.72L433.77 346.75L433.5 347.77L433.21 348.78L432.89 349.78L432.56 350.78L432.2 351.76L431.81 352.74L431.41 353.7L430.98 354.66L430.53 355.6L430.06 356.53L429.57 357.46L429.05 358.37L428.52 359.28L427.96 360.17L427.38 361.06L426.78 361.93L426.16 362.79L425.51 363.64L424.85 364.48L424.16 365.31L423.46 366.13L422.73 366.94L421.98 367.73L421.21 368.52L420.43 369.29L419.62 370.05L418.79 370.8L417.94 371.54L417.07 372.27L416.35 372.75L416.11 372.91L415.87 373.07L415.63 373.23L415.39 373.39L414.67 373.87L414.19 374.19L413.23 374.83L412.99 374.99L412.75 375.15L412.51 375.31L412.27 375.47L411.79 375.79L411.55 375.95L411.31 376.11L410.83 376.43L410.59 376.59L410.35 376.75L409.39 377.39L409.15 377.55L408.43 378.03L407.95 378.35L407.47 378.67L405.96 379.63L404.47 380.6L403 381.58L401.54 382.57L400.11 383.57L398.7 384.58L397.31 385.59L395.93 386.62L394.57 387.65L393.23 388.7L391.91 389.76L390.61 390.82L389.32 391.9L388.06 392.98L386.8 394.08L385.57 395.19L384.35 396.31L383.15 397.44L381.97 398.58L380.8 399.73L379.65 400.9L378.51 402.08L377.39 403.27L376.29 404.47L375.2 405.69L374.12 406.92L373.06 408.16L372.01 409.41L370.98 410.68L369.97 411.97L368.96 413.26L367.97 414.57L367 415.9L366.04 417.24L365.09 418.6L364.15 419.97L363.23 421.35L362.32 422.75L361.42 424.17L360.53 425.6L359.65 427.1L358.74 428.58L357.82 430.01L356.89 431.42L355.94 432.79L354.98 434.13L354 435.44L353.02 436.71L352.01 437.95L351 439.15L349.97 440.32L348.94 441.45L347.89 442.55L346.83 443.61L345.76 444.63L344.68 445.62L343.59 446.57L342.49 447.48L341.38 448.36L340.27 449.2L339.14 450L338.01 450.76L336.87 451.49L335.73 452.17L334.58 452.82L333.42 453.43L332.25 453.99L331.08 454.52L329.91 455L328.73 455.45L327.55 455.85L326.37 456.22L325.18 456.54L323.99 456.82L322.79 457.06L321.6 457.25L320.4 457.4L319.2 457.51L318 457.58L316.8 457.6L315.52 457.57L314.24 457.5L312.96 457.37L311.68 457.19L310.41 456.96L309.13 456.67L307.86 456.34L306.59 455.96L305.33 455.53L304.07 455.05L302.81 454.52L301.56 453.94L300.31 453.32L299.06 452.64L297.83 451.92L296.59 451.15L295.37 450.33L294.15 449.47L292.94 448.56L291.73 447.6L290.54 446.6L289.35 445.55L288.17 444.45L287 443.32L285.84 442.13L284.69 440.9L283.55 439.63L282.42 438.31L281.31 436.95L280.2 435.55L279.11 434.1L278.02 432.61L276.96 431.08L275.9 429.51L274.86 427.89L273.83 426.24L272.82 424.54L271.82 422.8L270.83 421.02L269.87 419.2L269.22 418.08L268.55 416.96L267.87 415.84L267.18 414.72L266.46 413.6L265.73 412.48L264.98 411.37L264.21 410.25L263.42 409.13L262.62 408.02L261.79 406.9L260.95 405.79L260.08 404.68L259.2 403.57L258.3 402.46L257.37 401.35L256.43 400.24L255.46 399.14L254.48 398.03L253.47 396.93L252.44 395.83L251.38 394.74L250.31 393.64L249.21 392.55L248.09 391.46L246.94 390.37L245.77 389.29L244.58 388.21L243.36 387.13L242.12 386.05L240.85 384.98L239.56 383.91L238.24 382.84L236.89 381.78L235.52 380.71L234.13 379.66L232.7 378.6L231.25 377.55L229.77 376.51L228.27 375.47L228.11 375.39L227.95 375.31L227.8 375.23L227.66 375.15L227.51 375.07L227.38 374.99L227.24 374.91L227.11 374.83L226.98 374.75L226.85 374.67L226.73 374.59L226.61 374.51L226.49 374.43L226.37 374.35L226.26 374.27L226.15 374.19L226.04 374.11L225.94 374.03L225.83 373.95L225.73 373.87L225.63 373.79L225.54 373.71L225.44 373.63L225.35 373.55L225.26 373.47L225.17 373.39L225.08 373.31L224.99 373.23L224.9 373.15L224.82 373.07L224.73 372.99L224.65 372.91L224.57 372.83L224.48 372.75L224.4 372.67L224.32 372.59L224.24 372.51L224.16 372.43L224.08 372.35L224 372.27L223.13 371.54L222.28 370.8L221.45 370.04L220.64 369.26L219.85 368.48L219.08 367.67L218.34 366.86L217.61 366.03L216.9 365.19L216.22 364.33L215.55 363.47L214.91 362.59L214.29 361.7L213.69 360.8L213.11 359.89L212.55 358.97L212.01 358.04L211.5 357.1L211 356.16L210.53 355.2L210.08 354.24L209.66 353.26L209.25 352.29L208.87 351.3L208.51 350.31L208.17 349.31L207.86 348.31L207.57 347.3L207.3 346.28L207.05 345.27L206.83 344.24L206.63 343.22L206.45 342.19L206.3 341.16L206.16 340.12L206.06 339.09L205.97 338.05L205.91 337.01L205.88 335.97L205.87 334.93L205.88 333.82L205.91 332.71L205.97 331.61L206.06 330.52L206.16 329.44L206.3 328.36L206.45 327.3L206.63 326.24L206.83 325.19L207.05 324.15L207.3 323.12L207.57 322.1L207.86 321.09L208.17 320.08L208.51 319.09L208.87 318.11L209.25 317.13L209.66 316.17L210.08 315.21L210.53 314.27L211 313.33L211.5 312.41L212.01 311.49L212.55 310.59L213.11 309.69L213.69 308.81L214.29 307.94L214.91 307.08L215.55 306.22L216.22 305.38L216.9 304.55L217.61 303.74L218.34 302.93L219.08 302.13L219.85 301.35L220.64 300.57L221.45 299.81L222.28 299.06L223.13 298.33L224 297.6L224.81 296.97L225.63 296.34L226.47 295.73L227.32 295.14L228.19 294.55L229.08 293.98L229.97 293.43L230.89 292.88L231.81 292.35L232.75 291.83L233.7 291.33L234.67 290.84L235.64 290.37L236.63 289.91L237.63 289.46L238.64 289.03L239.67 288.62L240.7 288.22L241.75 287.83L242.8 287.47L243.86 287.11L244.94 286.78L246.02 286.46L247.12 286.16L248.22 285.87L249.33 285.6L250.45 285.35L251.57 285.12L252.71 284.9L253.85 284.7L255 284.52L256.15 284.36L257.32 284.21L258.48 284.09L259.66 283.98L260.84 283.89L262.02 283.82L263.21 283.77L264.4 283.74L265.6 283.73L266.8 283.74L267.98 283.77L269.16 283.81L270.34 283.86L271.5 283.94L272.66 284.02L273.8 284.13L274.94 284.25L276.08 284.39L277.2 284.55L278.32 284.72L279.42 284.91L280.52 285.12L281.62 285.35L282.7 285.59L283.78 285.85L284.84 286.13L285.9 286.42L286.96 286.74L288 287.07L289.04 287.42L290.06 287.78L291.08 288.17L292.1 288.57L293.1 288.99L294.1 289.43L295.08 289.89L296.06 290.37L297.04 290.87L298 291.38L298.96 291.92L299.9 292.47L300.84 293.04L301.78 293.64L302.7 294.25L303.62 294.88L304.52 295.53L305.42 296.2L306.32 296.89L307.2 297.6L307.2 297.68L307.21 297.75L307.22 297.82L307.23 297.89L307.25 297.95L307.27 298.02L307.29 298.07L307.32 298.13L307.35 298.18L307.38 298.23L307.42 298.28L307.46 298.33L307.5 298.38L307.55 298.42L307.59 298.46L307.64 298.5L307.7 298.55L307.75 298.59L307.81 298.63L307.87 298.67L307.93 298.71L307.99 298.75L308.06 298.79L308.12 298.83L308.19 298.87L308.26 298.91L308.33 298.96L308.4 299L308.48 299.05L308.55 299.1L308.63 299.15L308.7 299.2L308.78 299.26L308.86 299.32L308.94 299.38L309.01 299.44L309.09 299.51L309.17 299.58L309.25 299.66L309.33 299.73L309.33 241.07L308.53 241.46L307.73 241.85L306.92 242.23L306.1 242.6L305.29 242.96L304.46 243.32L303.64 243.66L302.81 244L301.98 244.33L301.15 244.65L300.31 244.96L299.47 245.26L298.63 245.55L297.79 245.84L296.94 246.11L296.09 246.37L295.24 246.63L294.38 246.87L293.53 247.11L292.67 247.33L291.81 247.55L290.94 247.75L290.08 247.95L289.21 248.13L288.34 248.31L287.47 248.47L286.6 248.62L285.73 248.76L284.86 248.9L283.98 249.02L283.11 249.13L282.23 249.22L281.35 249.31L280.48 249.39L279.6 249.45L278.72 249.51L277.84 249.55L276.96 249.58L276.08 249.59L275.2 249.6L273.76 249.59L272.32 249.54L270.88 249.47L269.45 249.38L268.01 249.25L266.58 249.1L265.15 248.92L263.72 248.71L262.3 248.48L260.88 248.22L259.47 247.93L258.06 247.61L256.66 247.27L255.27 246.9L253.88 246.51L252.5 246.08L251.13 245.64L249.77 245.16L248.41 244.66L247.07 244.13L245.73 243.58L244.41 243L243.09 242.4L241.79 241.77L240.5 241.11L239.22 240.43L237.96 239.72L236.71 238.99L235.47 238.23L234.25 237.45L233.04 236.64L231.85 235.81L230.67 234.95L229.52 234.07L228.37 233.16L227.25 232.23L226.14 231.28L225.05 230.3L223.98 229.29L222.93 228.27L222.62 227.94L222.33 227.61L222.05 227.27L221.78 226.93L221.53 226.58L221.3 226.22L221.09 225.85L220.89 225.48L220.7 225.11L220.53 224.73L220.38 224.35L220.25 223.97L220.13 223.58L220.02 223.19L219.93 222.79L219.86 222.4L219.81 222L219.77 221.6L219.74 221.2L219.73 220.8L219.74 220.4L219.77 220L219.81 219.6L219.86 219.2L219.93 218.81L220.02 218.41L220.13 218.02L220.25 217.63L220.38 217.25L220.53 216.87L220.7 216.49L220.89 216.12L221.09 215.75L221.3 215.38L221.53 215.02L221.78 214.67L222.05 214.33L222.33 213.99L222.62 213.66L222.93 213.33L223.26 213.02L223.59 212.73L223.93 212.45L224.27 212.18L224.63 211.93L224.98 211.7L225.35 211.49L225.72 211.29L226.09 211.1L226.47 210.93L226.85 210.78L227.23 210.65L227.62 210.53L228.01 210.42L228.41 210.33L228.8 210.26L229.2 210.21L229.6 210.17L230 210.14L230.4 210.13L230.8 210.14L231.2 210.17L231.6 210.21L232 210.26L232.39 210.33L232.79 210.42L233.18 210.53L233.57 210.65L233.95 210.78L234.33 210.93L234.71 211.1L235.08 211.29L235.45 211.49L235.82 211.7L236.18 211.93L236.53 212.18L236.87 212.45L237.21 212.73L237.54 213.02L237.87 213.33L238.59 214.12L239.34 214.89L240.1 215.64L240.87 216.37L241.66 217.08L242.46 217.77L243.28 218.44L244.1 219.09L244.95 219.72L245.8 220.33L246.67 220.92L247.54 221.49L248.43 222.04L249.33 222.57L250.24 223.08L251.16 223.57L252.09 224.04L253.03 224.49L253.98 224.92L254.93 225.33L255.9 225.72L256.87 226.09L257.85 226.44L258.83 226.77L259.83 227.08L260.82 227.37L261.83 227.64L262.84 227.89L263.85 228.12L264.87 228.33L265.89 228.52L266.91 228.69L267.94 228.84L268.97 228.97L270.01 229.08L271.04 229.17L272.08 229.24L273.12 229.29L274.16 229.32L275.2 229.33L276.16 229.33L277.11 229.3L278.06 229.26L279.01 229.21L279.95 229.13L280.88 229.05L281.82 228.94L282.74 228.82L283.67 228.69L284.58 228.53L285.5 228.37L286.4 228.18L287.31 227.98L288.2 227.77L289.09 227.53L289.98 227.29L290.86 227.02L291.73 226.74L292.6 226.45L293.47 226.13L294.32 225.81L295.17 225.46L296.02 225.1L296.86 224.73L297.69 224.33L298.52 223.93L299.33 223.5L300.15 223.06L300.95 222.61L301.75 222.13L302.54 221.65L303.33 221.14L304.1 220.62L304.87 220.09L305.64 219.53L306.39 218.97L307.14 218.38L307.88 217.78L308.61 217.17L309.33 216.53L309.33 179.2L308.61 179.59L307.89 179.98L307.16 180.35L306.42 180.71L305.69 181.05L304.94 181.39L304.2 181.71L303.45 182.02L302.7 182.33L301.95 182.62L301.19 182.9L300.43 183.16L299.67 183.42L298.91 183.67L298.14 183.91L297.37 184.13L296.6 184.35L295.82 184.55L295.05 184.75L294.27 184.93L293.49 185.11L292.7 185.27L291.92 185.43L291.13 185.57L290.34 185.71L289.55 185.84L288.76 185.95L287.97 186.06L287.18 186.16L286.38 186.25L285.59 186.33L284.79 186.4L283.99 186.46L283.2 186.52L282.4 186.56L281.6 186.6L280.8 186.63L280 186.65L279.2 186.66L278.4 186.67L277.12 186.65L275.83 186.62L274.54 186.56L273.25 186.47L271.96 186.36L270.67 186.23L269.37 186.07L268.07 185.89L266.78 185.68L265.48 185.45L264.19 185.19L262.9 184.91L261.61 184.6L260.32 184.27L259.03 183.91L257.75 183.53L256.47 183.12L255.2 182.68L253.93 182.22L252.67 181.73L251.41 181.22L250.16 180.68L248.92 180.12L247.68 179.52L246.45 178.91L245.23 178.26L244.02 177.59L242.82 176.89L241.63 176.17L240.45 175.42L239.28 174.64L238.12 173.83L236.98 173L235.84 172.14L234.72 171.25L233.62 170.34L232.52 169.39L231.44 168.42L230.38 167.43L229.33 166.4L229.02 166.08L228.73 165.74L228.45 165.41L228.18 165.06L227.93 164.71L227.7 164.35L227.49 163.99L227.29 163.62L227.1 163.24L226.93 162.87L226.78 162.48L226.65 162.1L226.53 161.71L226.42 161.32L226.33 160.93L226.26 160.53L226.21 160.13L226.17 159.73L226.14 159.33L226.13 158.93L226.14 158.53L226.17 158.13L226.21 157.74L226.26 157.34L226.33 156.94L226.42 156.55L226.53 156.16L226.65 155.77L226.78 155.38L226.93 155L227.1 154.62L227.29 154.25L227.49 153.88L227.7 153.52L227.93 153.16L228.18 152.81L228.45 152.46L228.73 152.12L229.02 151.79L229.33 151.47L229.66 151.15L229.99 150.86L230.33 150.58L230.67 150.31L231.03 150.07L231.38 149.83L231.75 149.62L232.12 149.42L232.49 149.23L232.87 149.07L233.25 148.91L233.63 148.78L234.02 148.66L234.41 148.55L234.81 148.47L235.2 148.39L235.6 148.34L236 148.3L236.4 148.27L236.8 148.27L237.2 148.27L237.6 148.3L238 148.34L238.4 148.39L238.79 148.47L239.19 148.55L239.58 148.66L239.97 148.78L240.35 148.91L240.73 149.07L241.11 149.23L241.48 149.42L241.85 149.62L242.22 149.83L242.58 150.07L242.93 150.31L243.27 150.58L243.61 150.86L243.94 151.15L244.27 151.47L245.65 152.79L247.06 154.05L248.52 155.24L250.01 156.36L251.53 157.42L253.08 158.41L254.66 159.33L256.26 160.19L257.9 160.98L259.55 161.7L261.23 162.36L262.92 162.95L264.63 163.47L266.36 163.93L268.1 164.33L269.85 164.66L271.61 164.92L273.38 165.13L275.15 165.26L276.93 165.33L278.71 165.34L280.49 165.29L282.27 165.17L284.05 164.98L285.82 164.74L287.58 164.43L289.33 164.06L291.08 163.62L292.8 163.13L294.52 162.57L296.21 161.95L297.89 161.26L299.55 160.52L301.18 159.71L302.79 158.85L304.37 157.92L305.93 156.93L307.45 155.88L308.94 154.77L310.4 153.6L310.4 116.27L309.84 116.43L309.28 116.59L308.72 116.75L308.16 116.9L307.6 117.06L307.04 117.22L306.48 117.38L305.92 117.53L305.36 117.68L304.8 117.83L304.24 117.98L303.68 118.13L303.12 118.27L302.56 118.42L302 118.55L301.44 118.69L300.88 118.82L300.32 118.95L299.76 119.08L299.2 119.2L298.64 119.32L298.08 119.43L297.52 119.54L296.96 119.65L296.4 119.75L295.84 119.84L295.28 119.93L294.72 120.01L294.16 120.09L293.6 120.17L293.04 120.23L292.48 120.29L291.92 120.35L291.36 120.4L290.8 120.44L290.24 120.47L289.68 120.5L289.12 120.52L288.56 120.53L288 120.53L286.88 120.52L285.76 120.49L284.64 120.43L283.52 120.34L282.41 120.24L281.29 120.11L280.18 119.96L279.07 119.78L277.97 119.59L276.87 119.37L275.77 119.13L274.68 118.86L273.59 118.58L272.5 118.27L271.43 117.95L270.35 117.6L269.29 117.23L268.23 116.84L267.18 116.43L266.13 116L265.1 115.55L264.07 115.08L263.05 114.59L262.04 114.08L261.04 113.55L260.05 113.01L259.07 112.44L258.1 111.86L257.15 111.25L256.2 110.63L255.27 109.99L254.34 109.34L253.44 108.66L252.54 107.97L251.66 107.26L250.79 106.54L249.94 105.79L249.1 105.03L248.27 104.26L247.47 103.47L247.15 103.14L246.86 102.81L246.58 102.47L246.31 102.13L246.07 101.78L245.83 101.42L245.62 101.05L245.42 100.68L245.23 100.31L245.07 99.93L244.91 99.55L244.78 99.17L244.66 98.78L244.55 98.39L244.47 97.99L244.39 97.6L244.34 97.2L244.3 96.8L244.27 96.4L244.27 96L244.27 95.6L244.3 95.2L244.34 94.8L244.39 94.4L244.47 94.01L244.55 93.61L244.66 93.22L244.78 92.83L244.91 92.45L245.07 92.07L245.23 91.69L245.42 91.32L245.62 90.95L245.83 90.58L246.07 90.23L246.31 89.87L246.58 89.53L246.86 89.19L247.15 88.86L247.47 88.53L247.79 88.22L248.12 87.93L248.46 87.65L248.81 87.38L249.16 87.13L249.52 86.9L249.88 86.69L250.25 86.49L250.62 86.3L251 86.13L251.38 85.98L251.77 85.85L252.16 85.73L252.55 85.62L252.94 85.53L253.34 85.46L253.74 85.41L254.13 85.37L254.53 85.34L254.93 85.33L255.33 85.34L255.73 85.37L256.13 85.41L256.53 85.46L256.93 85.53L257.32 85.62L257.71 85.73L258.1 85.85L258.48 85.98L258.87 86.13L259.24 86.3L259.62 86.49L259.99 86.69L260.35 86.9L260.71 87.13L261.06 87.38L261.41 87.65L261.74 87.93L262.08 88.22L262.4 88.53L263.45 89.47L264.53 90.36L265.62 91.2L266.74 91.99L267.88 92.74L269.03 93.44L270.2 94.09L271.39 94.69L272.59 95.25L273.8 95.77L275.03 96.23L276.26 96.65L277.51 97.03L278.76 97.36L280.03 97.65L281.29 97.89L282.57 98.08L283.84 98.23L285.12 98.34L286.4 98.4L287.68 98.42L288.96 98.39L290.23 98.32L291.51 98.21L292.78 98.05L294.04 97.86L295.29 97.61L296.54 97.33L297.77 97L299 96.63L300.21 96.22L301.41 95.77L302.6 95.28L303.77 94.74L304.93 94.16L306.06 93.54L307.18 92.89L308.27 92.19L309.35 91.45L310.4 90.67L310.4 65.07L310.41 64.59L310.43 64.12L310.47 63.66L310.53 63.21L310.6 62.77L310.68 62.34L310.78 61.91L310.89 61.5L311.02 61.09L311.17 60.7L311.32 60.32L311.49 59.94L311.68 59.58L311.88 59.22L312.09 58.88L312.31 58.55L312.55 58.23L312.8 57.92L313.06 57.62L313.33 57.33L313.62 57.06L313.92 56.8L314.23 56.55L314.55 56.31L314.88 56.09L315.22 55.88L315.58 55.68L315.94 55.49L316.32 55.32L316.7 55.17L317.09 55.02L317.5 54.89L317.91 54.78L318.34 54.68L318.77 54.6L319.21 54.53L319.66 54.47L320.12 54.43L320.59 54.41L321.07 54.4L321.54 54.41L322.01 54.43ZM264.01 306.16L263.22 306.19L262.43 306.23L261.65 306.28L260.88 306.35L260.1 306.43L259.34 306.52L258.57 306.62L257.82 306.73L257.06 306.86L256.32 307L255.57 307.15L254.84 307.31L254.11 307.48L253.38 307.67L252.66 307.87L251.95 308.08L251.24 308.3L250.53 308.53L249.84 308.78L249.15 309.04L248.46 309.31L247.78 309.59L247.11 309.88L246.44 310.19L245.79 310.51L245.13 310.84L244.49 311.18L243.85 311.53L243.22 311.9L242.59 312.28L241.98 312.67L241.37 313.07L240.76 313.48L240.17 313.91L239.58 314.35L239 314.8L238.43 315.26L237.87 315.73L237.39 316.14L236.92 316.55L236.46 316.97L236.01 317.4L235.57 317.83L235.14 318.27L234.71 318.72L234.3 319.17L233.89 319.63L233.5 320.1L233.12 320.57L232.74 321.05L232.38 321.54L232.02 322.03L231.68 322.52L231.35 323.02L231.03 323.53L230.72 324.03L230.42 324.55L230.13 325.07L229.86 325.59L229.6 326.11L229.35 326.64L229.11 327.18L228.89 327.71L228.68 328.25L228.48 328.79L228.29 329.34L228.12 329.88L227.97 330.43L227.82 330.98L227.69 331.54L227.58 332.09L227.48 332.65L227.4 333.2L227.33 333.76L227.27 334.32L227.23 334.88L227.21 335.44L227.2 336L227.21 336.56L227.23 337.12L227.27 337.68L227.33 338.24L227.4 338.8L227.48 339.35L227.58 339.91L227.69 340.46L227.82 341.02L227.97 341.57L228.12 342.12L228.29 342.66L228.48 343.21L228.68 343.75L228.89 344.29L229.11 344.82L229.35 345.36L229.6 345.89L229.86 346.41L230.13 346.93L230.42 347.45L230.72 347.97L231.03 348.47L231.35 348.98L231.68 349.48L232.02 349.97L232.38 350.46L232.74 350.95L233.12 351.43L233.5 351.9L233.89 352.37L234.3 352.83L234.71 353.28L235.14 353.73L235.57 354.17L236.01 354.6L236.46 355.03L236.92 355.45L237.39 355.86L237.87 356.27L237.87 356.34L237.87 356.42L237.88 356.49L237.9 356.56L237.91 356.62L237.94 356.68L237.96 356.74L237.99 356.8L238.02 356.85L238.05 356.9L238.09 356.95L238.13 357L238.17 357.04L238.21 357.09L238.26 357.13L238.31 357.17L238.36 357.21L238.42 357.25L238.47 357.29L238.53 357.33L238.59 357.37L238.66 357.41L238.72 357.45L238.79 357.5L238.86 357.54L238.93 357.58L239 357.62L239.07 357.67L239.14 357.72L239.22 357.77L239.29 357.82L239.37 357.87L239.45 357.93L239.52 357.98L239.6 358.05L239.68 358.11L239.76 358.18L239.84 358.25L239.92 358.32L240 358.4L241.67 359.6L243.31 360.81L244.93 362.02L246.53 363.23L248.1 364.45L249.65 365.67L251.17 366.9L252.67 368.13L254.15 369.36L255.6 370.6L257.03 371.84L258.43 373.09L259.81 374.34L261.17 375.59L262.5 376.85L263.81 378.11L265.09 379.38L266.35 380.65L267.59 381.92L268.8 383.2L269.99 384.48L271.15 385.77L272.29 387.06L273.41 388.35L274.5 389.65L275.57 390.95L276.61 392.26L277.63 393.57L278.63 394.88L279.6 396.2L280.55 397.52L281.47 398.85L282.37 400.18L283.25 401.51L284.1 402.85L284.93 404.19L285.73 405.54L286.51 406.89L287.27 408.24L288 409.6L288.65 410.79L289.3 411.96L289.97 413.11L290.65 414.23L291.34 415.34L292.03 416.42L292.74 417.48L293.45 418.52L294.17 419.53L294.9 420.52L295.63 421.48L296.37 422.42L297.11 423.33L297.86 424.21L298.61 425.07L299.37 425.9L300.12 426.7L300.88 427.47L301.64 428.22L302.4 428.93L303.16 429.62L303.92 430.27L304.68 430.9L305.43 431.49L306.19 432.05L306.94 432.58L307.69 433.07L308.43 433.53L309.17 433.96L309.9 434.35L310.63 434.71L311.35 435.03L312.06 435.32L312.77 435.56L313.46 435.78L314.15 435.95L314.83 436.09L315.5 436.19L316.15 436.25L316.8 436.27L317.36 436.25L317.94 436.21L318.51 436.14L319.1 436.04L319.69 435.92L320.29 435.77L320.9 435.59L321.51 435.38L322.13 435.14L322.75 434.88L323.38 434.59L324.01 434.28L324.65 433.94L325.29 433.57L325.93 433.17L326.58 432.75L327.23 432.3L327.88 431.83L328.54 431.33L329.2 430.8L329.86 430.25L330.52 429.67L331.19 429.06L331.85 428.43L332.52 427.78L333.19 427.1L333.85 426.39L334.52 425.66L335.18 424.9L335.85 424.12L336.51 423.31L337.18 422.48L337.84 421.62L338.5 420.74L339.16 419.83L339.81 418.9L340.46 417.94L341.11 416.97L341.76 415.96L342.4 414.93L343.45 413.34L344.51 411.76L345.59 410.19L346.69 408.63L347.8 407.09L348.93 405.55L350.07 404.03L351.23 402.53L352.41 401.03L353.6 399.55L354.81 398.08L356.03 396.63L357.27 395.18L358.53 393.76L359.8 392.34L361.09 390.94L362.39 389.55L363.71 388.17L365.05 386.81L366.4 385.47L367.77 384.13L369.15 382.81L370.55 381.51L371.97 380.22L373.4 378.94L374.85 377.68L376.31 376.44L377.79 375.2L379.29 373.99L380.8 372.78L382.33 371.6L383.87 370.42L385.43 369.27L387.01 368.12L388.6 367L390.21 365.89L391.83 364.79L393.47 363.71L395.13 362.65L396.8 361.6L396.96 361.44L397.12 361.28L397.28 361.12L397.44 360.96L397.6 360.8L397.76 360.64L397.92 360.49L398.08 360.33L398.24 360.17L398.4 360.02L398.56 359.86L398.72 359.71L398.88 359.56L399.04 359.41L399.2 359.26L399.36 359.11L399.52 358.96L399.68 358.82L399.84 358.67L400 358.53L400.16 358.39L400.32 358.26L400.48 358.12L400.64 357.99L400.8 357.86L400.96 357.73L401.12 357.61L401.28 357.49L401.44 357.37L401.6 357.25L401.76 357.14L401.92 357.03L402.08 356.92L402.24 356.82L402.4 356.71L402.56 356.62L402.72 356.52L402.88 356.43L403.04 356.35L403.2 356.27L403.68 355.78L404.14 355.3L404.6 354.81L405.05 354.32L405.5 353.82L405.93 353.32L406.35 352.82L406.77 352.32L407.17 351.81L407.57 351.3L407.95 350.79L408.33 350.28L408.69 349.76L409.04 349.25L409.39 348.73L409.72 348.21L410.04 347.69L410.35 347.17L410.65 346.65L410.93 346.13L411.21 345.61L411.47 345.09L411.72 344.57L411.96 344.06L412.18 343.54L412.39 343.02L412.59 342.5L412.77 341.99L412.94 341.48L413.1 340.97L413.24 340.46L413.37 339.95L413.49 339.45L413.59 338.94L413.67 338.45L413.74 337.95L413.8 337.46L413.83 336.97L413.86 336.48L413.87 336L413.86 335.44L413.83 334.88L413.8 334.32L413.74 333.76L413.67 333.2L413.59 332.65L413.49 332.09L413.37 331.54L413.24 330.98L413.1 330.43L412.94 329.88L412.77 329.34L412.59 328.79L412.39 328.25L412.18 327.71L411.96 327.18L411.72 326.64L411.47 326.11L411.21 325.59L410.93 325.07L410.65 324.55L410.35 324.03L410.04 323.53L409.72 323.02L409.39 322.52L409.04 322.03L408.69 321.54L408.33 321.05L407.95 320.57L407.57 320.1L407.17 319.63L406.77 319.17L406.35 318.72L405.93 318.27L405.5 317.83L405.05 317.4L404.6 316.97L404.14 316.55L403.68 316.14L403.2 315.73L402.06 314.88L400.87 314.06L399.65 313.29L398.39 312.57L397.1 311.88L395.77 311.25L394.41 310.65L393.02 310.1L391.61 309.6L390.17 309.13L388.71 308.72L387.23 308.34L385.73 308.01L384.21 307.73L382.69 307.48L381.15 307.29L379.6 307.13L378.05 307.02L376.49 306.96L374.93 306.93L373.37 306.96L371.82 307.02L370.26 307.13L368.72 307.29L367.18 307.48L365.65 307.73L364.14 308.01L362.64 308.34L361.16 308.72L359.7 309.13L358.26 309.6L356.85 310.1L355.46 310.65L354.1 311.25L352.77 311.88L351.48 312.57L350.21 313.29L348.99 314.06L347.81 314.88L346.67 315.73L344.53 317.87L343.55 318.72L342.54 319.54L341.48 320.31L340.39 321.03L339.28 321.72L338.13 322.35L336.95 322.95L335.74 323.5L334.52 324L333.27 324.47L332 324.88L330.71 325.26L329.41 325.59L328.09 325.87L326.76 326.12L325.42 326.31L324.07 326.47L322.72 326.58L321.36 326.64L320 326.67L318.64 326.64L317.28 326.58L315.93 326.47L314.58 326.31L313.24 326.12L311.91 325.87L310.59 325.59L309.29 325.26L308 324.88L306.73 324.47L305.48 324L304.26 323.5L303.05 322.95L301.87 322.35L300.73 321.72L299.61 321.03L298.52 320.31L297.46 319.54L296.45 318.72L295.47 317.87L293.33 315.73L292.77 315.26L292.2 314.8L291.62 314.35L291.03 313.91L290.44 313.48L289.83 313.07L289.22 312.67L288.61 312.28L287.98 311.9L287.35 311.53L286.71 311.18L286.07 310.84L285.41 310.51L284.76 310.19L284.09 309.88L283.42 309.59L282.74 309.31L282.05 309.04L281.36 308.78L280.67 308.53L279.96 308.3L279.25 308.08L278.54 307.87L277.82 307.67L277.09 307.48L276.36 307.31L275.63 307.15L274.88 307L274.14 306.86L273.38 306.73L272.63 306.62L271.86 306.52L271.1 306.43L270.32 306.35L269.55 306.28L268.77 306.23L267.98 306.19L267.19 306.16L266.4 306.14L265.6 306.13L264.8 306.14L264.01 306.16Z" id="b4ct4gopO"></path></defs><g><g><use xlink:href="#a1c1gyPfb" opacity="1" fill="#000000" fill-opacity="1"></use><g><use xlink:href="#a1c1gyPfb" opacity="1" fill-opacity="0" stroke="#000000" stroke-width="1" stroke-opacity="0"></use></g></g><g><use xlink:href="#b4ct4gopO" opacity="1" fill="#000000" fill-opacity="1"></use><g><use xlink:href="#b4ct4gopO" opacity="1" fill-opacity="0" stroke="#000000" stroke-width="1" stroke-opacity="0"></use></g></g></g></svg>